solid OpenSCAD_Model
  facet normal 1 -0 0
    outer loop
      vertex 68 0 8
      vertex 68 17.8 0
      vertex 68 17.8 8
    endloop
  endfacet
  facet normal 1 0 0
    outer loop
      vertex 68 17.8 0
      vertex 68 0 8
      vertex 68 0 0
    endloop
  endfacet
  facet normal -0 0 1
    outer loop
      vertex 27.4934 12.3529 8
      vertex 29.9279 5.11451 8
      vertex 29.9279 12.8393 8
    endloop
  endfacet
  facet normal -0 0 1
    outer loop
      vertex 24.5721 5.6841 8
      vertex 27.69 5.11451 8
      vertex 27.4934 12.3529 8
    endloop
  endfacet
  facet normal 0 0 1
    outer loop
      vertex 29.9279 5.11451 8
      vertex 27.4934 12.3529 8
      vertex 27.69 5.11451 8
    endloop
  endfacet
  facet normal 0 0 1
    outer loop
      vertex 68 17.8 8
      vertex 33.5219 5.11451 8
      vertex 68 0 8
    endloop
  endfacet
  facet normal 0 0 1
    outer loop
      vertex 68 17.8 8
      vertex 31.2841 14.0873 8
      vertex 33.5219 5.11451 8
    endloop
  endfacet
  facet normal -0 0 1
    outer loop
      vertex 0 17.8 8
      vertex 31.2841 14.0873 8
      vertex 68 17.8 8
    endloop
  endfacet
  facet normal 0 0 1
    outer loop
      vertex 20.435 12.1768 8
      vertex 27.4934 12.3529 8
      vertex 27.4934 13.6009 8
    endloop
  endfacet
  facet normal 0 -0 1
    outer loop
      vertex 20.9404 9.0151 8
      vertex 27.4934 12.3529 8
      vertex 20.8843 10.2212 8
    endloop
  endfacet
  facet normal -0 0 1
    outer loop
      vertex 20.8843 7.81194 8
      vertex 23.1413 5.6841 8
      vertex 20.9404 9.0151 8
    endloop
  endfacet
  facet normal 0 0 1
    outer loop
      vertex 24.5721 5.6841 8
      vertex 20.9404 9.0151 8
      vertex 23.1413 5.6841 8
    endloop
  endfacet
  facet normal 0 0 1
    outer loop
      vertex 27.4934 12.3529 8
      vertex 20.9404 9.0151 8
      vertex 24.5721 5.6841 8
    endloop
  endfacet
  facet normal 0 0 1
    outer loop
      vertex 27.4934 12.3529 8
      vertex 20.7158 11.2751 8
      vertex 20.8843 10.2212 8
    endloop
  endfacet
  facet normal 0 0 1
    outer loop
      vertex 27.4934 12.3529 8
      vertex 20.435 12.1768 8
      vertex 20.7158 11.2751 8
    endloop
  endfacet
  facet normal 0 0 1
    outer loop
      vertex 27.4934 13.6009 8
      vertex 20.0419 12.9262 8
      vertex 20.435 12.1768 8
    endloop
  endfacet
  facet normal 0 0 1
    outer loop
      vertex 18.2422 14.1887 8
      vertex 27.4934 13.6009 8
      vertex 29.9143 14.0873 8
    endloop
  endfacet
  facet normal 0 0 1
    outer loop
      vertex 27.4934 13.6009 8
      vertex 19.5425 13.5154 8
      vertex 20.0419 12.9262 8
    endloop
  endfacet
  facet normal 0 0 1
    outer loop
      vertex 31.2841 14.0873 8
      vertex 0 17.8 8
      vertex 29.9143 14.0873 8
    endloop
  endfacet
  facet normal 0 0 1
    outer loop
      vertex 27.4934 13.6009 8
      vertex 18.9426 13.9362 8
      vertex 19.5425 13.5154 8
    endloop
  endfacet
  facet normal 0 0 1
    outer loop
      vertex 27.4934 13.6009 8
      vertex 18.2422 14.1887 8
      vertex 18.9426 13.9362 8
    endloop
  endfacet
  facet normal -0 -0 1
    outer loop
      vertex 17.4413 14.2729 8
      vertex 29.9143 14.0873 8
      vertex 0 17.8 8
    endloop
  endfacet
  facet normal 0 0 1
    outer loop
      vertex 13.9984 10.2212 8
      vertex 12.8052 11.5593 8
      vertex 13.9422 9.0151 8
    endloop
  endfacet
  facet normal 0 0 1
    outer loop
      vertex 14.1669 11.2751 8
      vertex 12.8052 11.5593 8
      vertex 13.9984 10.2212 8
    endloop
  endfacet
  facet normal 0 0 1
    outer loop
      vertex 14.4477 12.1768 8
      vertex 12.8052 11.5593 8
      vertex 14.1669 11.2751 8
    endloop
  endfacet
  facet normal 0 0 1
    outer loop
      vertex 14.8407 12.9262 8
      vertex 12.8052 11.5593 8
      vertex 14.4477 12.1768 8
    endloop
  endfacet
  facet normal 0 0 1
    outer loop
      vertex 11.4829 11.5593 8
      vertex 14.8407 12.9262 8
      vertex 15.3402 13.5154 8
    endloop
  endfacet
  facet normal 0 0 1
    outer loop
      vertex 14.8407 12.9262 8
      vertex 11.4829 11.5593 8
      vertex 12.8052 11.5593 8
    endloop
  endfacet
  facet normal 0 0 1
    outer loop
      vertex 0 17.8 8
      vertex 15.3402 13.5154 8
      vertex 15.9402 13.9362 8
    endloop
  endfacet
  facet normal 0 0 1
    outer loop
      vertex 11.4829 11.5593 8
      vertex 6.73599 11.5593 8
      vertex 9.10939 5.1834 8
    endloop
  endfacet
  facet normal 0 0 1
    outer loop
      vertex 15.3402 13.5154 8
      vertex 0 17.8 8
      vertex 11.4829 11.5593 8
    endloop
  endfacet
  facet normal 0 0 1
    outer loop
      vertex 0 17.8 8
      vertex 15.9402 13.9362 8
      vertex 16.6405 14.1887 8
    endloop
  endfacet
  facet normal 0 0 1
    outer loop
      vertex 11.4829 11.5593 8
      vertex 0 17.8 8
      vertex 6.73599 11.5593 8
    endloop
  endfacet
  facet normal 0 0 1
    outer loop
      vertex 6.73599 11.5593 8
      vertex 0 17.8 8
      vertex 5.4137 11.5593 8
    endloop
  endfacet
  facet normal 0 0 1
    outer loop
      vertex 17.4413 14.2729 8
      vertex 0 17.8 8
      vertex 16.6405 14.1887 8
    endloop
  endfacet
  facet normal 0 0 1
    outer loop
      vertex 29.9143 14.0873 8
      vertex 17.4413 14.2729 8
      vertex 18.2422 14.1887 8
    endloop
  endfacet
  facet normal -0 0 1
    outer loop
      vertex 33.5219 3.9625 8
      vertex 68 0 8
      vertex 33.5219 5.11451 8
    endloop
  endfacet
  facet normal 0 0 1
    outer loop
      vertex 0 0 8
      vertex 33.5219 3.9625 8
      vertex 27.69 3.9625 8
    endloop
  endfacet
  facet normal 0 0 1
    outer loop
      vertex 24.5721 3.9625 8
      vertex 27.69 5.11451 8
      vertex 24.5721 5.6841 8
    endloop
  endfacet
  facet normal 0 0 1
    outer loop
      vertex 27.69 5.11451 8
      vertex 24.5721 3.9625 8
      vertex 27.69 3.9625 8
    endloop
  endfacet
  facet normal 0 0 1
    outer loop
      vertex 0 0 8
      vertex 27.69 3.9625 8
      vertex 24.5721 3.9625 8
    endloop
  endfacet
  facet normal 0 0 1
    outer loop
      vertex 0 0 8
      vertex 24.5721 3.9625 8
      vertex 23.1413 3.9625 8
    endloop
  endfacet
  facet normal -0 0 1
    outer loop
      vertex 20.7158 6.76015 8
      vertex 23.1413 5.6841 8
      vertex 20.8843 7.81194 8
    endloop
  endfacet
  facet normal -0 0 1
    outer loop
      vertex 20.435 5.85975 8
      vertex 23.1413 5.6841 8
      vertex 20.7158 6.76015 8
    endloop
  endfacet
  facet normal 0 0 1
    outer loop
      vertex 23.1413 5.6841 8
      vertex 20.435 5.85975 8
      vertex 23.1413 3.9625 8
    endloop
  endfacet
  facet normal -0 0 1
    outer loop
      vertex 20.0419 5.11071 8
      vertex 23.1413 3.9625 8
      vertex 20.435 5.85975 8
    endloop
  endfacet
  facet normal -0 0 1
    outer loop
      vertex 19.5425 4.52157 8
      vertex 23.1413 3.9625 8
      vertex 20.0419 5.11071 8
    endloop
  endfacet
  facet normal -0 0 1
    outer loop
      vertex 18.9426 4.10076 8
      vertex 23.1413 3.9625 8
      vertex 19.5425 4.52157 8
    endloop
  endfacet
  facet normal 0 0 1
    outer loop
      vertex 18.2422 3.84827 8
      vertex 23.1413 3.9625 8
      vertex 18.9426 4.10076 8
    endloop
  endfacet
  facet normal 0 0 1
    outer loop
      vertex 17.4413 3.7641 8
      vertex 23.1413 3.9625 8
      vertex 18.2422 3.84827 8
    endloop
  endfacet
  facet normal 0 0 1
    outer loop
      vertex 23.1413 3.9625 8
      vertex 17.4413 3.7641 8
      vertex 0 0 8
    endloop
  endfacet
  facet normal 0 0 1
    outer loop
      vertex 9.95709 3.9625 8
      vertex 13.9422 9.0151 8
      vertex 12.8052 11.5593 8
    endloop
  endfacet
  facet normal 0 0 1
    outer loop
      vertex 13.9422 9.0151 8
      vertex 9.95709 3.9625 8
      vertex 13.9984 7.81194 8
    endloop
  endfacet
  facet normal 0 0 1
    outer loop
      vertex 13.9984 7.81194 8
      vertex 9.95709 3.9625 8
      vertex 14.1669 6.76015 8
    endloop
  endfacet
  facet normal 0 0 1
    outer loop
      vertex 9.95709 3.9625 8
      vertex 14.4477 5.85975 8
      vertex 14.1669 6.76015 8
    endloop
  endfacet
  facet normal 0 0 1
    outer loop
      vertex 9.95709 3.9625 8
      vertex 14.8407 5.11071 8
      vertex 14.4477 5.85975 8
    endloop
  endfacet
  facet normal 0 0 1
    outer loop
      vertex 9.95709 3.9625 8
      vertex 15.3402 4.52157 8
      vertex 14.8407 5.11071 8
    endloop
  endfacet
  facet normal 0 0 1
    outer loop
      vertex 9.95709 3.9625 8
      vertex 15.9402 4.10076 8
      vertex 15.3402 4.52157 8
    endloop
  endfacet
  facet normal -0 0 1
    outer loop
      vertex 9.95709 3.9625 8
      vertex 16.6405 3.84827 8
      vertex 15.9402 4.10076 8
    endloop
  endfacet
  facet normal 0 0 1
    outer loop
      vertex 0 0 8
      vertex 16.6405 3.84827 8
      vertex 9.95709 3.9625 8
    endloop
  endfacet
  facet normal 0 0 1
    outer loop
      vertex 16.6405 3.84827 8
      vertex 0 0 8
      vertex 17.4413 3.7641 8
    endloop
  endfacet
  facet normal 0 0 1
    outer loop
      vertex 0 0 8
      vertex 9.95709 3.9625 8
      vertex 8.2618 3.9625 8
    endloop
  endfacet
  facet normal 0 0 1
    outer loop
      vertex 0 0 8
      vertex 5.4137 11.5593 8
      vertex 0 17.8 8
    endloop
  endfacet
  facet normal 0 0 1
    outer loop
      vertex 33.5219 3.9625 8
      vertex 0 0 8
      vertex 68 0 8
    endloop
  endfacet
  facet normal 0 0 1
    outer loop
      vertex 5.4137 11.5593 8
      vertex 0 0 8
      vertex 8.2618 3.9625 8
    endloop
  endfacet
  facet normal 0 0 1
    outer loop
      vertex 33.5219 5.11451 8
      vertex 31.2841 14.0873 8
      vertex 31.2841 5.11451 8
    endloop
  endfacet
  facet normal 0 0 1
    outer loop
      vertex 15.3188 9.0151 8
      vertex 19.5706 9.0151 8
      vertex 19.5374 9.99376 8
    endloop
  endfacet
  facet normal 0 0 1
    outer loop
      vertex 15.3521 9.99376 8
      vertex 19.5374 9.99376 8
      vertex 19.4376 10.8415 8
    endloop
  endfacet
  facet normal 0 0 1
    outer loop
      vertex 19.5706 9.0151 8
      vertex 15.3188 9.0151 8
      vertex 19.5374 8.0394 8
    endloop
  endfacet
  facet normal 0 0 1
    outer loop
      vertex 15.4519 10.8415 8
      vertex 19.4376 10.8415 8
      vertex 19.2712 11.5583 8
    endloop
  endfacet
  facet normal 0 -0 1
    outer loop
      vertex 15.3521 8.0394 8
      vertex 19.5374 8.0394 8
      vertex 15.3188 9.0151 8
    endloop
  endfacet
  facet normal 0 0 1
    outer loop
      vertex 15.6183 11.5583 8
      vertex 19.2712 11.5583 8
      vertex 19.0383 12.1441 8
    endloop
  endfacet
  facet normal 0 0 1
    outer loop
      vertex 19.5374 8.0394 8
      vertex 15.3521 8.0394 8
      vertex 19.4376 7.19378 8
    endloop
  endfacet
  facet normal 0 0 1
    outer loop
      vertex 15.8512 12.1441 8
      vertex 19.0383 12.1441 8
      vertex 18.7389 12.5994 8
    endloop
  endfacet
  facet normal 0 -0 1
    outer loop
      vertex 15.4519 7.19378 8
      vertex 19.4376 7.19378 8
      vertex 15.3521 8.0394 8
    endloop
  endfacet
  facet normal 0 0 1
    outer loop
      vertex 17.4413 13.1849 8
      vertex 18.7389 12.5994 8
      vertex 18.373 12.9247 8
    endloop
  endfacet
  facet normal 0 0 1
    outer loop
      vertex 19.4376 7.19378 8
      vertex 15.4519 7.19378 8
      vertex 19.2712 6.47825 8
    endloop
  endfacet
  facet normal 0 0 1
    outer loop
      vertex 17.4413 13.1849 8
      vertex 18.373 12.9247 8
      vertex 17.9404 13.1198 8
    endloop
  endfacet
  facet normal 0 -0 1
    outer loop
      vertex 15.6183 6.47825 8
      vertex 19.2712 6.47825 8
      vertex 15.4519 7.19378 8
    endloop
  endfacet
  facet normal 0 0 1
    outer loop
      vertex 16.1501 12.5994 8
      vertex 18.7389 12.5994 8
      vertex 17.4413 13.1849 8
    endloop
  endfacet
  facet normal 0 0 1
    outer loop
      vertex 19.2712 6.47825 8
      vertex 15.6183 6.47825 8
      vertex 19.0383 5.89281 8
    endloop
  endfacet
  facet normal 0 0 1
    outer loop
      vertex 16.1501 12.5994 8
      vertex 17.4413 13.1849 8
      vertex 16.9453 13.1198 8
    endloop
  endfacet
  facet normal 0 -0 1
    outer loop
      vertex 15.8512 5.89281 8
      vertex 19.0383 5.89281 8
      vertex 15.6183 6.47825 8
    endloop
  endfacet
  facet normal 0 0 1
    outer loop
      vertex 16.1501 12.5994 8
      vertex 16.9453 13.1198 8
      vertex 16.5148 12.9247 8
    endloop
  endfacet
  facet normal 0 0 1
    outer loop
      vertex 19.0383 5.89281 8
      vertex 15.8512 5.89281 8
      vertex 18.7389 5.43751 8
    endloop
  endfacet
  facet normal 0 0 1
    outer loop
      vertex 18.7389 12.5994 8
      vertex 16.1501 12.5994 8
      vertex 15.8512 12.1441 8
    endloop
  endfacet
  facet normal 0 -0 1
    outer loop
      vertex 16.1501 5.43751 8
      vertex 18.7389 5.43751 8
      vertex 15.8512 5.89281 8
    endloop
  endfacet
  facet normal 0 0 1
    outer loop
      vertex 19.0383 12.1441 8
      vertex 15.8512 12.1441 8
      vertex 15.6183 11.5583 8
    endloop
  endfacet
  facet normal 0 0 1
    outer loop
      vertex 18.7389 5.43751 8
      vertex 17.4413 4.8521 8
      vertex 18.373 5.11228 8
    endloop
  endfacet
  facet normal 0 0 1
    outer loop
      vertex 19.2712 11.5583 8
      vertex 15.6183 11.5583 8
      vertex 15.4519 10.8415 8
    endloop
  endfacet
  facet normal 0 0 1
    outer loop
      vertex 18.373 5.11228 8
      vertex 17.4413 4.8521 8
      vertex 17.9404 4.91715 8
    endloop
  endfacet
  facet normal 0 0 1
    outer loop
      vertex 19.4376 10.8415 8
      vertex 15.4519 10.8415 8
      vertex 15.3521 9.99376 8
    endloop
  endfacet
  facet normal 0 0 1
    outer loop
      vertex 18.7389 5.43751 8
      vertex 16.1501 5.43751 8
      vertex 17.4413 4.8521 8
    endloop
  endfacet
  facet normal 0 0 1
    outer loop
      vertex 19.5374 9.99376 8
      vertex 15.3521 9.99376 8
      vertex 15.3188 9.0151 8
    endloop
  endfacet
  facet normal 0 0 1
    outer loop
      vertex 17.4413 4.8521 8
      vertex 16.1501 5.43751 8
      vertex 16.9453 4.91715 8
    endloop
  endfacet
  facet normal 0 0 1
    outer loop
      vertex 16.9453 4.91715 8
      vertex 16.1501 5.43751 8
      vertex 16.5148 5.11228 8
    endloop
  endfacet
  facet normal 0 0 -1
    outer loop
      vertex 0 0 0
      vertex 68 17.8 0
      vertex 68 0 0
    endloop
  endfacet
  facet normal -0 0 -1
    outer loop
      vertex 68 17.8 0
      vertex 0 0 0
      vertex 0 17.8 0
    endloop
  endfacet
  facet normal -1 0 0
    outer loop
      vertex 0 0 0
      vertex 0 17.8 8
      vertex 0 17.8 0
    endloop
  endfacet
  facet normal -1 -0 0
    outer loop
      vertex 0 17.8 8
      vertex 0 0 0
      vertex 0 0 8
    endloop
  endfacet
  facet normal 0 1 -0
    outer loop
      vertex 68 17.8 0
      vertex 0 17.8 8
      vertex 68 17.8 8
    endloop
  endfacet
  facet normal 0 1 0
    outer loop
      vertex 0 17.8 8
      vertex 68 17.8 0
      vertex 0 17.8 0
    endloop
  endfacet
  facet normal 0 -1 0
    outer loop
      vertex 0 0 0
      vertex 68 0 8
      vertex 0 0 8
    endloop
  endfacet
  facet normal 0 -1 -0
    outer loop
      vertex 68 0 8
      vertex 0 0 0
      vertex 68 0 0
    endloop
  endfacet
  facet normal 0 0 1
    outer loop
      vertex 31.2841 14.0873 7.5
      vertex 29.9279 12.8393 7.5
      vertex 31.2841 5.11451 7.5
    endloop
  endfacet
  facet normal -0 0 1
    outer loop
      vertex 29.9143 14.0873 7.5
      vertex 29.9279 12.8393 7.5
      vertex 31.2841 14.0873 7.5
    endloop
  endfacet
  facet normal -0 0 1
    outer loop
      vertex 27.4934 13.6009 7.5
      vertex 29.9279 12.8393 7.5
      vertex 29.9143 14.0873 7.5
    endloop
  endfacet
  facet normal 0 0 1
    outer loop
      vertex 29.9279 12.8393 7.5
      vertex 27.4934 13.6009 7.5
      vertex 27.4934 12.3529 7.5
    endloop
  endfacet
  facet normal -0 0 1
    outer loop
      vertex 31.2841 5.11451 7.5
      vertex 33.5219 3.9625 7.5
      vertex 33.5219 5.11451 7.5
    endloop
  endfacet
  facet normal 0 0 1
    outer loop
      vertex 29.9279 5.11451 7.5
      vertex 31.2841 5.11451 7.5
      vertex 29.9279 12.8393 7.5
    endloop
  endfacet
  facet normal -0 0 1
    outer loop
      vertex 29.9279 5.11451 7.5
      vertex 33.5219 3.9625 7.5
      vertex 31.2841 5.11451 7.5
    endloop
  endfacet
  facet normal 0 0 1
    outer loop
      vertex 27.69 3.9625 7.5
      vertex 29.9279 5.11451 7.5
      vertex 27.69 5.11451 7.5
    endloop
  endfacet
  facet normal 0 0 1
    outer loop
      vertex 29.9279 5.11451 7.5
      vertex 27.69 3.9625 7.5
      vertex 33.5219 3.9625 7.5
    endloop
  endfacet
  facet normal -0 0 1
    outer loop
      vertex 19.5374 9.99376 7.5
      vertex 20.9404 9.0151 7.5
      vertex 20.8843 10.2212 7.5
    endloop
  endfacet
  facet normal -0 0 1
    outer loop
      vertex 19.4376 10.8415 7.5
      vertex 20.8843 10.2212 7.5
      vertex 20.7158 11.2751 7.5
    endloop
  endfacet
  facet normal 0 0 1
    outer loop
      vertex 19.5374 8.0394 7.5
      vertex 20.9404 9.0151 7.5
      vertex 19.5706 9.0151 7.5
    endloop
  endfacet
  facet normal -0 0 1
    outer loop
      vertex 19.2712 11.5583 7.5
      vertex 20.7158 11.2751 7.5
      vertex 20.435 12.1768 7.5
    endloop
  endfacet
  facet normal 0 0 1
    outer loop
      vertex 20.9404 9.0151 7.5
      vertex 19.5374 8.0394 7.5
      vertex 20.8843 7.81194 7.5
    endloop
  endfacet
  facet normal 0 0 1
    outer loop
      vertex 19.0383 12.1441 7.5
      vertex 20.435 12.1768 7.5
      vertex 20.0419 12.9262 7.5
    endloop
  endfacet
  facet normal 0 0 1
    outer loop
      vertex 19.4376 7.19378 7.5
      vertex 20.8843 7.81194 7.5
      vertex 19.5374 8.0394 7.5
    endloop
  endfacet
  facet normal 0 0 1
    outer loop
      vertex 20.8843 7.81194 7.5
      vertex 19.4376 7.19378 7.5
      vertex 20.7158 6.76015 7.5
    endloop
  endfacet
  facet normal 0 0 1
    outer loop
      vertex 18.7389 12.5994 7.5
      vertex 20.0419 12.9262 7.5
      vertex 19.5425 13.5154 7.5
    endloop
  endfacet
  facet normal 0 0 1
    outer loop
      vertex 20.9404 9.0151 7.5
      vertex 19.5374 9.99376 7.5
      vertex 19.5706 9.0151 7.5
    endloop
  endfacet
  facet normal 0 0 1
    outer loop
      vertex 20.8843 10.2212 7.5
      vertex 19.4376 10.8415 7.5
      vertex 19.5374 9.99376 7.5
    endloop
  endfacet
  facet normal 0 0 1
    outer loop
      vertex 20.7158 11.2751 7.5
      vertex 19.2712 11.5583 7.5
      vertex 19.4376 10.8415 7.5
    endloop
  endfacet
  facet normal 0 0 1
    outer loop
      vertex 20.435 12.1768 7.5
      vertex 19.0383 12.1441 7.5
      vertex 19.2712 11.5583 7.5
    endloop
  endfacet
  facet normal 0 0 1
    outer loop
      vertex 18.373 12.9247 7.5
      vertex 19.5425 13.5154 7.5
      vertex 18.9426 13.9362 7.5
    endloop
  endfacet
  facet normal 0 0 1
    outer loop
      vertex 20.0419 12.9262 7.5
      vertex 18.7389 12.5994 7.5
      vertex 19.0383 12.1441 7.5
    endloop
  endfacet
  facet normal 0 0 1
    outer loop
      vertex 19.5425 13.5154 7.5
      vertex 18.373 12.9247 7.5
      vertex 18.7389 12.5994 7.5
    endloop
  endfacet
  facet normal 0 0 1
    outer loop
      vertex 18.2422 14.1887 7.5
      vertex 18.373 12.9247 7.5
      vertex 18.9426 13.9362 7.5
    endloop
  endfacet
  facet normal 0 0 1
    outer loop
      vertex 18.2422 14.1887 7.5
      vertex 17.9404 13.1198 7.5
      vertex 18.373 12.9247 7.5
    endloop
  endfacet
  facet normal 0 0 1
    outer loop
      vertex 17.4413 14.2729 7.5
      vertex 17.9404 13.1198 7.5
      vertex 18.2422 14.1887 7.5
    endloop
  endfacet
  facet normal 0 0 1
    outer loop
      vertex 17.4413 14.2729 7.5
      vertex 17.4413 13.1849 7.5
      vertex 17.9404 13.1198 7.5
    endloop
  endfacet
  facet normal 0 0 1
    outer loop
      vertex 17.4413 14.2729 7.5
      vertex 16.9453 13.1198 7.5
      vertex 17.4413 13.1849 7.5
    endloop
  endfacet
  facet normal -0 0 1
    outer loop
      vertex 16.6405 14.1887 7.5
      vertex 16.9453 13.1198 7.5
      vertex 17.4413 14.2729 7.5
    endloop
  endfacet
  facet normal 0 0 1
    outer loop
      vertex 16.6405 14.1887 7.5
      vertex 16.5148 12.9247 7.5
      vertex 16.9453 13.1198 7.5
    endloop
  endfacet
  facet normal -0 0 1
    outer loop
      vertex 15.9402 13.9362 7.5
      vertex 16.5148 12.9247 7.5
      vertex 16.6405 14.1887 7.5
    endloop
  endfacet
  facet normal -0 0 1
    outer loop
      vertex 15.3402 13.5154 7.5
      vertex 16.5148 12.9247 7.5
      vertex 15.9402 13.9362 7.5
    endloop
  endfacet
  facet normal 0 0 1
    outer loop
      vertex 16.5148 12.9247 7.5
      vertex 15.3402 13.5154 7.5
      vertex 16.1501 12.5994 7.5
    endloop
  endfacet
  facet normal -0 0 1
    outer loop
      vertex 14.8407 12.9262 7.5
      vertex 16.1501 12.5994 7.5
      vertex 15.3402 13.5154 7.5
    endloop
  endfacet
  facet normal 0 0 1
    outer loop
      vertex 16.1501 12.5994 7.5
      vertex 14.8407 12.9262 7.5
      vertex 15.8512 12.1441 7.5
    endloop
  endfacet
  facet normal -0 0 1
    outer loop
      vertex 14.4477 12.1768 7.5
      vertex 15.8512 12.1441 7.5
      vertex 14.8407 12.9262 7.5
    endloop
  endfacet
  facet normal 0 0 1
    outer loop
      vertex 15.8512 12.1441 7.5
      vertex 14.4477 12.1768 7.5
      vertex 15.6183 11.5583 7.5
    endloop
  endfacet
  facet normal 0 0 1
    outer loop
      vertex 14.1669 11.2751 7.5
      vertex 15.6183 11.5583 7.5
      vertex 14.4477 12.1768 7.5
    endloop
  endfacet
  facet normal 0 0 1
    outer loop
      vertex 15.6183 11.5583 7.5
      vertex 14.1669 11.2751 7.5
      vertex 15.4519 10.8415 7.5
    endloop
  endfacet
  facet normal 0 0 1
    outer loop
      vertex 19.2712 6.47825 7.5
      vertex 20.7158 6.76015 7.5
      vertex 19.4376 7.19378 7.5
    endloop
  endfacet
  facet normal 0 0 1
    outer loop
      vertex 20.7158 6.76015 7.5
      vertex 19.2712 6.47825 7.5
      vertex 20.435 5.85975 7.5
    endloop
  endfacet
  facet normal -0 0 1
    outer loop
      vertex 19.0383 5.89281 7.5
      vertex 20.435 5.85975 7.5
      vertex 19.2712 6.47825 7.5
    endloop
  endfacet
  facet normal 0 0 1
    outer loop
      vertex 20.435 5.85975 7.5
      vertex 19.0383 5.89281 7.5
      vertex 20.0419 5.11071 7.5
    endloop
  endfacet
  facet normal -0 0 1
    outer loop
      vertex 18.7389 5.43751 7.5
      vertex 20.0419 5.11071 7.5
      vertex 19.0383 5.89281 7.5
    endloop
  endfacet
  facet normal 0 0 1
    outer loop
      vertex 20.0419 5.11071 7.5
      vertex 18.7389 5.43751 7.5
      vertex 19.5425 4.52157 7.5
    endloop
  endfacet
  facet normal -0 0 1
    outer loop
      vertex 18.373 5.11228 7.5
      vertex 19.5425 4.52157 7.5
      vertex 18.7389 5.43751 7.5
    endloop
  endfacet
  facet normal 0 0 1
    outer loop
      vertex 19.5425 4.52157 7.5
      vertex 18.373 5.11228 7.5
      vertex 18.9426 4.10076 7.5
    endloop
  endfacet
  facet normal 0 0 1
    outer loop
      vertex 18.373 5.11228 7.5
      vertex 18.2422 3.84827 7.5
      vertex 18.9426 4.10076 7.5
    endloop
  endfacet
  facet normal -0 0 1
    outer loop
      vertex 17.9404 4.91715 7.5
      vertex 18.2422 3.84827 7.5
      vertex 18.373 5.11228 7.5
    endloop
  endfacet
  facet normal 0 0 1
    outer loop
      vertex 17.4413 3.7641 7.5
      vertex 17.9404 4.91715 7.5
      vertex 17.4413 4.8521 7.5
    endloop
  endfacet
  facet normal 0 0 1
    outer loop
      vertex 17.9404 4.91715 7.5
      vertex 17.4413 3.7641 7.5
      vertex 18.2422 3.84827 7.5
    endloop
  endfacet
  facet normal 0 0 1
    outer loop
      vertex 16.9453 4.91715 7.5
      vertex 17.4413 3.7641 7.5
      vertex 17.4413 4.8521 7.5
    endloop
  endfacet
  facet normal 0 0 1
    outer loop
      vertex 16.9453 4.91715 7.5
      vertex 16.6405 3.84827 7.5
      vertex 17.4413 3.7641 7.5
    endloop
  endfacet
  facet normal 0 0 1
    outer loop
      vertex 16.5148 5.11228 7.5
      vertex 16.6405 3.84827 7.5
      vertex 16.9453 4.91715 7.5
    endloop
  endfacet
  facet normal 0 0 1
    outer loop
      vertex 15.3402 4.52157 7.5
      vertex 16.5148 5.11228 7.5
      vertex 16.1501 5.43751 7.5
    endloop
  endfacet
  facet normal 0 0 1
    outer loop
      vertex 16.5148 5.11228 7.5
      vertex 15.9402 4.10076 7.5
      vertex 16.6405 3.84827 7.5
    endloop
  endfacet
  facet normal 0 0 1
    outer loop
      vertex 14.8407 5.11071 7.5
      vertex 16.1501 5.43751 7.5
      vertex 15.8512 5.89281 7.5
    endloop
  endfacet
  facet normal 0 0 1
    outer loop
      vertex 14.4477 5.85975 7.5
      vertex 15.8512 5.89281 7.5
      vertex 15.6183 6.47825 7.5
    endloop
  endfacet
  facet normal -0 0 1
    outer loop
      vertex 14.1669 6.76015 7.5
      vertex 15.6183 6.47825 7.5
      vertex 15.4519 7.19378 7.5
    endloop
  endfacet
  facet normal 0 0 1
    outer loop
      vertex 16.5148 5.11228 7.5
      vertex 15.3402 4.52157 7.5
      vertex 15.9402 4.10076 7.5
    endloop
  endfacet
  facet normal -0 0 1
    outer loop
      vertex 13.9984 7.81194 7.5
      vertex 15.4519 7.19378 7.5
      vertex 15.3521 8.0394 7.5
    endloop
  endfacet
  facet normal -0 0 1
    outer loop
      vertex 13.9422 9.0151 7.5
      vertex 15.3521 8.0394 7.5
      vertex 15.3188 9.0151 7.5
    endloop
  endfacet
  facet normal 0 0 1
    outer loop
      vertex 13.9984 10.2212 7.5
      vertex 15.4519 10.8415 7.5
      vertex 14.1669 11.2751 7.5
    endloop
  endfacet
  facet normal 0 0 1
    outer loop
      vertex 15.3521 8.0394 7.5
      vertex 13.9422 9.0151 7.5
      vertex 13.9984 7.81194 7.5
    endloop
  endfacet
  facet normal 0 0 1
    outer loop
      vertex 15.4519 10.8415 7.5
      vertex 13.9984 10.2212 7.5
      vertex 15.3521 9.99376 7.5
    endloop
  endfacet
  facet normal 0 0 1
    outer loop
      vertex 15.4519 7.19378 7.5
      vertex 13.9984 7.81194 7.5
      vertex 14.1669 6.76015 7.5
    endloop
  endfacet
  facet normal 0 0 1
    outer loop
      vertex 13.9422 9.0151 7.5
      vertex 15.3521 9.99376 7.5
      vertex 13.9984 10.2212 7.5
    endloop
  endfacet
  facet normal 0 0 1
    outer loop
      vertex 15.6183 6.47825 7.5
      vertex 14.1669 6.76015 7.5
      vertex 14.4477 5.85975 7.5
    endloop
  endfacet
  facet normal 0 0 1
    outer loop
      vertex 15.3521 9.99376 7.5
      vertex 13.9422 9.0151 7.5
      vertex 15.3188 9.0151 7.5
    endloop
  endfacet
  facet normal 0 0 1
    outer loop
      vertex 15.8512 5.89281 7.5
      vertex 14.4477 5.85975 7.5
      vertex 14.8407 5.11071 7.5
    endloop
  endfacet
  facet normal 0 0 1
    outer loop
      vertex 16.1501 5.43751 7.5
      vertex 14.8407 5.11071 7.5
      vertex 15.3402 4.52157 7.5
    endloop
  endfacet
  facet normal 0 0 1
    outer loop
      vertex 9.10939 5.1834 7.5
      vertex 12.8052 11.5593 7.5
      vertex 11.4829 11.5593 7.5
    endloop
  endfacet
  facet normal 0 0 1
    outer loop
      vertex 12.8052 11.5593 7.5
      vertex 9.10939 5.1834 7.5
      vertex 9.95709 3.9625 7.5
    endloop
  endfacet
  facet normal 0 0 1
    outer loop
      vertex 9.10939 5.1834 7.5
      vertex 8.2618 3.9625 7.5
      vertex 9.95709 3.9625 7.5
    endloop
  endfacet
  facet normal -0 0 1
    outer loop
      vertex 5.4137 11.5593 7.5
      vertex 9.10939 5.1834 7.5
      vertex 6.73599 11.5593 7.5
    endloop
  endfacet
  facet normal 0 0 1
    outer loop
      vertex 9.10939 5.1834 7.5
      vertex 5.4137 11.5593 7.5
      vertex 8.2618 3.9625 7.5
    endloop
  endfacet
  facet normal -0 0 1
    outer loop
      vertex 23.1413 5.6841 7.5
      vertex 24.5721 3.9625 7.5
      vertex 24.5721 5.6841 7.5
    endloop
  endfacet
  facet normal 0 0 1
    outer loop
      vertex 24.5721 3.9625 7.5
      vertex 23.1413 5.6841 7.5
      vertex 23.1413 3.9625 7.5
    endloop
  endfacet
  facet normal -0.339131 0.940739 0
    outer loop
      vertex 18.9426 4.10076 7.5
      vertex 18.2422 3.84827 8
      vertex 18.9426 4.10076 8
    endloop
  endfacet
  facet normal -0.339131 0.940739 0
    outer loop
      vertex 18.2422 3.84827 8
      vertex 18.9426 4.10076 7.5
      vertex 18.2422 3.84827 7.5
    endloop
  endfacet
  facet normal -0.574268 0.818667 0
    outer loop
      vertex 19.5425 4.52157 7.5
      vertex 18.9426 4.10076 8
      vertex 19.5425 4.52157 8
    endloop
  endfacet
  facet normal -0.574268 0.818667 0
    outer loop
      vertex 18.9426 4.10076 8
      vertex 19.5425 4.52157 7.5
      vertex 18.9426 4.10076 7.5
    endloop
  endfacet
  facet normal -0.762813 0.646619 0
    outer loop
      vertex 19.5425 4.52157 7.5
      vertex 20.0419 5.11071 8
      vertex 20.0419 5.11071 7.5
    endloop
  endfacet
  facet normal -0.762813 0.646619 0
    outer loop
      vertex 20.0419 5.11071 8
      vertex 19.5425 4.52157 7.5
      vertex 19.5425 4.52157 8
    endloop
  endfacet
  facet normal -0.885469 0.464699 0
    outer loop
      vertex 20.0419 5.11071 7.5
      vertex 20.435 5.85975 8
      vertex 20.435 5.85975 7.5
    endloop
  endfacet
  facet normal -0.885469 0.464699 0
    outer loop
      vertex 20.435 5.85975 8
      vertex 20.0419 5.11071 7.5
      vertex 20.0419 5.11071 8
    endloop
  endfacet
  facet normal -0.954653 0.29772 0
    outer loop
      vertex 20.435 5.85975 7.5
      vertex 20.7158 6.76015 8
      vertex 20.7158 6.76015 7.5
    endloop
  endfacet
  facet normal -0.954653 0.29772 0
    outer loop
      vertex 20.7158 6.76015 8
      vertex 20.435 5.85975 7.5
      vertex 20.435 5.85975 8
    endloop
  endfacet
  facet normal -0.987409 0.158186 0
    outer loop
      vertex 20.7158 6.76015 7.5
      vertex 20.8843 7.81194 8
      vertex 20.8843 7.81194 7.5
    endloop
  endfacet
  facet normal -0.987409 0.158186 0
    outer loop
      vertex 20.8843 7.81194 8
      vertex 20.7158 6.76015 7.5
      vertex 20.7158 6.76015 8
    endloop
  endfacet
  facet normal -0.998915 0.0465766 0
    outer loop
      vertex 20.8843 7.81194 7.5
      vertex 20.9404 9.0151 8
      vertex 20.9404 9.0151 7.5
    endloop
  endfacet
  facet normal -0.998915 0.0465766 0
    outer loop
      vertex 20.9404 9.0151 8
      vertex 20.8843 7.81194 7.5
      vertex 20.8843 7.81194 8
    endloop
  endfacet
  facet normal -0.99892 -0.0464633 0
    outer loop
      vertex 20.9404 9.0151 7.5
      vertex 20.8843 10.2212 8
      vertex 20.8843 10.2212 7.5
    endloop
  endfacet
  facet normal -0.99892 -0.0464633 0
    outer loop
      vertex 20.8843 10.2212 8
      vertex 20.9404 9.0151 7.5
      vertex 20.9404 9.0151 8
    endloop
  endfacet
  facet normal -0.987459 -0.157877 0
    outer loop
      vertex 20.8843 10.2212 7.5
      vertex 20.7158 11.2751 8
      vertex 20.7158 11.2751 7.5
    endloop
  endfacet
  facet normal -0.987459 -0.157877 0
    outer loop
      vertex 20.7158 11.2751 8
      vertex 20.8843 10.2212 7.5
      vertex 20.8843 10.2212 8
    endloop
  endfacet
  facet normal -0.954775 -0.297328 0
    outer loop
      vertex 20.7158 11.2751 7.5
      vertex 20.435 12.1768 8
      vertex 20.435 12.1768 7.5
    endloop
  endfacet
  facet normal -0.954775 -0.297328 0
    outer loop
      vertex 20.435 12.1768 8
      vertex 20.7158 11.2751 7.5
      vertex 20.7158 11.2751 8
    endloop
  endfacet
  facet normal -0.885561 -0.464524 0
    outer loop
      vertex 20.435 12.1768 7.5
      vertex 20.0419 12.9262 8
      vertex 20.0419 12.9262 7.5
    endloop
  endfacet
  facet normal -0.885561 -0.464524 0
    outer loop
      vertex 20.0419 12.9262 8
      vertex 20.435 12.1768 7.5
      vertex 20.435 12.1768 8
    endloop
  endfacet
  facet normal -0.762846 -0.64658 0
    outer loop
      vertex 20.0419 12.9262 7.5
      vertex 19.5425 13.5154 8
      vertex 19.5425 13.5154 7.5
    endloop
  endfacet
  facet normal -0.762846 -0.64658 0
    outer loop
      vertex 19.5425 13.5154 8
      vertex 20.0419 12.9262 7.5
      vertex 20.0419 12.9262 8
    endloop
  endfacet
  facet normal -0.574259 -0.818674 0
    outer loop
      vertex 18.9426 13.9362 7.5
      vertex 19.5425 13.5154 8
      vertex 18.9426 13.9362 8
    endloop
  endfacet
  facet normal -0.574259 -0.818674 -0
    outer loop
      vertex 19.5425 13.5154 8
      vertex 18.9426 13.9362 7.5
      vertex 19.5425 13.5154 7.5
    endloop
  endfacet
  facet normal -0.339143 -0.940735 0
    outer loop
      vertex 18.2422 14.1887 7.5
      vertex 18.9426 13.9362 8
      vertex 18.2422 14.1887 8
    endloop
  endfacet
  facet normal -0.339143 -0.940735 -0
    outer loop
      vertex 18.9426 13.9362 8
      vertex 18.2422 14.1887 7.5
      vertex 18.9426 13.9362 7.5
    endloop
  endfacet
  facet normal -0.104556 -0.994519 0
    outer loop
      vertex 17.4413 14.2729 7.5
      vertex 18.2422 14.1887 8
      vertex 17.4413 14.2729 8
    endloop
  endfacet
  facet normal -0.104556 -0.994519 -0
    outer loop
      vertex 18.2422 14.1887 8
      vertex 17.4413 14.2729 7.5
      vertex 18.2422 14.1887 7.5
    endloop
  endfacet
  facet normal 0.104568 -0.994518 0
    outer loop
      vertex 16.6405 14.1887 7.5
      vertex 17.4413 14.2729 8
      vertex 16.6405 14.1887 8
    endloop
  endfacet
  facet normal 0.104568 -0.994518 0
    outer loop
      vertex 17.4413 14.2729 8
      vertex 16.6405 14.1887 7.5
      vertex 17.4413 14.2729 7.5
    endloop
  endfacet
  facet normal 0.339186 -0.940719 0
    outer loop
      vertex 15.9402 13.9362 7.5
      vertex 16.6405 14.1887 8
      vertex 15.9402 13.9362 8
    endloop
  endfacet
  facet normal 0.339186 -0.940719 0
    outer loop
      vertex 16.6405 14.1887 8
      vertex 15.9402 13.9362 7.5
      vertex 16.6405 14.1887 7.5
    endloop
  endfacet
  facet normal 0.574195 -0.818719 0
    outer loop
      vertex 15.3402 13.5154 7.5
      vertex 15.9402 13.9362 8
      vertex 15.3402 13.5154 8
    endloop
  endfacet
  facet normal 0.574195 -0.818719 0
    outer loop
      vertex 15.9402 13.9362 8
      vertex 15.3402 13.5154 7.5
      vertex 15.9402 13.9362 7.5
    endloop
  endfacet
  facet normal 0.762782 -0.646656 0
    outer loop
      vertex 14.8407 12.9262 8
      vertex 15.3402 13.5154 7.5
      vertex 15.3402 13.5154 8
    endloop
  endfacet
  facet normal 0.762782 -0.646656 0
    outer loop
      vertex 15.3402 13.5154 7.5
      vertex 14.8407 12.9262 8
      vertex 14.8407 12.9262 7.5
    endloop
  endfacet
  facet normal 0.885609 -0.464431 0
    outer loop
      vertex 14.4477 12.1768 8
      vertex 14.8407 12.9262 7.5
      vertex 14.8407 12.9262 8
    endloop
  endfacet
  facet normal 0.885609 -0.464431 0
    outer loop
      vertex 14.8407 12.9262 7.5
      vertex 14.4477 12.1768 8
      vertex 14.4477 12.1768 7.5
    endloop
  endfacet
  facet normal 0.954775 -0.297328 0
    outer loop
      vertex 14.1669 11.2751 8
      vertex 14.4477 12.1768 7.5
      vertex 14.4477 12.1768 8
    endloop
  endfacet
  facet normal 0.954775 -0.297328 0
    outer loop
      vertex 14.4477 12.1768 7.5
      vertex 14.1669 11.2751 8
      vertex 14.1669 11.2751 7.5
    endloop
  endfacet
  facet normal 0.987459 -0.157877 0
    outer loop
      vertex 13.9984 10.2212 8
      vertex 14.1669 11.2751 7.5
      vertex 14.1669 11.2751 8
    endloop
  endfacet
  facet normal 0.987459 -0.157877 0
    outer loop
      vertex 14.1669 11.2751 7.5
      vertex 13.9984 10.2212 8
      vertex 13.9984 10.2212 7.5
    endloop
  endfacet
  facet normal 0.998916 -0.046546 0
    outer loop
      vertex 13.9422 9.0151 8
      vertex 13.9984 10.2212 7.5
      vertex 13.9984 10.2212 8
    endloop
  endfacet
  facet normal 0.998916 -0.046546 0
    outer loop
      vertex 13.9984 10.2212 7.5
      vertex 13.9422 9.0151 8
      vertex 13.9422 9.0151 7.5
    endloop
  endfacet
  facet normal 0.998911 0.0466595 0
    outer loop
      vertex 13.9984 7.81194 8
      vertex 13.9422 9.0151 7.5
      vertex 13.9422 9.0151 8
    endloop
  endfacet
  facet normal 0.998911 0.0466595 0
    outer loop
      vertex 13.9422 9.0151 7.5
      vertex 13.9984 7.81194 8
      vertex 13.9984 7.81194 7.5
    endloop
  endfacet
  facet normal 0.987409 0.158186 0
    outer loop
      vertex 14.1669 6.76015 8
      vertex 13.9984 7.81194 7.5
      vertex 13.9984 7.81194 8
    endloop
  endfacet
  facet normal 0.987409 0.158186 0
    outer loop
      vertex 13.9984 7.81194 7.5
      vertex 14.1669 6.76015 8
      vertex 14.1669 6.76015 7.5
    endloop
  endfacet
  facet normal 0.954653 0.29772 0
    outer loop
      vertex 14.4477 5.85975 8
      vertex 14.1669 6.76015 7.5
      vertex 14.1669 6.76015 8
    endloop
  endfacet
  facet normal 0.954653 0.29772 0
    outer loop
      vertex 14.1669 6.76015 7.5
      vertex 14.4477 5.85975 8
      vertex 14.4477 5.85975 7.5
    endloop
  endfacet
  facet normal 0.885518 0.464606 0
    outer loop
      vertex 14.8407 5.11071 8
      vertex 14.4477 5.85975 7.5
      vertex 14.4477 5.85975 8
    endloop
  endfacet
  facet normal 0.885518 0.464606 0
    outer loop
      vertex 14.4477 5.85975 7.5
      vertex 14.8407 5.11071 8
      vertex 14.8407 5.11071 7.5
    endloop
  endfacet
  facet normal 0.762749 0.646694 0
    outer loop
      vertex 15.3402 4.52157 8
      vertex 14.8407 5.11071 7.5
      vertex 14.8407 5.11071 8
    endloop
  endfacet
  facet normal 0.762749 0.646694 0
    outer loop
      vertex 14.8407 5.11071 7.5
      vertex 15.3402 4.52157 8
      vertex 15.3402 4.52157 7.5
    endloop
  endfacet
  facet normal 0.574204 0.818712 -0
    outer loop
      vertex 15.9402 4.10076 7.5
      vertex 15.3402 4.52157 8
      vertex 15.9402 4.10076 8
    endloop
  endfacet
  facet normal 0.574204 0.818712 0
    outer loop
      vertex 15.3402 4.52157 8
      vertex 15.9402 4.10076 7.5
      vertex 15.3402 4.52157 7.5
    endloop
  endfacet
  facet normal 0.339174 0.940724 -0
    outer loop
      vertex 16.6405 3.84827 7.5
      vertex 15.9402 4.10076 8
      vertex 16.6405 3.84827 8
    endloop
  endfacet
  facet normal 0.339174 0.940724 0
    outer loop
      vertex 15.9402 4.10076 8
      vertex 16.6405 3.84827 7.5
      vertex 15.9402 4.10076 7.5
    endloop
  endfacet
  facet normal 0.104532 0.994522 -0
    outer loop
      vertex 17.4413 3.7641 7.5
      vertex 16.6405 3.84827 8
      vertex 17.4413 3.7641 8
    endloop
  endfacet
  facet normal 0.104532 0.994522 0
    outer loop
      vertex 16.6405 3.84827 8
      vertex 17.4413 3.7641 7.5
      vertex 16.6405 3.84827 7.5
    endloop
  endfacet
  facet normal -0.104519 0.994523 0
    outer loop
      vertex 18.2422 3.84827 7.5
      vertex 17.4413 3.7641 8
      vertex 18.2422 3.84827 8
    endloop
  endfacet
  facet normal -0.104519 0.994523 0
    outer loop
      vertex 17.4413 3.7641 8
      vertex 18.2422 3.84827 7.5
      vertex 17.4413 3.7641 7.5
    endloop
  endfacet
  facet normal -0.412835 -0.910806 0
    outer loop
      vertex 16.5148 5.11228 7.5
      vertex 16.9453 4.91715 8
      vertex 16.5148 5.11228 8
    endloop
  endfacet
  facet normal -0.412835 -0.910806 -0
    outer loop
      vertex 16.9453 4.91715 8
      vertex 16.5148 5.11228 7.5
      vertex 16.9453 4.91715 7.5
    endloop
  endfacet
  facet normal -0.665566 -0.746339 0
    outer loop
      vertex 16.1501 5.43751 7.5
      vertex 16.5148 5.11228 8
      vertex 16.1501 5.43751 8
    endloop
  endfacet
  facet normal -0.665566 -0.746339 -0
    outer loop
      vertex 16.5148 5.11228 8
      vertex 16.1501 5.43751 7.5
      vertex 16.5148 5.11228 7.5
    endloop
  endfacet
  facet normal -0.835956 -0.548797 0
    outer loop
      vertex 16.1501 5.43751 7.5
      vertex 15.8512 5.89281 8
      vertex 15.8512 5.89281 7.5
    endloop
  endfacet
  facet normal -0.835956 -0.548797 0
    outer loop
      vertex 15.8512 5.89281 8
      vertex 16.1501 5.43751 7.5
      vertex 16.1501 5.43751 8
    endloop
  endfacet
  facet normal -0.929173 -0.369644 0
    outer loop
      vertex 15.8512 5.89281 7.5
      vertex 15.6183 6.47825 8
      vertex 15.6183 6.47825 7.5
    endloop
  endfacet
  facet normal -0.929173 -0.369644 0
    outer loop
      vertex 15.6183 6.47825 8
      vertex 15.8512 5.89281 7.5
      vertex 15.8512 5.89281 8
    endloop
  endfacet
  facet normal -0.974009 -0.22651 0
    outer loop
      vertex 15.6183 6.47825 7.5
      vertex 15.4519 7.19378 8
      vertex 15.4519 7.19378 7.5
    endloop
  endfacet
  facet normal -0.974009 -0.22651 0
    outer loop
      vertex 15.4519 7.19378 8
      vertex 15.6183 6.47825 7.5
      vertex 15.6183 6.47825 8
    endloop
  endfacet
  facet normal -0.993108 -0.117206 0
    outer loop
      vertex 15.4519 7.19378 7.5
      vertex 15.3521 8.0394 8
      vertex 15.3521 8.0394 7.5
    endloop
  endfacet
  facet normal -0.993108 -0.117206 0
    outer loop
      vertex 15.3521 8.0394 8
      vertex 15.4519 7.19378 7.5
      vertex 15.4519 7.19378 8
    endloop
  endfacet
  facet normal -0.999418 -0.0341095 0
    outer loop
      vertex 15.3521 8.0394 7.5
      vertex 15.3188 9.0151 8
      vertex 15.3188 9.0151 7.5
    endloop
  endfacet
  facet normal -0.999418 -0.0341095 0
    outer loop
      vertex 15.3188 9.0151 8
      vertex 15.3521 8.0394 7.5
      vertex 15.3521 8.0394 8
    endloop
  endfacet
  facet normal -0.999422 0.0340064 0
    outer loop
      vertex 15.3188 9.0151 7.5
      vertex 15.3521 9.99376 8
      vertex 15.3521 9.99376 7.5
    endloop
  endfacet
  facet normal -0.999422 0.0340064 0
    outer loop
      vertex 15.3521 9.99376 8
      vertex 15.3188 9.0151 7.5
      vertex 15.3188 9.0151 8
    endloop
  endfacet
  facet normal -0.993142 0.116917 0
    outer loop
      vertex 15.3521 9.99376 7.5
      vertex 15.4519 10.8415 8
      vertex 15.4519 10.8415 7.5
    endloop
  endfacet
  facet normal -0.993142 0.116917 0
    outer loop
      vertex 15.4519 10.8415 8
      vertex 15.3521 9.99376 7.5
      vertex 15.3521 9.99376 8
    endloop
  endfacet
  facet normal -0.974097 0.22613 0
    outer loop
      vertex 15.4519 10.8415 7.5
      vertex 15.6183 11.5583 8
      vertex 15.6183 11.5583 7.5
    endloop
  endfacet
  facet normal -0.974097 0.22613 0
    outer loop
      vertex 15.6183 11.5583 8
      vertex 15.4519 10.8415 7.5
      vertex 15.4519 10.8415 8
    endloop
  endfacet
  facet normal -0.929251 0.369448 0
    outer loop
      vertex 15.6183 11.5583 7.5
      vertex 15.8512 12.1441 8
      vertex 15.8512 12.1441 7.5
    endloop
  endfacet
  facet normal -0.929251 0.369448 0
    outer loop
      vertex 15.8512 12.1441 8
      vertex 15.6183 11.5583 7.5
      vertex 15.6183 11.5583 8
    endloop
  endfacet
  facet normal -0.835956 0.548797 0
    outer loop
      vertex 15.8512 12.1441 7.5
      vertex 16.1501 12.5994 8
      vertex 16.1501 12.5994 7.5
    endloop
  endfacet
  facet normal -0.835956 0.548797 0
    outer loop
      vertex 16.1501 12.5994 8
      vertex 15.8512 12.1441 7.5
      vertex 15.8512 12.1441 8
    endloop
  endfacet
  facet normal -0.665646 0.746268 0
    outer loop
      vertex 16.5148 12.9247 7.5
      vertex 16.1501 12.5994 8
      vertex 16.5148 12.9247 8
    endloop
  endfacet
  facet normal -0.665646 0.746268 0
    outer loop
      vertex 16.1501 12.5994 8
      vertex 16.5148 12.9247 7.5
      vertex 16.1501 12.5994 7.5
    endloop
  endfacet
  facet normal -0.412782 0.91083 0
    outer loop
      vertex 16.9453 13.1198 7.5
      vertex 16.5148 12.9247 8
      vertex 16.9453 13.1198 8
    endloop
  endfacet
  facet normal -0.412782 0.91083 0
    outer loop
      vertex 16.5148 12.9247 8
      vertex 16.9453 13.1198 7.5
      vertex 16.5148 12.9247 7.5
    endloop
  endfacet
  facet normal -0.130134 0.991496 0
    outer loop
      vertex 17.4413 13.1849 7.5
      vertex 16.9453 13.1198 8
      vertex 17.4413 13.1849 8
    endloop
  endfacet
  facet normal -0.130134 0.991496 0
    outer loop
      vertex 16.9453 13.1198 8
      vertex 17.4413 13.1849 7.5
      vertex 16.9453 13.1198 7.5
    endloop
  endfacet
  facet normal 0.129339 0.9916 -0
    outer loop
      vertex 17.9404 13.1198 7.5
      vertex 17.4413 13.1849 8
      vertex 17.9404 13.1198 8
    endloop
  endfacet
  facet normal 0.129339 0.9916 0
    outer loop
      vertex 17.4413 13.1849 8
      vertex 17.9404 13.1198 7.5
      vertex 17.4413 13.1849 7.5
    endloop
  endfacet
  facet normal 0.411118 0.911582 -0
    outer loop
      vertex 18.373 12.9247 7.5
      vertex 17.9404 13.1198 8
      vertex 18.373 12.9247 8
    endloop
  endfacet
  facet normal 0.411118 0.911582 0
    outer loop
      vertex 17.9404 13.1198 8
      vertex 18.373 12.9247 7.5
      vertex 17.9404 13.1198 7.5
    endloop
  endfacet
  facet normal 0.664427 0.747353 -0
    outer loop
      vertex 18.7389 12.5994 7.5
      vertex 18.373 12.9247 8
      vertex 18.7389 12.5994 8
    endloop
  endfacet
  facet normal 0.664427 0.747353 0
    outer loop
      vertex 18.373 12.9247 8
      vertex 18.7389 12.5994 7.5
      vertex 18.373 12.9247 7.5
    endloop
  endfacet
  facet normal 0.835535 0.549438 0
    outer loop
      vertex 19.0383 12.1441 8
      vertex 18.7389 12.5994 7.5
      vertex 18.7389 12.5994 8
    endloop
  endfacet
  facet normal 0.835535 0.549438 0
    outer loop
      vertex 18.7389 12.5994 7.5
      vertex 19.0383 12.1441 8
      vertex 19.0383 12.1441 7.5
    endloop
  endfacet
  facet normal 0.929251 0.369448 0
    outer loop
      vertex 19.2712 11.5583 8
      vertex 19.0383 12.1441 7.5
      vertex 19.0383 12.1441 8
    endloop
  endfacet
  facet normal 0.929251 0.369448 0
    outer loop
      vertex 19.0383 12.1441 7.5
      vertex 19.2712 11.5583 8
      vertex 19.2712 11.5583 7.5
    endloop
  endfacet
  facet normal 0.974097 0.22613 0
    outer loop
      vertex 19.4376 10.8415 8
      vertex 19.2712 11.5583 7.5
      vertex 19.2712 11.5583 8
    endloop
  endfacet
  facet normal 0.974097 0.22613 0
    outer loop
      vertex 19.2712 11.5583 7.5
      vertex 19.4376 10.8415 8
      vertex 19.4376 10.8415 7.5
    endloop
  endfacet
  facet normal 0.993142 0.116917 0
    outer loop
      vertex 19.5374 9.99376 8
      vertex 19.4376 10.8415 7.5
      vertex 19.4376 10.8415 8
    endloop
  endfacet
  facet normal 0.993142 0.116917 0
    outer loop
      vertex 19.4376 10.8415 7.5
      vertex 19.5374 9.99376 8
      vertex 19.5374 9.99376 7.5
    endloop
  endfacet
  facet normal 0.999425 0.0339044 0
    outer loop
      vertex 19.5706 9.0151 8
      vertex 19.5374 9.99376 7.5
      vertex 19.5374 9.99376 8
    endloop
  endfacet
  facet normal 0.999425 0.0339044 0
    outer loop
      vertex 19.5374 9.99376 7.5
      vertex 19.5706 9.0151 8
      vertex 19.5706 9.0151 7.5
    endloop
  endfacet
  facet normal 0.999422 -0.0340072 0
    outer loop
      vertex 19.5374 8.0394 8
      vertex 19.5706 9.0151 7.5
      vertex 19.5706 9.0151 8
    endloop
  endfacet
  facet normal 0.999422 -0.0340072 0
    outer loop
      vertex 19.5706 9.0151 7.5
      vertex 19.5374 8.0394 8
      vertex 19.5374 8.0394 7.5
    endloop
  endfacet
  facet normal 0.993108 -0.117206 0
    outer loop
      vertex 19.4376 7.19378 8
      vertex 19.5374 8.0394 7.5
      vertex 19.5374 8.0394 8
    endloop
  endfacet
  facet normal 0.993108 -0.117206 0
    outer loop
      vertex 19.5374 8.0394 7.5
      vertex 19.4376 7.19378 8
      vertex 19.4376 7.19378 7.5
    endloop
  endfacet
  facet normal 0.974009 -0.22651 0
    outer loop
      vertex 19.2712 6.47825 8
      vertex 19.4376 7.19378 7.5
      vertex 19.4376 7.19378 8
    endloop
  endfacet
  facet normal 0.974009 -0.22651 0
    outer loop
      vertex 19.4376 7.19378 7.5
      vertex 19.2712 6.47825 8
      vertex 19.2712 6.47825 7.5
    endloop
  endfacet
  facet normal 0.929173 -0.369644 0
    outer loop
      vertex 19.0383 5.89281 8
      vertex 19.2712 6.47825 7.5
      vertex 19.2712 6.47825 8
    endloop
  endfacet
  facet normal 0.929173 -0.369644 0
    outer loop
      vertex 19.2712 6.47825 7.5
      vertex 19.0383 5.89281 8
      vertex 19.0383 5.89281 7.5
    endloop
  endfacet
  facet normal 0.835535 -0.549438 0
    outer loop
      vertex 18.7389 5.43751 8
      vertex 19.0383 5.89281 7.5
      vertex 19.0383 5.89281 8
    endloop
  endfacet
  facet normal 0.835535 -0.549438 0
    outer loop
      vertex 19.0383 5.89281 7.5
      vertex 18.7389 5.43751 8
      vertex 18.7389 5.43751 7.5
    endloop
  endfacet
  facet normal 0.664347 -0.747424 0
    outer loop
      vertex 18.373 5.11228 7.5
      vertex 18.7389 5.43751 8
      vertex 18.373 5.11228 8
    endloop
  endfacet
  facet normal 0.664347 -0.747424 0
    outer loop
      vertex 18.7389 5.43751 8
      vertex 18.373 5.11228 7.5
      vertex 18.7389 5.43751 7.5
    endloop
  endfacet
  facet normal 0.411171 -0.911558 0
    outer loop
      vertex 17.9404 4.91715 7.5
      vertex 18.373 5.11228 8
      vertex 17.9404 4.91715 8
    endloop
  endfacet
  facet normal 0.411171 -0.911558 0
    outer loop
      vertex 18.373 5.11228 8
      vertex 17.9404 4.91715 7.5
      vertex 18.373 5.11228 7.5
    endloop
  endfacet
  facet normal 0.129242 -0.991613 0
    outer loop
      vertex 17.4413 4.8521 7.5
      vertex 17.9404 4.91715 8
      vertex 17.4413 4.8521 8
    endloop
  endfacet
  facet normal 0.129242 -0.991613 0
    outer loop
      vertex 17.9404 4.91715 8
      vertex 17.4413 4.8521 7.5
      vertex 17.9404 4.91715 7.5
    endloop
  endfacet
  facet normal -0.130036 -0.991509 0
    outer loop
      vertex 16.9453 4.91715 7.5
      vertex 17.4413 4.8521 8
      vertex 16.9453 4.91715 8
    endloop
  endfacet
  facet normal -0.130036 -0.991509 -0
    outer loop
      vertex 17.4413 4.8521 8
      vertex 16.9453 4.91715 7.5
      vertex 17.4413 4.8521 7.5
    endloop
  endfacet
  facet normal 0 -1 0
    outer loop
      vertex 31.2841 5.11451 7.5
      vertex 33.5219 5.11451 8
      vertex 31.2841 5.11451 8
    endloop
  endfacet
  facet normal 0 -1 -0
    outer loop
      vertex 33.5219 5.11451 8
      vertex 31.2841 5.11451 7.5
      vertex 33.5219 5.11451 7.5
    endloop
  endfacet
  facet normal -1 0 0
    outer loop
      vertex 31.2841 5.11451 7.5
      vertex 31.2841 14.0873 8
      vertex 31.2841 14.0873 7.5
    endloop
  endfacet
  facet normal -1 -0 0
    outer loop
      vertex 31.2841 14.0873 8
      vertex 31.2841 5.11451 7.5
      vertex 31.2841 5.11451 8
    endloop
  endfacet
  facet normal 0 -1 0
    outer loop
      vertex 29.9143 14.0873 7.5
      vertex 31.2841 14.0873 8
      vertex 29.9143 14.0873 8
    endloop
  endfacet
  facet normal 0 -1 -0
    outer loop
      vertex 31.2841 14.0873 8
      vertex 29.9143 14.0873 7.5
      vertex 31.2841 14.0873 7.5
    endloop
  endfacet
  facet normal 0.196981 -0.980407 0
    outer loop
      vertex 27.4934 13.6009 7.5
      vertex 29.9143 14.0873 8
      vertex 27.4934 13.6009 8
    endloop
  endfacet
  facet normal 0.196981 -0.980407 0
    outer loop
      vertex 29.9143 14.0873 8
      vertex 27.4934 13.6009 7.5
      vertex 29.9143 14.0873 7.5
    endloop
  endfacet
  facet normal 1 -0 0
    outer loop
      vertex 27.4934 12.3529 8
      vertex 27.4934 13.6009 7.5
      vertex 27.4934 13.6009 8
    endloop
  endfacet
  facet normal 1 0 0
    outer loop
      vertex 27.4934 13.6009 7.5
      vertex 27.4934 12.3529 8
      vertex 27.4934 12.3529 7.5
    endloop
  endfacet
  facet normal -0.195922 0.980619 0
    outer loop
      vertex 29.9279 12.8393 7.5
      vertex 27.4934 12.3529 8
      vertex 29.9279 12.8393 8
    endloop
  endfacet
  facet normal -0.195922 0.980619 0
    outer loop
      vertex 27.4934 12.3529 8
      vertex 29.9279 12.8393 7.5
      vertex 27.4934 12.3529 7.5
    endloop
  endfacet
  facet normal 1 -0 0
    outer loop
      vertex 29.9279 5.11451 8
      vertex 29.9279 12.8393 7.5
      vertex 29.9279 12.8393 8
    endloop
  endfacet
  facet normal 1 0 0
    outer loop
      vertex 29.9279 12.8393 7.5
      vertex 29.9279 5.11451 8
      vertex 29.9279 5.11451 7.5
    endloop
  endfacet
  facet normal 0 -1 0
    outer loop
      vertex 27.69 5.11451 7.5
      vertex 29.9279 5.11451 8
      vertex 27.69 5.11451 8
    endloop
  endfacet
  facet normal 0 -1 -0
    outer loop
      vertex 29.9279 5.11451 8
      vertex 27.69 5.11451 7.5
      vertex 29.9279 5.11451 7.5
    endloop
  endfacet
  facet normal 1 -0 0
    outer loop
      vertex 27.69 3.9625 8
      vertex 27.69 5.11451 7.5
      vertex 27.69 5.11451 8
    endloop
  endfacet
  facet normal 1 0 0
    outer loop
      vertex 27.69 5.11451 7.5
      vertex 27.69 3.9625 8
      vertex 27.69 3.9625 7.5
    endloop
  endfacet
  facet normal 0 1 -0
    outer loop
      vertex 33.5219 3.9625 7.5
      vertex 27.69 3.9625 8
      vertex 33.5219 3.9625 8
    endloop
  endfacet
  facet normal 0 1 0
    outer loop
      vertex 27.69 3.9625 8
      vertex 33.5219 3.9625 7.5
      vertex 27.69 3.9625 7.5
    endloop
  endfacet
  facet normal -1 0 0
    outer loop
      vertex 33.5219 3.9625 7.5
      vertex 33.5219 5.11451 8
      vertex 33.5219 5.11451 7.5
    endloop
  endfacet
  facet normal -1 -0 0
    outer loop
      vertex 33.5219 5.11451 8
      vertex 33.5219 3.9625 7.5
      vertex 33.5219 3.9625 8
    endloop
  endfacet
  facet normal 0 -1 0
    outer loop
      vertex 11.4829 11.5593 7.5
      vertex 12.8052 11.5593 8
      vertex 11.4829 11.5593 8
    endloop
  endfacet
  facet normal 0 -1 -0
    outer loop
      vertex 12.8052 11.5593 8
      vertex 11.4829 11.5593 7.5
      vertex 12.8052 11.5593 7.5
    endloop
  endfacet
  facet normal 0.93717 -0.348873 0
    outer loop
      vertex 9.10939 5.1834 8
      vertex 11.4829 11.5593 7.5
      vertex 11.4829 11.5593 8
    endloop
  endfacet
  facet normal 0.93717 -0.348873 0
    outer loop
      vertex 11.4829 11.5593 7.5
      vertex 9.10939 5.1834 8
      vertex 9.10939 5.1834 7.5
    endloop
  endfacet
  facet normal -0.937175 -0.348859 0
    outer loop
      vertex 9.10939 5.1834 7.5
      vertex 6.73599 11.5593 8
      vertex 6.73599 11.5593 7.5
    endloop
  endfacet
  facet normal -0.937175 -0.348859 0
    outer loop
      vertex 6.73599 11.5593 8
      vertex 9.10939 5.1834 7.5
      vertex 9.10939 5.1834 8
    endloop
  endfacet
  facet normal 0 -1 0
    outer loop
      vertex 5.4137 11.5593 7.5
      vertex 6.73599 11.5593 8
      vertex 5.4137 11.5593 8
    endloop
  endfacet
  facet normal 0 -1 -0
    outer loop
      vertex 6.73599 11.5593 8
      vertex 5.4137 11.5593 7.5
      vertex 6.73599 11.5593 7.5
    endloop
  endfacet
  facet normal 0.936358 0.351048 0
    outer loop
      vertex 8.2618 3.9625 8
      vertex 5.4137 11.5593 7.5
      vertex 5.4137 11.5593 8
    endloop
  endfacet
  facet normal 0.936358 0.351048 0
    outer loop
      vertex 5.4137 11.5593 7.5
      vertex 8.2618 3.9625 8
      vertex 8.2618 3.9625 7.5
    endloop
  endfacet
  facet normal 0 1 -0
    outer loop
      vertex 9.95709 3.9625 7.5
      vertex 8.2618 3.9625 8
      vertex 9.95709 3.9625 8
    endloop
  endfacet
  facet normal 0 1 0
    outer loop
      vertex 8.2618 3.9625 8
      vertex 9.95709 3.9625 7.5
      vertex 8.2618 3.9625 7.5
    endloop
  endfacet
  facet normal -0.936357 0.351049 0
    outer loop
      vertex 9.95709 3.9625 7.5
      vertex 12.8052 11.5593 8
      vertex 12.8052 11.5593 7.5
    endloop
  endfacet
  facet normal -0.936357 0.351049 0
    outer loop
      vertex 12.8052 11.5593 8
      vertex 9.95709 3.9625 7.5
      vertex 9.95709 3.9625 8
    endloop
  endfacet
  facet normal 0 -1 0
    outer loop
      vertex 23.1413 5.6841 7.5
      vertex 24.5721 5.6841 8
      vertex 23.1413 5.6841 8
    endloop
  endfacet
  facet normal 0 -1 -0
    outer loop
      vertex 24.5721 5.6841 8
      vertex 23.1413 5.6841 7.5
      vertex 24.5721 5.6841 7.5
    endloop
  endfacet
  facet normal 1 -0 0
    outer loop
      vertex 23.1413 3.9625 8
      vertex 23.1413 5.6841 7.5
      vertex 23.1413 5.6841 8
    endloop
  endfacet
  facet normal 1 0 0
    outer loop
      vertex 23.1413 5.6841 7.5
      vertex 23.1413 3.9625 8
      vertex 23.1413 3.9625 7.5
    endloop
  endfacet
  facet normal 0 1 -0
    outer loop
      vertex 24.5721 3.9625 7.5
      vertex 23.1413 3.9625 8
      vertex 24.5721 3.9625 8
    endloop
  endfacet
  facet normal 0 1 0
    outer loop
      vertex 23.1413 3.9625 8
      vertex 24.5721 3.9625 7.5
      vertex 23.1413 3.9625 7.5
    endloop
  endfacet
  facet normal -1 0 0
    outer loop
      vertex 24.5721 3.9625 7.5
      vertex 24.5721 5.6841 8
      vertex 24.5721 5.6841 7.5
    endloop
  endfacet
  facet normal -1 -0 0
    outer loop
      vertex 24.5721 5.6841 8
      vertex 24.5721 3.9625 7.5
      vertex 24.5721 3.9625 8
    endloop
  endfacet
endsolid OpenSCAD_Model
