%TF.GenerationSoftware,KiCad,Pcbnew,9.0.7+1*%
%TF.CreationDate,2026-09-06T14:31:07+00:00*%
%TF.ProjectId,pb3-replacement,7062332d-7265-4706-9c61-63656d656e74,0.1*%
%TF.SameCoordinates,Original*%
%TF.FileFunction,Legend,Top*%
%TF.FilePolarity,Positive*%
%FSLAX46Y46*%
G04 Gerber Fmt 4.6, Leading zero omitted, Abs format (unit mm)*
G04 Created by KiCad (PCBNEW 9.0.7+1) date 2026-09-06 14:31:07*
%MOMM*%
%LPD*%
G01*
G04 APERTURE LIST*
%ADD10C,0.150000*%
G04 APERTURE END LIST*
D10*
X123071428Y-102369104D02*
X123547618Y-102369104D01*
X122976190Y-102654819D02*
X123309523Y-101654819D01*
X123309523Y-101654819D02*
X123642856Y-102654819D01*
X123976190Y-102654819D02*
X123976190Y-101654819D01*
X124357142Y-101654819D02*
X124595237Y-102654819D01*
X124595237Y-102654819D02*
X124785713Y-101940533D01*
X124785713Y-101940533D02*
X124976189Y-102654819D01*
X124976189Y-102654819D02*
X125214285Y-101654819D01*
X125547618Y-102369104D02*
X126023808Y-102369104D01*
X125452380Y-102654819D02*
X125785713Y-101654819D01*
X125785713Y-101654819D02*
X126119046Y-102654819D01*
X127214285Y-102654819D02*
X127214285Y-101654819D01*
X127214285Y-101654819D02*
X127595237Y-101654819D01*
X127595237Y-101654819D02*
X127690475Y-101702438D01*
X127690475Y-101702438D02*
X127738094Y-101750057D01*
X127738094Y-101750057D02*
X127785713Y-101845295D01*
X127785713Y-101845295D02*
X127785713Y-101988152D01*
X127785713Y-101988152D02*
X127738094Y-102083390D01*
X127738094Y-102083390D02*
X127690475Y-102131009D01*
X127690475Y-102131009D02*
X127595237Y-102178628D01*
X127595237Y-102178628D02*
X127214285Y-102178628D01*
X128547618Y-102131009D02*
X128690475Y-102178628D01*
X128690475Y-102178628D02*
X128738094Y-102226247D01*
X128738094Y-102226247D02*
X128785713Y-102321485D01*
X128785713Y-102321485D02*
X128785713Y-102464342D01*
X128785713Y-102464342D02*
X128738094Y-102559580D01*
X128738094Y-102559580D02*
X128690475Y-102607200D01*
X128690475Y-102607200D02*
X128595237Y-102654819D01*
X128595237Y-102654819D02*
X128214285Y-102654819D01*
X128214285Y-102654819D02*
X128214285Y-101654819D01*
X128214285Y-101654819D02*
X128547618Y-101654819D01*
X128547618Y-101654819D02*
X128642856Y-101702438D01*
X128642856Y-101702438D02*
X128690475Y-101750057D01*
X128690475Y-101750057D02*
X128738094Y-101845295D01*
X128738094Y-101845295D02*
X128738094Y-101940533D01*
X128738094Y-101940533D02*
X128690475Y-102035771D01*
X128690475Y-102035771D02*
X128642856Y-102083390D01*
X128642856Y-102083390D02*
X128547618Y-102131009D01*
X128547618Y-102131009D02*
X128214285Y-102131009D01*
X129214285Y-102273866D02*
X129976190Y-102273866D01*
X130357142Y-101654819D02*
X130976189Y-101654819D01*
X130976189Y-101654819D02*
X130642856Y-102035771D01*
X130642856Y-102035771D02*
X130785713Y-102035771D01*
X130785713Y-102035771D02*
X130880951Y-102083390D01*
X130880951Y-102083390D02*
X130928570Y-102131009D01*
X130928570Y-102131009D02*
X130976189Y-102226247D01*
X130976189Y-102226247D02*
X130976189Y-102464342D01*
X130976189Y-102464342D02*
X130928570Y-102559580D01*
X130928570Y-102559580D02*
X130880951Y-102607200D01*
X130880951Y-102607200D02*
X130785713Y-102654819D01*
X130785713Y-102654819D02*
X130499999Y-102654819D01*
X130499999Y-102654819D02*
X130404761Y-102607200D01*
X130404761Y-102607200D02*
X130357142Y-102559580D01*
X133452380Y-102654819D02*
X132880952Y-102654819D01*
X133166666Y-102654819D02*
X133166666Y-101654819D01*
X133166666Y-101654819D02*
X133071428Y-101797676D01*
X133071428Y-101797676D02*
X132976190Y-101892914D01*
X132976190Y-101892914D02*
X132880952Y-101940533D01*
X133833333Y-102607200D02*
X133976190Y-102654819D01*
X133976190Y-102654819D02*
X134214285Y-102654819D01*
X134214285Y-102654819D02*
X134309523Y-102607200D01*
X134309523Y-102607200D02*
X134357142Y-102559580D01*
X134357142Y-102559580D02*
X134404761Y-102464342D01*
X134404761Y-102464342D02*
X134404761Y-102369104D01*
X134404761Y-102369104D02*
X134357142Y-102273866D01*
X134357142Y-102273866D02*
X134309523Y-102226247D01*
X134309523Y-102226247D02*
X134214285Y-102178628D01*
X134214285Y-102178628D02*
X134023809Y-102131009D01*
X134023809Y-102131009D02*
X133928571Y-102083390D01*
X133928571Y-102083390D02*
X133880952Y-102035771D01*
X133880952Y-102035771D02*
X133833333Y-101940533D01*
X133833333Y-101940533D02*
X133833333Y-101845295D01*
X133833333Y-101845295D02*
X133880952Y-101750057D01*
X133880952Y-101750057D02*
X133928571Y-101702438D01*
X133928571Y-101702438D02*
X134023809Y-101654819D01*
X134023809Y-101654819D02*
X134261904Y-101654819D01*
X134261904Y-101654819D02*
X134404761Y-101702438D01*
X136071428Y-102654819D02*
X135595238Y-102654819D01*
X135595238Y-102654819D02*
X135595238Y-101654819D01*
X136404762Y-102654819D02*
X136404762Y-101988152D01*
X136404762Y-101654819D02*
X136357143Y-101702438D01*
X136357143Y-101702438D02*
X136404762Y-101750057D01*
X136404762Y-101750057D02*
X136452381Y-101702438D01*
X136452381Y-101702438D02*
X136404762Y-101654819D01*
X136404762Y-101654819D02*
X136404762Y-101750057D01*
X136880952Y-102654819D02*
X136880952Y-101654819D01*
X136880952Y-101654819D02*
X137261904Y-101654819D01*
X137261904Y-101654819D02*
X137357142Y-101702438D01*
X137357142Y-101702438D02*
X137404761Y-101750057D01*
X137404761Y-101750057D02*
X137452380Y-101845295D01*
X137452380Y-101845295D02*
X137452380Y-101988152D01*
X137452380Y-101988152D02*
X137404761Y-102083390D01*
X137404761Y-102083390D02*
X137357142Y-102131009D01*
X137357142Y-102131009D02*
X137261904Y-102178628D01*
X137261904Y-102178628D02*
X136880952Y-102178628D01*
X138023809Y-102654819D02*
X137928571Y-102607200D01*
X137928571Y-102607200D02*
X137880952Y-102559580D01*
X137880952Y-102559580D02*
X137833333Y-102464342D01*
X137833333Y-102464342D02*
X137833333Y-102178628D01*
X137833333Y-102178628D02*
X137880952Y-102083390D01*
X137880952Y-102083390D02*
X137928571Y-102035771D01*
X137928571Y-102035771D02*
X138023809Y-101988152D01*
X138023809Y-101988152D02*
X138166666Y-101988152D01*
X138166666Y-101988152D02*
X138261904Y-102035771D01*
X138261904Y-102035771D02*
X138309523Y-102083390D01*
X138309523Y-102083390D02*
X138357142Y-102178628D01*
X138357142Y-102178628D02*
X138357142Y-102464342D01*
X138357142Y-102464342D02*
X138309523Y-102559580D01*
X138309523Y-102559580D02*
X138261904Y-102607200D01*
X138261904Y-102607200D02*
X138166666Y-102654819D01*
X138166666Y-102654819D02*
X138023809Y-102654819D01*
X140261904Y-101607200D02*
X139404762Y-102892914D01*
X141309524Y-101750057D02*
X141357143Y-101702438D01*
X141357143Y-101702438D02*
X141452381Y-101654819D01*
X141452381Y-101654819D02*
X141690476Y-101654819D01*
X141690476Y-101654819D02*
X141785714Y-101702438D01*
X141785714Y-101702438D02*
X141833333Y-101750057D01*
X141833333Y-101750057D02*
X141880952Y-101845295D01*
X141880952Y-101845295D02*
X141880952Y-101940533D01*
X141880952Y-101940533D02*
X141833333Y-102083390D01*
X141833333Y-102083390D02*
X141261905Y-102654819D01*
X141261905Y-102654819D02*
X141880952Y-102654819D01*
X142309524Y-102559580D02*
X142357143Y-102607200D01*
X142357143Y-102607200D02*
X142309524Y-102654819D01*
X142309524Y-102654819D02*
X142261905Y-102607200D01*
X142261905Y-102607200D02*
X142309524Y-102559580D01*
X142309524Y-102559580D02*
X142309524Y-102654819D01*
X143214285Y-101988152D02*
X143214285Y-102654819D01*
X142976190Y-101607200D02*
X142738095Y-102321485D01*
X142738095Y-102321485D02*
X143357142Y-102321485D01*
X144357143Y-101654819D02*
X144690476Y-102654819D01*
X144690476Y-102654819D02*
X145023809Y-101654819D01*
X140238095Y-105854819D02*
X140238095Y-106664342D01*
X140238095Y-106664342D02*
X140285714Y-106759580D01*
X140285714Y-106759580D02*
X140333333Y-106807200D01*
X140333333Y-106807200D02*
X140428571Y-106854819D01*
X140428571Y-106854819D02*
X140619047Y-106854819D01*
X140619047Y-106854819D02*
X140714285Y-106807200D01*
X140714285Y-106807200D02*
X140761904Y-106759580D01*
X140761904Y-106759580D02*
X140809523Y-106664342D01*
X140809523Y-106664342D02*
X140809523Y-105854819D01*
X141190476Y-105854819D02*
X141809523Y-105854819D01*
X141809523Y-105854819D02*
X141476190Y-106235771D01*
X141476190Y-106235771D02*
X141619047Y-106235771D01*
X141619047Y-106235771D02*
X141714285Y-106283390D01*
X141714285Y-106283390D02*
X141761904Y-106331009D01*
X141761904Y-106331009D02*
X141809523Y-106426247D01*
X141809523Y-106426247D02*
X141809523Y-106664342D01*
X141809523Y-106664342D02*
X141761904Y-106759580D01*
X141761904Y-106759580D02*
X141714285Y-106807200D01*
X141714285Y-106807200D02*
X141619047Y-106854819D01*
X141619047Y-106854819D02*
X141333333Y-106854819D01*
X141333333Y-106854819D02*
X141238095Y-106807200D01*
X141238095Y-106807200D02*
X141190476Y-106759580D01*
X162666666Y-105354819D02*
X162666666Y-106069104D01*
X162666666Y-106069104D02*
X162619047Y-106211961D01*
X162619047Y-106211961D02*
X162523809Y-106307200D01*
X162523809Y-106307200D02*
X162380952Y-106354819D01*
X162380952Y-106354819D02*
X162285714Y-106354819D01*
X163095238Y-105450057D02*
X163142857Y-105402438D01*
X163142857Y-105402438D02*
X163238095Y-105354819D01*
X163238095Y-105354819D02*
X163476190Y-105354819D01*
X163476190Y-105354819D02*
X163571428Y-105402438D01*
X163571428Y-105402438D02*
X163619047Y-105450057D01*
X163619047Y-105450057D02*
X163666666Y-105545295D01*
X163666666Y-105545295D02*
X163666666Y-105640533D01*
X163666666Y-105640533D02*
X163619047Y-105783390D01*
X163619047Y-105783390D02*
X163047619Y-106354819D01*
X163047619Y-106354819D02*
X163666666Y-106354819D01*
X123238095Y-105854819D02*
X123238095Y-106664342D01*
X123238095Y-106664342D02*
X123285714Y-106759580D01*
X123285714Y-106759580D02*
X123333333Y-106807200D01*
X123333333Y-106807200D02*
X123428571Y-106854819D01*
X123428571Y-106854819D02*
X123619047Y-106854819D01*
X123619047Y-106854819D02*
X123714285Y-106807200D01*
X123714285Y-106807200D02*
X123761904Y-106759580D01*
X123761904Y-106759580D02*
X123809523Y-106664342D01*
X123809523Y-106664342D02*
X123809523Y-105854819D01*
X124238095Y-105950057D02*
X124285714Y-105902438D01*
X124285714Y-105902438D02*
X124380952Y-105854819D01*
X124380952Y-105854819D02*
X124619047Y-105854819D01*
X124619047Y-105854819D02*
X124714285Y-105902438D01*
X124714285Y-105902438D02*
X124761904Y-105950057D01*
X124761904Y-105950057D02*
X124809523Y-106045295D01*
X124809523Y-106045295D02*
X124809523Y-106140533D01*
X124809523Y-106140533D02*
X124761904Y-106283390D01*
X124761904Y-106283390D02*
X124190476Y-106854819D01*
X124190476Y-106854819D02*
X124809523Y-106854819D01*
X103666666Y-104354819D02*
X103666666Y-105069104D01*
X103666666Y-105069104D02*
X103619047Y-105211961D01*
X103619047Y-105211961D02*
X103523809Y-105307200D01*
X103523809Y-105307200D02*
X103380952Y-105354819D01*
X103380952Y-105354819D02*
X103285714Y-105354819D01*
X104666666Y-105354819D02*
X104095238Y-105354819D01*
X104380952Y-105354819D02*
X104380952Y-104354819D01*
X104380952Y-104354819D02*
X104285714Y-104497676D01*
X104285714Y-104497676D02*
X104190476Y-104592914D01*
X104190476Y-104592914D02*
X104095238Y-104640533D01*
X114238095Y-105154819D02*
X114238095Y-105964342D01*
X114238095Y-105964342D02*
X114285714Y-106059580D01*
X114285714Y-106059580D02*
X114333333Y-106107200D01*
X114333333Y-106107200D02*
X114428571Y-106154819D01*
X114428571Y-106154819D02*
X114619047Y-106154819D01*
X114619047Y-106154819D02*
X114714285Y-106107200D01*
X114714285Y-106107200D02*
X114761904Y-106059580D01*
X114761904Y-106059580D02*
X114809523Y-105964342D01*
X114809523Y-105964342D02*
X114809523Y-105154819D01*
X115809523Y-106154819D02*
X115238095Y-106154819D01*
X115523809Y-106154819D02*
X115523809Y-105154819D01*
X115523809Y-105154819D02*
X115428571Y-105297676D01*
X115428571Y-105297676D02*
X115333333Y-105392914D01*
X115333333Y-105392914D02*
X115238095Y-105440533D01*
X130904761Y-106950057D02*
X130809523Y-106902438D01*
X130809523Y-106902438D02*
X130714285Y-106807200D01*
X130714285Y-106807200D02*
X130571428Y-106664342D01*
X130571428Y-106664342D02*
X130476190Y-106616723D01*
X130476190Y-106616723D02*
X130380952Y-106616723D01*
X130428571Y-106854819D02*
X130333333Y-106807200D01*
X130333333Y-106807200D02*
X130238095Y-106711961D01*
X130238095Y-106711961D02*
X130190476Y-106521485D01*
X130190476Y-106521485D02*
X130190476Y-106188152D01*
X130190476Y-106188152D02*
X130238095Y-105997676D01*
X130238095Y-105997676D02*
X130333333Y-105902438D01*
X130333333Y-105902438D02*
X130428571Y-105854819D01*
X130428571Y-105854819D02*
X130619047Y-105854819D01*
X130619047Y-105854819D02*
X130714285Y-105902438D01*
X130714285Y-105902438D02*
X130809523Y-105997676D01*
X130809523Y-105997676D02*
X130857142Y-106188152D01*
X130857142Y-106188152D02*
X130857142Y-106521485D01*
X130857142Y-106521485D02*
X130809523Y-106711961D01*
X130809523Y-106711961D02*
X130714285Y-106807200D01*
X130714285Y-106807200D02*
X130619047Y-106854819D01*
X130619047Y-106854819D02*
X130428571Y-106854819D01*
X131809523Y-106854819D02*
X131238095Y-106854819D01*
X131523809Y-106854819D02*
X131523809Y-105854819D01*
X131523809Y-105854819D02*
X131428571Y-105997676D01*
X131428571Y-105997676D02*
X131333333Y-106092914D01*
X131333333Y-106092914D02*
X131238095Y-106140533D01*
M02*
