<?xml version="1.0" encoding="us-ascii" standalone="no"?><svg xmlns="http://www.w3.org/2000/svg" xmlns:xlink="http://www.w3.org/1999/xlink" contentStyleType="text/css" height="613px" preserveAspectRatio="none" style="width:468px;height:613px;background:#FFFFFF;" version="1.1" viewBox="0 0 468 613" width="468px" zoomAndPan="magnify"><defs/><g><text fill="#000000" font-family="sans-serif" font-size="14" font-weight="bold" lengthAdjust="spacing" textLength="240" x="107.25" y="21.6553">PB-3 Replacement Block Diagram</text><!--entity USB--><g id="elem_USB"><rect fill="#F1F1F1" height="51.7188" rx="2.5" ry="2.5" style="stroke:#181818;stroke-width:0.5;" width="60" x="134" y="43.8594"/><text fill="#000000" font-family="sans-serif" font-size="14" lengthAdjust="spacing" textLength="40" x="144" y="65.5146">USB-C</text><text fill="#000000" font-family="sans-serif" font-size="14" lengthAdjust="spacing" textLength="16" x="144" y="81.374">5V</text></g><!--entity CHG--><g id="elem_CHG"><rect fill="#F1F1F1" height="51.7188" rx="2.5" ry="2.5" style="stroke:#181818;stroke-width:0.5;" width="108" x="153" y="171.8594"/><text fill="#000000" font-family="sans-serif" font-size="14" lengthAdjust="spacing" textLength="56" x="163" y="193.5146">CN3058E</text><text fill="#000000" font-family="sans-serif" font-size="14" lengthAdjust="spacing" textLength="88" x="163" y="209.374">LFP Charger</text></g><!--entity BMS--><g id="elem_BMS"><rect fill="#F1F1F1" height="51.7188" rx="2.5" ry="2.5" style="stroke:#181818;stroke-width:0.5;" width="124" x="145" y="299.8594"/><text fill="#000000" font-family="sans-serif" font-size="14" lengthAdjust="spacing" textLength="104" x="155" y="321.5146">DW01A+FS8205A</text><text fill="#000000" font-family="sans-serif" font-size="14" lengthAdjust="spacing" textLength="24" x="155" y="337.374">BMS</text></g><!--entity CELL--><g id="elem_CELL"><rect fill="#F1F1F1" height="51.7188" rx="2.5" ry="2.5" style="stroke:#181818;stroke-width:0.5;" width="76" x="319" y="427.8594"/><text fill="#000000" font-family="sans-serif" font-size="14" lengthAdjust="spacing" textLength="56" x="329" y="449.5146">LiFePO4</text><text fill="#000000" font-family="sans-serif" font-size="14" lengthAdjust="spacing" textLength="56" x="329" y="465.374">1500mAh</text></g><!--entity BOOST--><g id="elem_BOOST"><rect fill="#F1F1F1" height="51.7188" rx="2.5" ry="2.5" style="stroke:#181818;stroke-width:0.5;" width="100" x="7" y="427.8594"/><text fill="#000000" font-family="sans-serif" font-size="14" lengthAdjust="spacing" textLength="64" x="17" y="449.5146">TPS61023</text><text fill="#000000" font-family="sans-serif" font-size="14" lengthAdjust="spacing" textLength="80" x="17" y="465.374">Boost 4.0V</text></g><!--entity OUT--><g id="elem_OUT"><rect fill="#F1F1F1" height="51.7188" rx="2.5" ry="2.5" style="stroke:#181818;stroke-width:0.5;" width="68" x="23" y="555.8594"/><text fill="#000000" font-family="sans-serif" font-size="14" lengthAdjust="spacing" textLength="32" x="33" y="577.5146">Deck</text><text fill="#000000" font-family="sans-serif" font-size="14" lengthAdjust="spacing" textLength="48" x="33" y="593.374">Output</text></g><!--entity NTC--><g id="elem_NTC"><rect fill="#F1F1F1" height="51.7188" rx="2.5" ry="2.5" style="stroke:#181818;stroke-width:0.5;" width="44" x="229" y="43.8594"/><text fill="#000000" font-family="sans-serif" font-size="14" lengthAdjust="spacing" textLength="24" x="239" y="65.5146">NTC</text><text fill="#000000" font-family="sans-serif" font-size="14" lengthAdjust="spacing" textLength="24" x="239" y="81.374">10k</text></g><g id="elem_GMN15"><path d="M296.5,185.3594 L296.5,193.8594 L261.09,197.8594 L296.5,201.8594 L296.5,210.0859 A0,0 0 0 0 296.5,210.0859 L461.5,210.0859 A0,0 0 0 0 461.5,210.0859 L461.5,195.3594 L451.5,185.3594 L296.5,185.3594 A0,0 0 0 0 296.5,185.3594 " fill="#FEFFDD" style="stroke:#181818;stroke-width:0.5;"/><path d="M451.5,185.3594 L451.5,195.3594 L461.5,195.3594 L451.5,185.3594 " fill="#FEFFDD" style="stroke:#181818;stroke-width:0.5;"/><text fill="#000000" font-family="sans-serif" font-size="13" lengthAdjust="spacing" textLength="144" x="302.5" y="201.1821">Rprog=2k &#65533;&#65533;&#65533; 500mA</text></g><g id="elem_GMN18"><path d="M142.5,441.3594 L142.5,449.8594 L107.27,453.8594 L142.5,457.8594 L142.5,466.0859 A0,0 0 0 0 142.5,466.0859 L283.5,466.0859 A0,0 0 0 0 283.5,466.0859 L283.5,451.3594 L273.5,441.3594 L142.5,441.3594 A0,0 0 0 0 142.5,441.3594 " fill="#FEFFDD" style="stroke:#181818;stroke-width:0.5;"/><path d="M273.5,441.3594 L273.5,451.3594 L283.5,451.3594 L273.5,441.3594 " fill="#FEFFDD" style="stroke:#181818;stroke-width:0.5;"/><text fill="#000000" font-family="sans-serif" font-size="13" lengthAdjust="spacing" textLength="120" x="148.5" y="457.1821">R2=560k R3=100k</text></g><!--link USB to CHG--><g id="link_USB_CHG"><path d="M172.6,96.0594 C180.1,118.0294 188.9808,144.0714 196.4808,166.0314 " fill="none" id="USB-to-CHG" style="stroke:#181818;stroke-width:1.0;"/><polygon fill="#181818" points="198.42,171.7094,199.2965,161.8996,196.804,166.9777,191.7259,164.4852,198.42,171.7094" style="stroke:#181818;stroke-width:1.0;"/><text fill="#000000" font-family="sans-serif" font-size="13" lengthAdjust="spacing" textLength="16" x="190" y="137.6821">5V</text></g><!--link CHG to BMS--><g id="link_CHG_BMS"><path d="M207,224.0594 C207,246.0294 207,271.7494 207,293.7094 " fill="none" id="CHG-to-BMS" style="stroke:#181818;stroke-width:1.0;"/><polygon fill="#181818" points="207,299.7094,211,290.7094,207,294.7094,203,290.7094,207,299.7094" style="stroke:#181818;stroke-width:1.0;"/><text fill="#000000" font-family="sans-serif" font-size="13" lengthAdjust="spacing" textLength="40" x="208" y="265.6821">CC/CV</text></g><!--link BMS to CELL--><g id="link_BMS_CELL"><path d="M241.5853,355.9172 C267.7553,377.8872 296.3153,401.8908 322.4653,423.8508 " fill="none" id="BMS-CELL" style="stroke:#181818;stroke-width:1.0;"/><polygon fill="#181818" points="236.99,352.0594,241.3111,360.9097,240.8194,355.2742,246.4549,354.7826,236.99,352.0594" style="stroke:#181818;stroke-width:1.0;"/><polygon fill="#181818" points="327.06,427.7094,322.7402,418.8584,323.231,424.4939,317.5955,424.9847,327.06,427.7094" style="stroke:#181818;stroke-width:1.0;"/><text fill="#000000" font-family="sans-serif" font-size="13" lengthAdjust="spacing" textLength="56" x="291" y="393.6821">protect</text></g><!--link BMS to BOOST--><g id="link_BMS_BOOST"><path d="M177.01,352.0594 C150.84,374.0294 117.6847,401.8908 91.5347,423.8508 " fill="none" id="BMS-to-BOOST" style="stroke:#181818;stroke-width:1.0;"/><polygon fill="#181818" points="86.94,427.7094,96.4045,424.9847,90.769,424.4939,91.2598,418.8584,86.94,427.7094" style="stroke:#181818;stroke-width:1.0;"/><text fill="#000000" font-family="sans-serif" font-size="13" lengthAdjust="spacing" textLength="64" x="142" y="393.6821">2.5-3.6V</text></g><!--link BOOST to OUT--><g id="link_BOOST_OUT"><path d="M57,480.0594 C57,502.0294 57,527.7494 57,549.7094 " fill="none" id="BOOST-to-OUT" style="stroke:#181818;stroke-width:1.0;"/><polygon fill="#181818" points="57,555.7094,61,546.7094,57,550.7094,53,546.7094,57,555.7094" style="stroke:#181818;stroke-width:1.0;"/><text fill="#000000" font-family="sans-serif" font-size="13" lengthAdjust="spacing" textLength="32" x="58" y="521.6821">4.0V</text></g><!--link NTC to CHG--><g id="link_NTC_CHG"><path d="M242.2,96.0594 C234.53,118.0294 225.4284,144.0849 217.7584,166.0449 " fill="none" id="NTC-to-CHG" style="stroke:#181818;stroke-width:1.0;"/><polygon fill="#181818" points="215.78,171.7094,222.5239,164.5317,217.4287,166.989,214.9713,161.8938,215.78,171.7094" style="stroke:#181818;stroke-width:1.0;"/><text fill="#000000" font-family="sans-serif" font-size="13" lengthAdjust="spacing" textLength="32" x="232" y="137.6821">temp</text></g><!--SRC=[NP3HJeCm58Rl-nGdkpNC0cDPZ3CPtQONE0XiyuQRYfMHGajO5-F36H_9L_3GgM4c99p-_yT__c8gKmj8GiU7LBGrBqGZb86mreM4PSNBZZVaA2lLSfpWcHUoxFH9lJ1TwmxU3fKH0x_GJQiL9cJc7NCxKHYkobeGyZV2Q9U53ijLi1y1FmAUXYRR-3IOhN8LhHDW1zwLehCSUxWVSiidwYwkrjdCey4YL-5ZPYby3wceMeiadkJA3IXj5eTpqYgAXj0soQOkzNnCqVfeO3AcvsfX76VRYwMYaBcAJwOz6Kl4kmj_iyLxkLHQ3m-4uEt0SUxwzd03mPxqGozWKHGOksPxqi-tbi9cgBQTDXXgTSlsFL3tne7ZZwVuWHLw2mkWqJSck6-moeYc9KHX47HLUJ2WNt-S5EFBkIVXw_FZ_83zEV_WtwMfDm-cL4BgprrAvJS0]--></g></svg>