<?xml version="1.0" encoding="us-ascii" standalone="no"?><svg xmlns="http://www.w3.org/2000/svg" xmlns:xlink="http://www.w3.org/1999/xlink" contentStyleType="text/css" height="475px" preserveAspectRatio="none" style="width:1679px;height:475px;" version="1.1" viewBox="0 0 1679 475" width="1679px" zoomAndPan="magnify"><defs><linearGradient id="gjtc4uwn6567k0" x1="0%" x2="100%" y1="0%" y2="100%"><stop offset="0%" stop-color="#FFFFFF"/><stop offset="100%" stop-color="#AAAAFF"/></linearGradient></defs><g><rect fill="url(#gjtc4uwn6567k0)" height="475" style="stroke:none;stroke-width:1.0;" width="1679" x="0" y="0"/><rect fill="url(#gjtc4uwn6567k0)" height="99.2969" rx="5" ry="5" style="stroke:url(#gjtc4uwn6567k0);stroke-width:1.5;" width="148" x="10" y="124.3516"/><text fill="#000000" font-family="sans-serif" font-size="14" font-weight="bold" lengthAdjust="spacing" textLength="32" x="15" y="138.0068">name</text><text fill="#000000" font-family="sans-serif" font-size="14" lengthAdjust="spacing" textLength="40" x="113" y="138.0068">Build</text><line style="stroke:#000000;stroke-width:1.0;" x1="108" x2="108" y1="124.3516" y2="144.2109"/><line style="stroke:#000000;stroke-width:1.0;" x1="10" x2="158" y1="144.2109" y2="144.2109"/><text fill="#000000" font-family="sans-serif" font-size="14" font-weight="bold" lengthAdjust="spacing" textLength="16" x="15" y="157.8662">on</text><text fill="#000000" font-family="sans-serif" font-size="14" lengthAdjust="spacing" textLength="24" x="113" y="157.8662">&#160;&#160;&#160;</text><line style="stroke:#000000;stroke-width:1.0;" x1="108" x2="108" y1="144.2109" y2="164.0703"/><line style="stroke:#000000;stroke-width:1.0;" x1="10" x2="158" y1="164.0703" y2="164.0703"/><text fill="#000000" font-family="sans-serif" font-size="14" font-weight="bold" lengthAdjust="spacing" textLength="88" x="15" y="177.7256">permissions</text><text fill="#000000" font-family="sans-serif" font-size="14" lengthAdjust="spacing" textLength="24" x="113" y="177.7256">&#160;&#160;&#160;</text><line style="stroke:#000000;stroke-width:1.0;" x1="108" x2="108" y1="164.0703" y2="183.9297"/><line style="stroke:#000000;stroke-width:1.0;" x1="10" x2="158" y1="183.9297" y2="183.9297"/><text fill="#000000" font-family="sans-serif" font-size="14" font-weight="bold" lengthAdjust="spacing" textLength="24" x="15" y="197.585">env</text><text fill="#000000" font-family="sans-serif" font-size="14" lengthAdjust="spacing" textLength="24" x="113" y="197.585">&#160;&#160;&#160;</text><line style="stroke:#000000;stroke-width:1.0;" x1="108" x2="108" y1="183.9297" y2="203.7891"/><line style="stroke:#000000;stroke-width:1.0;" x1="10" x2="158" y1="203.7891" y2="203.7891"/><text fill="#000000" font-family="sans-serif" font-size="14" font-weight="bold" lengthAdjust="spacing" textLength="32" x="15" y="217.4443">jobs</text><text fill="#000000" font-family="sans-serif" font-size="14" lengthAdjust="spacing" textLength="24" x="113" y="217.4443">&#160;&#160;&#160;</text><line style="stroke:#000000;stroke-width:1.0;" x1="108" x2="108" y1="203.7891" y2="223.6484"/><rect fill="none" height="99.2969" rx="5" ry="5" style="stroke:#000000;stroke-width:1.5;" width="148" x="10" y="124.3516"/><rect fill="url(#gjtc4uwn6567k0)" height="39.7188" rx="5" ry="5" style="stroke:url(#gjtc4uwn6567k0);stroke-width:1.5;" width="188" x="259" y="52"/><text fill="#000000" font-family="sans-serif" font-size="14" font-weight="bold" lengthAdjust="spacing" textLength="32" x="264" y="65.6553">push</text><text fill="#000000" font-family="sans-serif" font-size="14" lengthAdjust="spacing" textLength="24" x="410" y="65.6553">&#160;&#160;&#160;</text><line style="stroke:#000000;stroke-width:1.0;" x1="405" x2="405" y1="52" y2="71.8594"/><line style="stroke:#000000;stroke-width:1.0;" x1="259" x2="447" y1="71.8594" y2="71.8594"/><text fill="#000000" font-family="sans-serif" font-size="14" font-weight="bold" lengthAdjust="spacing" textLength="136" x="264" y="85.5146">workflow_dispatch</text><text fill="#000000" font-family="sans-serif" font-size="14" lengthAdjust="spacing" textLength="32" x="410" y="85.5146">null</text><line style="stroke:#000000;stroke-width:1.0;" x1="405" x2="405" y1="71.8594" y2="91.7188"/><rect fill="none" height="39.7188" rx="5" ry="5" style="stroke:#000000;stroke-width:1.5;" width="188" x="259" y="52"/><rect fill="url(#gjtc4uwn6567k0)" height="39.7188" rx="5" ry="5" style="stroke:url(#gjtc4uwn6567k0);stroke-width:1.5;" width="108" x="600" y="42"/><text fill="#000000" font-family="sans-serif" font-size="14" font-weight="bold" lengthAdjust="spacing" textLength="64" x="605" y="55.6553">branches</text><text fill="#000000" font-family="sans-serif" font-size="14" lengthAdjust="spacing" textLength="24" x="679" y="55.6553">&#160;&#160;&#160;</text><line style="stroke:#000000;stroke-width:1.0;" x1="674" x2="674" y1="42" y2="61.8594"/><line style="stroke:#000000;stroke-width:1.0;" x1="600" x2="708" y1="61.8594" y2="61.8594"/><text fill="#000000" font-family="sans-serif" font-size="14" font-weight="bold" lengthAdjust="spacing" textLength="40" x="605" y="75.5146">paths</text><text fill="#000000" font-family="sans-serif" font-size="14" lengthAdjust="spacing" textLength="24" x="679" y="75.5146">&#160;&#160;&#160;</text><line style="stroke:#000000;stroke-width:1.0;" x1="674" x2="674" y1="61.8594" y2="81.7188"/><rect fill="none" height="39.7188" rx="5" ry="5" style="stroke:#000000;stroke-width:1.5;" width="108" x="600" y="42"/><rect fill="url(#gjtc4uwn6567k0)" height="19.8594" rx="5" ry="5" style="stroke:url(#gjtc4uwn6567k0);stroke-width:1.5;" width="42" x="962" y="10"/><text fill="#000000" font-family="sans-serif" font-size="14" lengthAdjust="spacing" textLength="32" x="967" y="23.6553">main</text><rect fill="none" height="19.8594" rx="5" ry="5" style="stroke:#000000;stroke-width:1.5;" width="42" x="962" y="10"/><rect fill="url(#gjtc4uwn6567k0)" height="119.1563" rx="5" ry="5" style="stroke:url(#gjtc4uwn6567k0);stroke-width:1.5;" width="226" x="870" y="48.4219"/><text fill="#000000" font-family="sans-serif" font-size="14" lengthAdjust="spacing" textLength="88" x="875" y="62.0771">'**/*.scad'</text><line style="stroke:#000000;stroke-width:1.0;" x1="870" x2="1096" y1="68.2813" y2="68.2813"/><text fill="#000000" font-family="sans-serif" font-size="14" lengthAdjust="spacing" textLength="120" x="875" y="81.9365">'**/*.plantuml'</text><line style="stroke:#000000;stroke-width:1.0;" x1="870" x2="1096" y1="88.1406" y2="88.1406"/><text fill="#000000" font-family="sans-serif" font-size="14" lengthAdjust="spacing" textLength="88" x="875" y="101.7959">'**/*.puml'</text><line style="stroke:#000000;stroke-width:1.0;" x1="870" x2="1096" y1="108" y2="108"/><text fill="#000000" font-family="sans-serif" font-size="14" lengthAdjust="spacing" textLength="120" x="875" y="121.6553">'**/*.asciidoc'</text><line style="stroke:#000000;stroke-width:1.0;" x1="870" x2="1096" y1="127.8594" y2="127.8594"/><text fill="#000000" font-family="sans-serif" font-size="14" lengthAdjust="spacing" textLength="88" x="875" y="141.5146">'**/*.adoc'</text><line style="stroke:#000000;stroke-width:1.0;" x1="870" x2="1096" y1="147.7188" y2="147.7188"/><text fill="#000000" font-family="sans-serif" font-size="14" lengthAdjust="spacing" textLength="216" x="875" y="161.374">.github/workflows/build.yml</text><rect fill="none" height="119.1563" rx="5" ry="5" style="stroke:#000000;stroke-width:1.5;" width="226" x="870" y="48.4219"/><rect fill="url(#gjtc4uwn6567k0)" height="59.5781" rx="5" ry="5" style="stroke:url(#gjtc4uwn6567k0);stroke-width:1.5;" width="124" x="291" y="110"/><text fill="#000000" font-family="sans-serif" font-size="14" font-weight="bold" lengthAdjust="spacing" textLength="64" x="296" y="123.6553">contents</text><text fill="#000000" font-family="sans-serif" font-size="14" lengthAdjust="spacing" textLength="40" x="370" y="123.6553">write</text><line style="stroke:#000000;stroke-width:1.0;" x1="365" x2="365" y1="110" y2="129.8594"/><line style="stroke:#000000;stroke-width:1.0;" x1="291" x2="415" y1="129.8594" y2="129.8594"/><text fill="#000000" font-family="sans-serif" font-size="14" font-weight="bold" lengthAdjust="spacing" textLength="40" x="296" y="143.5146">pages</text><text fill="#000000" font-family="sans-serif" font-size="14" lengthAdjust="spacing" textLength="40" x="370" y="143.5146">write</text><line style="stroke:#000000;stroke-width:1.0;" x1="365" x2="365" y1="129.8594" y2="149.7188"/><line style="stroke:#000000;stroke-width:1.0;" x1="291" x2="415" y1="149.7188" y2="149.7188"/><text fill="#000000" font-family="sans-serif" font-size="14" font-weight="bold" lengthAdjust="spacing" textLength="64" x="296" y="163.374">id-token</text><text fill="#000000" font-family="sans-serif" font-size="14" lengthAdjust="spacing" textLength="40" x="370" y="163.374">write</text><line style="stroke:#000000;stroke-width:1.0;" x1="365" x2="365" y1="149.7188" y2="169.5781"/><rect fill="none" height="59.5781" rx="5" ry="5" style="stroke:#000000;stroke-width:1.5;" width="124" x="291" y="110"/><rect fill="url(#gjtc4uwn6567k0)" height="79.4375" rx="5" ry="5" style="stroke:url(#gjtc4uwn6567k0);stroke-width:1.5;" width="316" x="195" y="188.2813"/><text fill="#000000" font-family="sans-serif" font-size="14" font-weight="bold" lengthAdjust="spacing" textLength="40" x="200" y="201.9365">DEBUG</text><text fill="#000000" font-family="sans-serif" font-size="14" lengthAdjust="spacing" textLength="32" x="274" y="201.9365">true</text><line style="stroke:#000000;stroke-width:1.0;" x1="269" x2="269" y1="188.2813" y2="208.1406"/><line style="stroke:#000000;stroke-width:1.0;" x1="195" x2="511" y1="208.1406" y2="208.1406"/><text fill="#000000" font-family="sans-serif" font-size="14" font-weight="bold" lengthAdjust="spacing" textLength="64" x="200" y="221.7959">IMG_SCAD</text><text fill="#000000" font-family="sans-serif" font-size="14" lengthAdjust="spacing" textLength="232" x="274" y="221.7959">ghcr.io/donnels/openscad:main</text><line style="stroke:#000000;stroke-width:1.0;" x1="269" x2="269" y1="208.1406" y2="228"/><line style="stroke:#000000;stroke-width:1.0;" x1="195" x2="511" y1="228" y2="228"/><text fill="#000000" font-family="sans-serif" font-size="14" font-weight="bold" lengthAdjust="spacing" textLength="64" x="200" y="241.6553">IMG_PUML</text><text fill="#000000" font-family="sans-serif" font-size="14" lengthAdjust="spacing" textLength="232" x="274" y="241.6553">ghcr.io/donnels/plantuml:main</text><line style="stroke:#000000;stroke-width:1.0;" x1="269" x2="269" y1="228" y2="247.8594"/><line style="stroke:#000000;stroke-width:1.0;" x1="195" x2="511" y1="247.8594" y2="247.8594"/><text fill="#000000" font-family="sans-serif" font-size="14" font-weight="bold" lengthAdjust="spacing" textLength="64" x="200" y="261.5146">IMG_ADOC</text><text fill="#000000" font-family="sans-serif" font-size="14" lengthAdjust="spacing" textLength="232" x="274" y="261.5146">ghcr.io/donnels/asciidoc:main</text><line style="stroke:#000000;stroke-width:1.0;" x1="269" x2="269" y1="247.8594" y2="267.7188"/><rect fill="none" height="79.4375" rx="5" ry="5" style="stroke:#000000;stroke-width:1.5;" width="316" x="195" y="188.2813"/><rect fill="url(#gjtc4uwn6567k0)" height="39.7188" rx="5" ry="5" style="stroke:url(#gjtc4uwn6567k0);stroke-width:1.5;" width="92" x="307" y="286"/><text fill="#000000" font-family="sans-serif" font-size="14" font-weight="bold" lengthAdjust="spacing" textLength="48" x="312" y="299.6553">render</text><text fill="#000000" font-family="sans-serif" font-size="14" lengthAdjust="spacing" textLength="24" x="370" y="299.6553">&#160;&#160;&#160;</text><line style="stroke:#000000;stroke-width:1.0;" x1="365" x2="365" y1="286" y2="305.8594"/><line style="stroke:#000000;stroke-width:1.0;" x1="307" x2="399" y1="305.8594" y2="305.8594"/><text fill="#000000" font-family="sans-serif" font-size="14" font-weight="bold" lengthAdjust="spacing" textLength="48" x="312" y="319.5146">deploy</text><text fill="#000000" font-family="sans-serif" font-size="14" lengthAdjust="spacing" textLength="24" x="370" y="319.5146">&#160;&#160;&#160;</text><line style="stroke:#000000;stroke-width:1.0;" x1="365" x2="365" y1="305.8594" y2="325.7188"/><rect fill="none" height="39.7188" rx="5" ry="5" style="stroke:#000000;stroke-width:1.5;" width="92" x="307" y="286"/><rect fill="url(#gjtc4uwn6567k0)" height="39.7188" rx="5" ry="5" style="stroke:url(#gjtc4uwn6567k0);stroke-width:1.5;" width="180" x="564" y="234"/><text fill="#000000" font-family="sans-serif" font-size="14" font-weight="bold" lengthAdjust="spacing" textLength="56" x="569" y="247.6553">runs-on</text><text fill="#000000" font-family="sans-serif" font-size="14" lengthAdjust="spacing" textLength="104" x="635" y="247.6553">ubuntu-latest</text><line style="stroke:#000000;stroke-width:1.0;" x1="630" x2="630" y1="234" y2="253.8594"/><line style="stroke:#000000;stroke-width:1.0;" x1="564" x2="744" y1="253.8594" y2="253.8594"/><text fill="#000000" font-family="sans-serif" font-size="14" font-weight="bold" lengthAdjust="spacing" textLength="40" x="569" y="267.5146">steps</text><text fill="#000000" font-family="sans-serif" font-size="14" lengthAdjust="spacing" textLength="24" x="635" y="267.5146">&#160;&#160;&#160;</text><line style="stroke:#000000;stroke-width:1.0;" x1="630" x2="630" y1="253.8594" y2="273.7188"/><rect fill="none" height="39.7188" rx="5" ry="5" style="stroke:#000000;stroke-width:1.5;" width="180" x="564" y="234"/><rect fill="url(#gjtc4uwn6567k0)" height="119.1563" rx="5" ry="5" style="stroke:url(#gjtc4uwn6567k0);stroke-width:1.5;" width="34" x="966" y="190.4219"/><text fill="#000000" font-family="sans-serif" font-size="14" lengthAdjust="spacing" textLength="24" x="971" y="204.0771">&#160;&#160;&#160;</text><line style="stroke:#000000;stroke-width:1.0;" x1="966" x2="1000" y1="210.2813" y2="210.2813"/><text fill="#000000" font-family="sans-serif" font-size="14" lengthAdjust="spacing" textLength="24" x="971" y="223.9365">&#160;&#160;&#160;</text><line style="stroke:#000000;stroke-width:1.0;" x1="966" x2="1000" y1="230.1406" y2="230.1406"/><text fill="#000000" font-family="sans-serif" font-size="14" lengthAdjust="spacing" textLength="24" x="971" y="243.7959">&#160;&#160;&#160;</text><line style="stroke:#000000;stroke-width:1.0;" x1="966" x2="1000" y1="250" y2="250"/><text fill="#000000" font-family="sans-serif" font-size="14" lengthAdjust="spacing" textLength="24" x="971" y="263.6553">&#160;&#160;&#160;</text><line style="stroke:#000000;stroke-width:1.0;" x1="966" x2="1000" y1="269.8594" y2="269.8594"/><text fill="#000000" font-family="sans-serif" font-size="14" lengthAdjust="spacing" textLength="24" x="971" y="283.5146">&#160;&#160;&#160;</text><line style="stroke:#000000;stroke-width:1.0;" x1="966" x2="1000" y1="289.7188" y2="289.7188"/><text fill="#000000" font-family="sans-serif" font-size="14" lengthAdjust="spacing" textLength="24" x="971" y="303.374">&#160;&#160;&#160;</text><rect fill="none" height="119.1563" rx="5" ry="5" style="stroke:#000000;stroke-width:1.5;" width="34" x="966" y="190.4219"/><rect fill="url(#gjtc4uwn6567k0)" height="39.7188" rx="5" ry="5" style="stroke:url(#gjtc4uwn6567k0);stroke-width:1.5;" width="204" x="1258" y="116"/><text fill="#000000" font-family="sans-serif" font-size="14" font-weight="bold" lengthAdjust="spacing" textLength="32" x="1263" y="129.6553">uses</text><text fill="#000000" font-family="sans-serif" font-size="14" lengthAdjust="spacing" textLength="152" x="1305" y="129.6553">actions/checkout@v4</text><line style="stroke:#000000;stroke-width:1.0;" x1="1300" x2="1300" y1="116" y2="135.8594"/><line style="stroke:#000000;stroke-width:1.0;" x1="1258" x2="1462" y1="135.8594" y2="135.8594"/><text fill="#000000" font-family="sans-serif" font-size="14" font-weight="bold" lengthAdjust="spacing" textLength="32" x="1263" y="149.5146">with</text><text fill="#000000" font-family="sans-serif" font-size="14" lengthAdjust="spacing" textLength="24" x="1305" y="149.5146">&#160;&#160;&#160;</text><line style="stroke:#000000;stroke-width:1.0;" x1="1300" x2="1300" y1="135.8594" y2="155.7188"/><rect fill="none" height="39.7188" rx="5" ry="5" style="stroke:#000000;stroke-width:1.5;" width="204" x="1258" y="116"/><rect fill="url(#gjtc4uwn6567k0)" height="19.8594" rx="5" ry="5" style="stroke:url(#gjtc4uwn6567k0);stroke-width:1.5;" width="116" x="1551" y="136"/><text fill="#000000" font-family="sans-serif" font-size="14" font-weight="bold" lengthAdjust="spacing" textLength="88" x="1556" y="149.6553">fetch-depth</text><text fill="#000000" font-family="sans-serif" font-size="14" lengthAdjust="spacing" textLength="8" x="1654" y="149.6553">0</text><line style="stroke:#000000;stroke-width:1.0;" x1="1649" x2="1649" y1="136" y2="155.8594"/><rect fill="none" height="19.8594" rx="5" ry="5" style="stroke:#000000;stroke-width:1.5;" width="116" x="1551" y="136"/><rect fill="url(#gjtc4uwn6567k0)" height="19.8594" rx="5" ry="5" style="stroke:url(#gjtc4uwn6567k0);stroke-width:1.5;" width="172" x="1274" y="174"/><text fill="#000000" font-family="sans-serif" font-size="14" font-weight="bold" lengthAdjust="spacing" textLength="32" x="1279" y="187.6553">name</text><text fill="#000000" font-family="sans-serif" font-size="14" lengthAdjust="spacing" textLength="120" x="1321" y="187.6553">Render OpenSCAD</text><line style="stroke:#000000;stroke-width:1.0;" x1="1316" x2="1316" y1="174" y2="193.8594"/><rect fill="none" height="19.8594" rx="5" ry="5" style="stroke:#000000;stroke-width:1.5;" width="172" x="1274" y="174"/><rect fill="url(#gjtc4uwn6567k0)" height="19.8594" rx="5" ry="5" style="stroke:url(#gjtc4uwn6567k0);stroke-width:1.5;" width="172" x="1274" y="212"/><text fill="#000000" font-family="sans-serif" font-size="14" font-weight="bold" lengthAdjust="spacing" textLength="32" x="1279" y="225.6553">name</text><text fill="#000000" font-family="sans-serif" font-size="14" lengthAdjust="spacing" textLength="120" x="1321" y="225.6553">Render PlantUML</text><line style="stroke:#000000;stroke-width:1.0;" x1="1316" x2="1316" y1="212" y2="231.8594"/><rect fill="none" height="19.8594" rx="5" ry="5" style="stroke:#000000;stroke-width:1.5;" width="172" x="1274" y="212"/><rect fill="url(#gjtc4uwn6567k0)" height="19.8594" rx="5" ry="5" style="stroke:url(#gjtc4uwn6567k0);stroke-width:1.5;" width="164" x="1278" y="250"/><text fill="#000000" font-family="sans-serif" font-size="14" font-weight="bold" lengthAdjust="spacing" textLength="32" x="1283" y="263.6553">name</text><text fill="#000000" font-family="sans-serif" font-size="14" lengthAdjust="spacing" textLength="112" x="1325" y="263.6553">Build AsciiDoc</text><line style="stroke:#000000;stroke-width:1.0;" x1="1320" x2="1320" y1="250" y2="269.8594"/><rect fill="none" height="19.8594" rx="5" ry="5" style="stroke:#000000;stroke-width:1.5;" width="164" x="1278" y="250"/><rect fill="url(#gjtc4uwn6567k0)" height="19.8594" rx="5" ry="5" style="stroke:url(#gjtc4uwn6567k0);stroke-width:1.5;" width="196" x="1262" y="288"/><text fill="#000000" font-family="sans-serif" font-size="14" font-weight="bold" lengthAdjust="spacing" textLength="32" x="1267" y="301.6553">name</text><text fill="#000000" font-family="sans-serif" font-size="14" lengthAdjust="spacing" textLength="144" x="1309" y="301.6553">Commit all outputs</text><line style="stroke:#000000;stroke-width:1.0;" x1="1304" x2="1304" y1="288" y2="307.8594"/><rect fill="none" height="19.8594" rx="5" ry="5" style="stroke:#000000;stroke-width:1.5;" width="196" x="1262" y="288"/><rect fill="url(#gjtc4uwn6567k0)" height="59.5781" rx="5" ry="5" style="stroke:url(#gjtc4uwn6567k0);stroke-width:1.5;" width="308" x="1206" y="326"/><text fill="#000000" font-family="sans-serif" font-size="14" font-weight="bold" lengthAdjust="spacing" textLength="32" x="1211" y="339.6553">name</text><text fill="#000000" font-family="sans-serif" font-size="14" lengthAdjust="spacing" textLength="168" x="1253" y="339.6553">Upload Pages artifact</text><line style="stroke:#000000;stroke-width:1.0;" x1="1248" x2="1248" y1="326" y2="345.8594"/><line style="stroke:#000000;stroke-width:1.0;" x1="1206" x2="1514" y1="345.8594" y2="345.8594"/><text fill="#000000" font-family="sans-serif" font-size="14" font-weight="bold" lengthAdjust="spacing" textLength="32" x="1211" y="359.5146">uses</text><text fill="#000000" font-family="sans-serif" font-size="14" lengthAdjust="spacing" textLength="256" x="1253" y="359.5146">actions/upload-pages-artifact@v3</text><line style="stroke:#000000;stroke-width:1.0;" x1="1248" x2="1248" y1="345.8594" y2="365.7188"/><line style="stroke:#000000;stroke-width:1.0;" x1="1206" x2="1514" y1="365.7188" y2="365.7188"/><text fill="#000000" font-family="sans-serif" font-size="14" font-weight="bold" lengthAdjust="spacing" textLength="32" x="1211" y="379.374">with</text><text fill="#000000" font-family="sans-serif" font-size="14" lengthAdjust="spacing" textLength="24" x="1253" y="379.374">&#160;&#160;&#160;</text><line style="stroke:#000000;stroke-width:1.0;" x1="1248" x2="1248" y1="365.7188" y2="385.5781"/><rect fill="none" height="59.5781" rx="5" ry="5" style="stroke:#000000;stroke-width:1.5;" width="308" x="1206" y="326"/><rect fill="url(#gjtc4uwn6567k0)" height="19.8594" rx="5" ry="5" style="stroke:url(#gjtc4uwn6567k0);stroke-width:1.5;" width="84" x="1567" y="366"/><text fill="#000000" font-family="sans-serif" font-size="14" font-weight="bold" lengthAdjust="spacing" textLength="32" x="1572" y="379.6553">path</text><text fill="#000000" font-family="sans-serif" font-size="14" lengthAdjust="spacing" textLength="32" x="1614" y="379.6553">docs</text><line style="stroke:#000000;stroke-width:1.0;" x1="1609" x2="1609" y1="366" y2="385.8594"/><rect fill="none" height="19.8594" rx="5" ry="5" style="stroke:#000000;stroke-width:1.5;" width="84" x="1567" y="366"/><rect fill="url(#gjtc4uwn6567k0)" height="79.4375" rx="5" ry="5" style="stroke:url(#gjtc4uwn6567k0);stroke-width:1.5;" width="212" x="548" y="307.2813"/><text fill="#000000" font-family="sans-serif" font-size="14" font-weight="bold" lengthAdjust="spacing" textLength="56" x="553" y="320.9365">runs-on</text><text fill="#000000" font-family="sans-serif" font-size="14" lengthAdjust="spacing" textLength="104" x="651" y="320.9365">ubuntu-latest</text><line style="stroke:#000000;stroke-width:1.0;" x1="646" x2="646" y1="307.2813" y2="327.1406"/><line style="stroke:#000000;stroke-width:1.0;" x1="548" x2="760" y1="327.1406" y2="327.1406"/><text fill="#000000" font-family="sans-serif" font-size="14" font-weight="bold" lengthAdjust="spacing" textLength="40" x="553" y="340.7959">needs</text><text fill="#000000" font-family="sans-serif" font-size="14" lengthAdjust="spacing" textLength="48" x="651" y="340.7959">render</text><line style="stroke:#000000;stroke-width:1.0;" x1="646" x2="646" y1="327.1406" y2="347"/><line style="stroke:#000000;stroke-width:1.0;" x1="548" x2="760" y1="347" y2="347"/><text fill="#000000" font-family="sans-serif" font-size="14" font-weight="bold" lengthAdjust="spacing" textLength="88" x="553" y="360.6553">environment</text><text fill="#000000" font-family="sans-serif" font-size="14" lengthAdjust="spacing" textLength="24" x="651" y="360.6553">&#160;&#160;&#160;</text><line style="stroke:#000000;stroke-width:1.0;" x1="646" x2="646" y1="347" y2="366.8594"/><line style="stroke:#000000;stroke-width:1.0;" x1="548" x2="760" y1="366.8594" y2="366.8594"/><text fill="#000000" font-family="sans-serif" font-size="14" font-weight="bold" lengthAdjust="spacing" textLength="40" x="553" y="380.5146">steps</text><text fill="#000000" font-family="sans-serif" font-size="14" lengthAdjust="spacing" textLength="24" x="651" y="380.5146">&#160;&#160;&#160;</text><line style="stroke:#000000;stroke-width:1.0;" x1="646" x2="646" y1="366.8594" y2="386.7188"/><rect fill="none" height="79.4375" rx="5" ry="5" style="stroke:#000000;stroke-width:1.5;" width="212" x="548" y="307.2813"/><rect fill="url(#gjtc4uwn6567k0)" height="39.7188" rx="5" ry="5" style="stroke:url(#gjtc4uwn6567k0);stroke-width:1.5;" width="372" x="797" y="337"/><text fill="#000000" font-family="sans-serif" font-size="14" font-weight="bold" lengthAdjust="spacing" textLength="32" x="802" y="350.6553">name</text><text fill="#000000" font-family="sans-serif" font-size="14" lengthAdjust="spacing" textLength="96" x="844" y="350.6553">github-pages</text><line style="stroke:#000000;stroke-width:1.0;" x1="839" x2="839" y1="337" y2="356.8594"/><line style="stroke:#000000;stroke-width:1.0;" x1="797" x2="1169" y1="356.8594" y2="356.8594"/><text fill="#000000" font-family="sans-serif" font-size="14" font-weight="bold" lengthAdjust="spacing" textLength="24" x="802" y="370.5146">url</text><text fill="#000000" font-family="sans-serif" font-size="14" lengthAdjust="spacing" textLength="320" x="844" y="370.5146">${{ steps.deployment.outputs.page_url }}</text><line style="stroke:#000000;stroke-width:1.0;" x1="839" x2="839" y1="356.8594" y2="376.7188"/><rect fill="none" height="39.7188" rx="5" ry="5" style="stroke:#000000;stroke-width:1.5;" width="372" x="797" y="337"/><rect fill="url(#gjtc4uwn6567k0)" height="19.8594" rx="5" ry="5" style="stroke:url(#gjtc4uwn6567k0);stroke-width:1.5;" width="34" x="966" y="409"/><text fill="#000000" font-family="sans-serif" font-size="14" lengthAdjust="spacing" textLength="24" x="971" y="422.6553">&#160;&#160;&#160;</text><rect fill="none" height="19.8594" rx="5" ry="5" style="stroke:#000000;stroke-width:1.5;" width="34" x="966" y="409"/><rect fill="url(#gjtc4uwn6567k0)" height="59.5781" rx="5" ry="5" style="stroke:url(#gjtc4uwn6567k0);stroke-width:1.5;" width="236" x="1242" y="404"/><text fill="#000000" font-family="sans-serif" font-size="14" font-weight="bold" lengthAdjust="spacing" textLength="32" x="1247" y="417.6553">name</text><text fill="#000000" font-family="sans-serif" font-size="14" lengthAdjust="spacing" textLength="176" x="1289" y="417.6553">Deploy to GitHub Pages</text><line style="stroke:#000000;stroke-width:1.0;" x1="1284" x2="1284" y1="404" y2="423.8594"/><line style="stroke:#000000;stroke-width:1.0;" x1="1242" x2="1478" y1="423.8594" y2="423.8594"/><text fill="#000000" font-family="sans-serif" font-size="14" font-weight="bold" lengthAdjust="spacing" textLength="16" x="1247" y="437.5146">id</text><text fill="#000000" font-family="sans-serif" font-size="14" lengthAdjust="spacing" textLength="80" x="1289" y="437.5146">deployment</text><line style="stroke:#000000;stroke-width:1.0;" x1="1284" x2="1284" y1="423.8594" y2="443.7188"/><line style="stroke:#000000;stroke-width:1.0;" x1="1242" x2="1478" y1="443.7188" y2="443.7188"/><text fill="#000000" font-family="sans-serif" font-size="14" font-weight="bold" lengthAdjust="spacing" textLength="32" x="1247" y="457.374">uses</text><text fill="#000000" font-family="sans-serif" font-size="14" lengthAdjust="spacing" textLength="184" x="1289" y="457.374">actions/deploy-pages@v4</text><line style="stroke:#000000;stroke-width:1.0;" x1="1284" x2="1284" y1="443.7188" y2="463.5781"/><rect fill="none" height="59.5781" rx="5" ry="5" style="stroke:#000000;stroke-width:1.5;" width="236" x="1242" y="404"/><path d="M696.5,52 L709.5,52 C748.8158,52 757.9899,43.8931 797,39 C852.844,31.9953 918.39,25.742 954.7061,22.4499 " fill="none" style="stroke:#000000;stroke-width:1.0;stroke-dasharray:3.0,3.0;"/><path d="M954.9842,25.5385 L957.0225,22.2414 L954.4281,19.3614 L962.4275,21.7548 L954.9842,25.5385 " fill="#000000" style="stroke:#000000;stroke-width:1.0;"/><ellipse cx="696.5" cy="52" fill="#000000" rx="3" ry="3" style="stroke:#000000;stroke-width:1.0;"/><path d="M696.5,72 L709.5,72 C759.9836,72 815.2711,78.1257 862.8092,85.3234 " fill="none" style="stroke:#000000;stroke-width:1.0;stroke-dasharray:3.0,3.0;"/><path d="M862.3437,88.3478 L865.0775,85.6724 L863.2746,82.2989 L870.3703,86.487 L862.3437,88.3478 " fill="#000000" style="stroke:#000000;stroke-width:1.0;"/><ellipse cx="696.5" cy="72" fill="#000000" rx="3" ry="3" style="stroke:#000000;stroke-width:1.0;"/><path d="M435.5,62 L448.5,62 C496.9813,62 551.912,62 592.7014,62 " fill="none" style="stroke:#000000;stroke-width:1.0;stroke-dasharray:3.0,3.0;"/><path d="M592.7014,65.0819 L595.0128,62 L592.7014,58.9181 L600.4061,62 L592.7014,65.0819 " fill="#000000" style="stroke:#000000;stroke-width:1.0;"/><ellipse cx="435.5" cy="62" fill="#000000" rx="3" ry="3" style="stroke:#000000;stroke-width:1.0;"/><path d="M146,154 L159,154 C187.4757,154 171.1517,116.5603 195,101 C211.9018,89.972 231.8811,82.8663 251.8338,78.3453 " fill="none" style="stroke:#000000;stroke-width:1.0;stroke-dasharray:3.0,3.0;"/><path d="M252.4543,81.2829 L254.0371,77.8799 L251.2134,75.4077 L259.1779,76.7941 L252.4543,81.2829 " fill="#000000" style="stroke:#000000;stroke-width:1.0;"/><ellipse cx="146" cy="154" fill="#000000" rx="3" ry="3" style="stroke:#000000;stroke-width:1.0;"/><path d="M146,174 L159,174 C200.7148,174 246.7353,166.2401 283.4267,158.1346 " fill="none" style="stroke:#000000;stroke-width:1.0;stroke-dasharray:3.0,3.0;"/><path d="M284.1196,161.2079 L285.7317,157.615 L282.7339,155.0614 L291.1098,156.4025 L284.1196,161.2079 " fill="#000000" style="stroke:#000000;stroke-width:1.0;"/><ellipse cx="146" cy="174" fill="#000000" rx="3" ry="3" style="stroke:#000000;stroke-width:1.0;"/><path d="M146,194 L159,194 C168.3525,194 177.9214,194.3901 187.5531,195.0866 " fill="none" style="stroke:#000000;stroke-width:1.0;stroke-dasharray:3.0,3.0;"/><path d="M187.304,198.1806 L189.8736,195.2734 L187.8022,191.9926 L195.2881,195.7094 L187.304,198.1806 " fill="#000000" style="stroke:#000000;stroke-width:1.0;"/><ellipse cx="146" cy="194" fill="#000000" rx="3" ry="3" style="stroke:#000000;stroke-width:1.0;"/><path d="M1450.5,146 L1463.5,146 C1489.7356,146 1518.6414,146 1543.6951,146 " fill="none" style="stroke:#000000;stroke-width:1.0;stroke-dasharray:3.0,3.0;"/><path d="M1543.6951,149.0578 L1545.9885,146 L1543.6951,142.9422 L1551.3396,146 L1543.6951,149.0578 " fill="#000000" style="stroke:#000000;stroke-width:1.0;"/><ellipse cx="1450.5" cy="146" fill="#000000" rx="3" ry="3" style="stroke:#000000;stroke-width:1.0;"/><path d="M988.5,200 L1001.5,200 C1077.0833,200 1096.3848,194.136 1170,177 C1186.4263,173.1763 1189.6767,169.2418 1206,165 C1220.4369,161.2484 1235.7557,157.7703 1250.911,154.6212 " fill="none" style="stroke:#000000;stroke-width:1.0;stroke-dasharray:3.0,3.0;"/><path d="M1251.5187,157.5901 L1253.1377,154.1655 L1250.3034,151.6523 L1258.3332,153.102 L1251.5187,157.5901 " fill="#000000" style="stroke:#000000;stroke-width:1.0;"/><ellipse cx="988.5" cy="200" fill="#000000" rx="3" ry="3" style="stroke:#000000;stroke-width:1.0;"/><path d="M988.5,220 L1001.5,220 C1052.1821,220 1182.4535,205.5356 1271.0521,194.9438 " fill="none" style="stroke:#000000;stroke-width:1.0;stroke-dasharray:3.0,3.0;"/><path d="M1271.4184,197.9988 L1273.3434,194.6691 L1270.6858,191.8888 L1278.6897,194.028 L1271.4184,197.9988 " fill="#000000" style="stroke:#000000;stroke-width:1.0;"/><ellipse cx="988.5" cy="220" fill="#000000" rx="3" ry="3" style="stroke:#000000;stroke-width:1.0;"/><path d="M988.5,240 L1001.5,240 C1091.5652,240 1194.2152,234.2471 1266.4352,229.2459 " fill="none" style="stroke:#000000;stroke-width:1.0;stroke-dasharray:3.0,3.0;"/><path d="M1266.6525,232.3544 L1268.7665,229.0829 L1266.2178,226.1374 L1274.2064,228.7025 L1266.6525,232.3544 " fill="#000000" style="stroke:#000000;stroke-width:1.0;"/><ellipse cx="988.5" cy="240" fill="#000000" rx="3" ry="3" style="stroke:#000000;stroke-width:1.0;"/><path d="M988.5,260 L1001.5,260 C1093.2506,260 1198.2281,260 1270.6692,260 " fill="none" style="stroke:#000000;stroke-width:1.0;stroke-dasharray:3.0,3.0;"/><path d="M1270.6692,263.1147 L1273.0053,260 L1270.6692,256.8853 L1278.456,260 L1270.6692,263.1147 " fill="#000000" style="stroke:#000000;stroke-width:1.0;"/><ellipse cx="988.5" cy="260" fill="#000000" rx="3" ry="3" style="stroke:#000000;stroke-width:1.0;"/><path d="M988.5,280 L1001.5,280 C1086.7617,280 1183.3017,285.1556 1254.6268,289.9485 " fill="none" style="stroke:#000000;stroke-width:1.0;stroke-dasharray:3.0,3.0;"/><path d="M1254.418,293.0263 L1256.9352,290.1051 L1254.8357,286.8707 L1262.3213,290.4707 L1254.418,293.0263 " fill="#000000" style="stroke:#000000;stroke-width:1.0;"/><ellipse cx="988.5" cy="280" fill="#000000" rx="3" ry="3" style="stroke:#000000;stroke-width:1.0;"/><path d="M1502,376 L1515,376 C1529.3811,376 1545.0064,376 1559.2924,376 " fill="none" style="stroke:#000000;stroke-width:1.0;stroke-dasharray:3.0,3.0;"/><path d="M1559.2924,379.113 L1561.6272,376 L1559.2924,372.887 L1567.0749,376 L1559.2924,379.113 " fill="#000000" style="stroke:#000000;stroke-width:1.0;"/><ellipse cx="1502" cy="376" fill="#000000" rx="3" ry="3" style="stroke:#000000;stroke-width:1.0;"/><path d="M988.5,300 L1001.5,300 C1075.2489,300 1156.528,311.7436 1222.975,324.4751 " fill="none" style="stroke:#000000;stroke-width:1.0;stroke-dasharray:3.0,3.0;"/><path d="M1222.3847,327.5211 L1225.2595,324.9178 L1223.5653,321.429 L1230.5901,325.9508 L1222.3847,327.5211 " fill="#000000" style="stroke:#000000;stroke-width:1.0;"/><ellipse cx="988.5" cy="300" fill="#000000" rx="3" ry="3" style="stroke:#000000;stroke-width:1.0;"/><path d="M732.5,264 L745.5,264 C823.7184,264 916.2053,256.3069 958.825,252.3263 " fill="none" style="stroke:#000000;stroke-width:1.0;stroke-dasharray:3.0,3.0;"/><path d="M959.1132,255.367 L961.1056,252.1102 L958.5369,249.2856 L966.4269,251.606 L959.1132,255.367 " fill="#000000" style="stroke:#000000;stroke-width:1.0;"/><ellipse cx="732.5" cy="264" fill="#000000" rx="3" ry="3" style="stroke:#000000;stroke-width:1.0;"/><path d="M387.5,296 L400.5,296 C456.4029,296 518.3273,285.8974 566.9199,275.6017 " fill="none" style="stroke:#000000;stroke-width:1.0;stroke-dasharray:3.0,3.0;"/><path d="M567.5542,278.5519 L569.1325,275.126 L566.2856,272.6515 L574.2953,274.0159 L567.5542,278.5519 " fill="#000000" style="stroke:#000000;stroke-width:1.0;"/><ellipse cx="387.5" cy="296" fill="#000000" rx="3" ry="3" style="stroke:#000000;stroke-width:1.0;"/><path d="M748,357 L761,357 C770.3306,357 779.8822,357 789.5292,357 " fill="none" style="stroke:#000000;stroke-width:1.0;stroke-dasharray:3.0,3.0;"/><path d="M789.5292,360.1019 L791.8556,357 L789.5292,353.8981 L797.284,357 L789.5292,360.1019 " fill="#000000" style="stroke:#000000;stroke-width:1.0;"/><ellipse cx="748" cy="357" fill="#000000" rx="3" ry="3" style="stroke:#000000;stroke-width:1.0;"/><path d="M987.6433,419.1653 L1000.633,419.6835 C1041.6046,421.318 1148.2744,425.5734 1234.7419,429.0229 " fill="none" style="stroke:#000000;stroke-width:1.0;stroke-dasharray:3.0,3.0;"/><path d="M1234.6221,432.0257 L1236.994,429.1128 L1234.8617,426.0202 L1242.2488,429.3224 L1234.6221,432.0257 " fill="#000000" style="stroke:#000000;stroke-width:1.0;"/><ellipse cx="987.6433" cy="419.1653" fill="#000000" rx="3" ry="3" style="stroke:#000000;stroke-width:1.0;"/><path d="M748,377 L761,377 C777.4924,377 780.8717,382.5536 797,386 C854.694,398.3282 923.1688,409.6652 958.5965,415.2884 " fill="none" style="stroke:#000000;stroke-width:1.0;stroke-dasharray:3.0,3.0;"/><path d="M958.1262,418.2693 L960.8322,415.6411 L959.0668,412.3075 L966.0487,416.4641 L958.1262,418.2693 " fill="#000000" style="stroke:#000000;stroke-width:1.0;"/><ellipse cx="748" cy="377" fill="#000000" rx="3" ry="3" style="stroke:#000000;stroke-width:1.0;"/><path d="M387.5,316 L400.5,316 C446.6199,316 497.1201,321.1379 540.7902,327.2304 " fill="none" style="stroke:#000000;stroke-width:1.0;stroke-dasharray:3.0,3.0;"/><path d="M540.3637,330.2337 L543.0427,327.5502 L541.2166,324.2271 L548.2986,328.2965 L540.3637,330.2337 " fill="#000000" style="stroke:#000000;stroke-width:1.0;"/><ellipse cx="387.5" cy="316" fill="#000000" rx="3" ry="3" style="stroke:#000000;stroke-width:1.0;"/><path d="M146,214 L159,214 C191.249,214 168.6947,258.3445 195,277 C225.234,298.4417 266.6905,305.4161 299.4822,307.1763 " fill="none" style="stroke:#000000;stroke-width:1.0;stroke-dasharray:3.0,3.0;"/><path d="M299.3511,310.26 L301.795,307.2746 L299.6132,304.0926 L307.1915,307.5039 L299.3511,310.26 " fill="#000000" style="stroke:#000000;stroke-width:1.0;"/><ellipse cx="146" cy="214" fill="#000000" rx="3" ry="3" style="stroke:#000000;stroke-width:1.0;"/><!--SRC=[XLJRRjf047ttLupKIhb8jiEbKMD55HUdD6beK2XHtz1Yhs7BUjVQ2mX5-VVEsfWGIDGdQsREpfvpPjOTROWo6v9pxrgR3QVVF1V4ZCmLoU7P0-YHP3bNqegqBxbKy2dBif2G34jwGLAvPc8EHbdglNZNuRQ983cDe6SPJpqf8iGMLY_S5s2cY4WML5SHW0yvOQ8C2c8MU_cJy_FmFD09IKyESWKdmjYS7-NVoH6TC9RAv2Z_9XVCcLdOMRYMQfbnkTRXpB4FDcWDG9sTfamZoMGHWR2SUmLLETEQIL7IJgGmL1WTmLenGvriCgTx8Kjz8vTKr1agLkvSVDER3ABAHO3RuM0wxdVZ2EQBH0LCXgaKWd8Toe8APqUqTSmXHvFX_J6oDcWVsOqV-iV8sfuA-LVEIYMAYfIgQXJA2ktZ5C7EB3RrEJ5KcxAa3Its1cQr4qiIumm9SSZ9KbhJMRMt23GINOvs4K16qKm_fGMcuMBNgDgVnv84FA1gvyVxrP5JYXuSLClTWwuJ5ylaeDYNUSuC4Cu1-HNMw0F0fE2If31oqmDy8In3KJlQRsNQ4kkNa_PhR6VL-b2ps_88q79tAqhdSlDVemMbATvPZQNCuEem9KME-rOthxXNYrpnsHQiuX5yVdwkvXLKTxgJmLP-uD1JXC7Botk3hJh7vJam4WRC_B2pof-TCfP6yDhw0xSgGCNEBKO75PN_7wyU9AoeSYyA6a7pejaA6itJxuh1GsAWUG6DLjI-YhwqOVAx3wv-vfqEHlUWfLK91NoVHh6PTPUTUNTaHU0HlMIEljkZk_XddO2RLmUzkwVXA-2oxVTmFSPK8HLu6denpOZb1ayaCiN_NGJTN-FRwPzMqFORLvTVlNiYvXObHJWMhuy_IwCsk4NZVm00]--></g></svg>