<?xml version="1.0" encoding="us-ascii" standalone="no"?><svg xmlns="http://www.w3.org/2000/svg" xmlns:xlink="http://www.w3.org/1999/xlink" contentStyleType="text/css" height="665px" preserveAspectRatio="none" style="width:498px;height:665px;" version="1.1" viewBox="0 0 498 665" width="498px" zoomAndPan="magnify"><defs><linearGradient id="g1u9qemy3oxejg0" x1="0%" x2="100%" y1="0%" y2="100%"><stop offset="0%" stop-color="#FFFFFF"/><stop offset="100%" stop-color="#AAAAFF"/></linearGradient><filter height="300%" id="f1u9qemy3oxejg" width="300%" x="-1" y="-1"><feGaussianBlur result="blurOut" stdDeviation="2.0"/><feColorMatrix in="blurOut" result="blurOut2" type="matrix" values="0 0 0 0 0 0 0 0 0 0 0 0 0 0 0 0 0 0 .4 0"/><feOffset dx="4.0" dy="4.0" in="blurOut2" result="blurOut3"/><feBlend in="SourceGraphic" in2="blurOut3" mode="normal"/></filter></defs><g><rect fill="url(#g1u9qemy3oxejg0)" height="665" style="stroke:none;stroke-width:1.0;" width="498" x="0" y="0"/><rect fill="url(#g1u9qemy3oxejg0)" height="25.8594" id="_title" style="stroke:none;stroke-width:1.0;" width="250" x="117.25" y="5"/><text fill="#000000" font-family="sans-serif" font-size="14" font-weight="bold" lengthAdjust="spacing" textLength="240" x="122.25" y="21.6553">PB-3 Replacement Block Diagram</text><!--entity USB--><g id="elem_USB"><rect fill="url(#g1u9qemy3oxejg0)" filter="url(#f1u9qemy3oxejg)" height="51.7188" rx="2.5" ry="2.5" style="stroke:#181818;stroke-width:0.5;" width="60" x="199" y="43.8594"/><text fill="#000000" font-family="sans-serif" font-size="14" lengthAdjust="spacing" textLength="40" x="209" y="65.5146">USB-C</text><text fill="#000000" font-family="sans-serif" font-size="14" lengthAdjust="spacing" textLength="16" x="209" y="81.374">5V</text></g><!--entity CHG--><g id="elem_CHG"><rect fill="url(#g1u9qemy3oxejg0)" filter="url(#f1u9qemy3oxejg)" height="51.7188" rx="2.5" ry="2.5" style="stroke:#181818;stroke-width:0.5;" width="100" x="179" y="171.8594"/><text fill="#000000" font-family="sans-serif" font-size="14" lengthAdjust="spacing" textLength="80" x="189" y="193.5146">Charger IC</text><text fill="#000000" font-family="sans-serif" font-size="14" lengthAdjust="spacing" textLength="80" x="189" y="209.374">(SOT-23-6)</text></g><!--entity CELL--><g id="elem_CELL"><rect fill="url(#g1u9qemy3oxejg0)" filter="url(#f1u9qemy3oxejg)" height="67.5781" rx="2.5" ry="2.5" style="stroke:#181818;stroke-width:0.5;" width="68" x="195" y="299.8594"/><text fill="#000000" font-family="sans-serif" font-size="14" lengthAdjust="spacing" textLength="32" x="205" y="321.5146">LiPo</text><text fill="#000000" font-family="sans-serif" font-size="14" lengthAdjust="spacing" textLength="48" x="205" y="337.374">500mAh</text><text fill="#000000" font-family="sans-serif" font-size="14" lengthAdjust="spacing" textLength="32" x="205" y="353.2334">3.7V</text></g><!--entity BUCK--><g id="elem_BUCK"><rect fill="url(#g1u9qemy3oxejg0)" filter="url(#f1u9qemy3oxejg)" height="67.5781" rx="2.5" ry="2.5" style="stroke:#181818;stroke-width:0.5;" width="100" x="7" y="443.8594"/><text fill="#000000" font-family="sans-serif" font-size="14" lengthAdjust="spacing" textLength="56" x="17" y="465.5146">Buck IC</text><text fill="#000000" font-family="sans-serif" font-size="14" lengthAdjust="spacing" textLength="80" x="17" y="481.374">(SOT-23-6)</text><text fill="#000000" font-family="sans-serif" font-size="14" lengthAdjust="spacing" textLength="48" x="17" y="497.2334">2.2&#65533;&#65533;H</text></g><!--entity OUT--><g id="elem_OUT"><rect fill="url(#g1u9qemy3oxejg0)" filter="url(#f1u9qemy3oxejg)" height="51.7188" rx="2.5" ry="2.5" style="stroke:#181818;stroke-width:0.5;" width="92" x="11" y="587.8594"/><text fill="#000000" font-family="sans-serif" font-size="14" lengthAdjust="spacing" textLength="32" x="21" y="609.5146">Deck</text><text fill="#000000" font-family="sans-serif" font-size="14" lengthAdjust="spacing" textLength="72" x="21" y="625.374">2V Output</text></g><g id="elem_GMN11"><path d="M314.5,185.3594 L314.5,193.8594 L279.27,197.8594 L314.5,201.8594 L314.5,210.0859 A0,0 0 0 0 314.5,210.0859 L455.5,210.0859 A0,0 0 0 0 455.5,210.0859 L455.5,195.3594 L445.5,185.3594 L314.5,185.3594 A0,0 0 0 0 314.5,185.3594 " fill="#FEFFDD" filter="url(#f1u9qemy3oxejg)" style="stroke:#181818;stroke-width:0.5;"/><path d="M445.5,185.3594 L445.5,195.3594 L455.5,195.3594 L445.5,185.3594 " fill="#FEFFDD" style="stroke:#181818;stroke-width:0.5;"/><text fill="#000000" font-family="sans-serif" font-size="13" lengthAdjust="spacing" textLength="120" x="320.5" y="201.1821">Rprog sets Ichg</text></g><g id="elem_GMN14"><path d="M142.5,450.8594 L142.5,473.8594 L107.17,477.8594 L142.5,481.8594 L142.5,505.0391 A0,0 0 0 0 142.5,505.0391 L275.5,505.0391 A0,0 0 0 0 275.5,505.0391 L275.5,460.8594 L265.5,450.8594 L142.5,450.8594 A0,0 0 0 0 142.5,450.8594 " fill="#FEFFDD" filter="url(#f1u9qemy3oxejg)" style="stroke:#181818;stroke-width:0.5;"/><path d="M265.5,450.8594 L265.5,460.8594 L275.5,460.8594 L265.5,450.8594 " fill="#FEFFDD" style="stroke:#181818;stroke-width:0.5;"/><text fill="#000000" font-family="sans-serif" font-size="13" lengthAdjust="spacing" textLength="112" x="148.5" y="466.6821">Rfb: 100k=2.4V</text><text fill="#000000" font-family="sans-serif" font-size="13" lengthAdjust="spacing" textLength="72" x="148.5" y="481.4087">120k=2.1V</text><text fill="#000000" font-family="sans-serif" font-size="13" lengthAdjust="spacing" textLength="112" x="148.5" y="496.1353">(mod for 2.0V)</text></g><g id="elem_GMN17"><path d="M310.5,458.3594 L310.5,497.8125 A0,0 0 0 0 310.5,497.8125 L491.5,497.8125 A0,0 0 0 0 491.5,497.8125 L491.5,468.3594 L481.5,458.3594 L382.44,458.3594 L263.39,363.2494 L374.44,458.3594 L310.5,458.3594 A0,0 0 0 0 310.5,458.3594 " fill="#FEFFDD" filter="url(#f1u9qemy3oxejg)" style="stroke:#181818;stroke-width:0.5;"/><path d="M481.5,458.3594 L481.5,468.3594 L491.5,468.3594 L481.5,458.3594 " fill="#FEFFDD" style="stroke:#181818;stroke-width:0.5;"/><text fill="#000000" font-family="sans-serif" font-size="13" lengthAdjust="spacing" textLength="160" x="316.5" y="474.1821">BMS on cell flex PCB</text><text fill="#000000" font-family="sans-serif" font-size="13" lengthAdjust="spacing" textLength="112" x="316.5" y="488.9087">(under kapton)</text></g><g id="elem_GMN20"><path d="M138.5,594.3594 L138.5,609.8594 L103.12,613.8594 L138.5,617.8594 L138.5,633.8125 A0,0 0 0 0 138.5,633.8125 L303.5,633.8125 A0,0 0 0 0 303.5,633.8125 L303.5,604.3594 L293.5,594.3594 L138.5,594.3594 A0,0 0 0 0 138.5,594.3594 " fill="#FEFFDD" filter="url(#f1u9qemy3oxejg)" style="stroke:#181818;stroke-width:0.5;"/><path d="M293.5,594.3594 L293.5,604.3594 L303.5,604.3594 L293.5,594.3594 " fill="#FEFFDD" style="stroke:#181818;stroke-width:0.5;"/><text fill="#000000" font-family="sans-serif" font-size="13" lengthAdjust="spacing" textLength="88" x="144.5" y="610.1821">900mAh @ 2V</text><text fill="#000000" font-family="sans-serif" font-size="13" lengthAdjust="spacing" textLength="144" x="144.5" y="624.9087">(energy conserved)</text></g><!--link USB to CHG--><g id="link_USB_CHG"><path d="M229,96.0594 C229,118.0294 229,143.7494 229,165.7094 " fill="none" id="USB-to-CHG" style="stroke:#181818;stroke-width:1.0;"/><polygon fill="#181818" points="229,171.7094,233,162.7094,229,166.7094,225,162.7094,229,171.7094" style="stroke:#181818;stroke-width:1.0;"/><text fill="#000000" font-family="sans-serif" font-size="13" lengthAdjust="spacing" textLength="16" x="230" y="137.6821">5V</text></g><!--link CHG to CELL--><g id="link_CHG_CELL"><path d="M229,224.0594 C229,245.4394 229,270.2794 229,293.6594 " fill="none" id="CHG-to-CELL" style="stroke:#181818;stroke-width:1.0;"/><polygon fill="#181818" points="229,299.6594,233,290.6594,229,294.6594,225,290.6594,229,299.6594" style="stroke:#181818;stroke-width:1.0;"/><text fill="#000000" font-family="sans-serif" font-size="13" lengthAdjust="spacing" textLength="80" x="230" y="265.6821">CC/CV 4.2V</text></g><!--link CELL to BUCK--><g id="link_CELL_BUCK"><path d="M194.61,363.2494 C166.47,386.4794 131.2671,415.5497 101.6971,439.9597 " fill="none" id="CELL-to-BUCK" style="stroke:#181818;stroke-width:1.0;"/><polygon fill="#181818" points="97.07,443.7794,106.5571,441.1346,100.9259,440.5963,101.4642,434.9651,97.07,443.7794" style="stroke:#181818;stroke-width:1.0;"/><text fill="#000000" font-family="sans-serif" font-size="13" lengthAdjust="spacing" textLength="64" x="150" y="409.6821">3.0-4.2V</text></g><!--link BUCK to OUT--><g id="link_BUCK_OUT"><path d="M57,511.9794 C57,535.3894 57,560.2794 57,581.6794 " fill="none" id="BUCK-to-OUT" style="stroke:#181818;stroke-width:1.0;"/><polygon fill="#181818" points="57,587.6794,61,578.6794,57,582.6794,53,578.6794,57,587.6794" style="stroke:#181818;stroke-width:1.0;"/><text fill="#000000" font-family="sans-serif" font-size="13" lengthAdjust="spacing" textLength="32" x="58" y="553.6821">2.0V</text></g><rect fill="url(#g1u9qemy3oxejg0)" height="11.3281" style="stroke:none;stroke-width:1.0;" width="126" x="179.25" y="646.5781"/><text fill="#888888" font-family="sans-serif" font-size="10" lengthAdjust="spacing" textLength="126" x="179.25" y="654.9033">&#65533;&#65533;2025 Sean Donnellan</text><!--SRC=[ZLB1Rjim3BthAuZkqXpiEagpOWKsR5Q6jLY6177ZKowA8yc6RSgGbMtzk6AVj5yeBHU5rzC07IY-nySdKhxoZO9j6YrWfxf65gfLw25jR573gfB6oPPfQxroyFVF4nsUy2LaIYAiBA9g6eciholi956XB-N9_ghGm7oIFSgYDiwUyIHiOnsyqrfVIQad5ASABz4qwZ-uXMqxY-Gpyu_a_hMKiTSGBlPP6ea3BlCBa3tGRGgAKZf3JxedncMsUOZu8de_2qnnzstAN5TRIof9qduf3xY8RqOzyNMzdjBICythNxK3yfYFCxiBDUbUV9_Mh5HH4oc7pTbtPnyuc_q3OsGMekZJO0LkOPcp8GW9waeP8Qv43jSn9sJ83D0WJj0YJg80XFi0a2BbUPpaZ27j4LnbIWzMlyZlEcSDzChtS5-KvWtdHNQdZxSmJvBw8u-lymFEUGZd55wszWIQ5ZMqc8tbH-kzRKEFqN7w8mEBKD1t0Tsetx0LAPNIaca9jUoynTcRpgFl3s7my1duq4gXSkQHze-zSZ_LQSQU0G00]--></g></svg>