%TF.GenerationSoftware,KiCad,Pcbnew,9.0.7+1*%
%TF.CreationDate,2026-09-06T14:31:06+00:00*%
%TF.ProjectId,batteryPack,62617474-6572-4795-9061-636b2e6b6963,rev?*%
%TF.SameCoordinates,Original*%
%TF.FileFunction,Copper,L2,Bot*%
%TF.FilePolarity,Positive*%
%FSLAX46Y46*%
G04 Gerber Fmt 4.6, Leading zero omitted, Abs format (unit mm)*
G04 Created by KiCad (PCBNEW 9.0.7+1) date 2026-09-06 14:31:06*
%MOMM*%
%LPD*%
G01*
G04 APERTURE LIST*
G04 Aperture macros list*
%AMRoundRect*
0 Rectangle with rounded corners*
0 $1 Rounding radius*
0 $2 $3 $4 $5 $6 $7 $8 $9 X,Y pos of 4 corners*
0 Add a 4 corners polygon primitive as box body*
4,1,4,$2,$3,$4,$5,$6,$7,$8,$9,$2,$3,0*
0 Add four circle primitives for the rounded corners*
1,1,$1+$1,$2,$3*
1,1,$1+$1,$4,$5*
1,1,$1+$1,$6,$7*
1,1,$1+$1,$8,$9*
0 Add four rect primitives between the rounded corners*
20,1,$1+$1,$2,$3,$4,$5,0*
20,1,$1+$1,$4,$5,$6,$7,0*
20,1,$1+$1,$6,$7,$8,$9,0*
20,1,$1+$1,$8,$9,$2,$3,0*%
G04 Aperture macros list end*
%TA.AperFunction,ComponentPad*%
%ADD10C,1.800000*%
%TD*%
%TA.AperFunction,ComponentPad*%
%ADD11C,2.000000*%
%TD*%
%TA.AperFunction,ComponentPad*%
%ADD12O,2.100000X1.000000*%
%TD*%
%TA.AperFunction,ComponentPad*%
%ADD13O,1.800000X1.000000*%
%TD*%
%TA.AperFunction,ComponentPad*%
%ADD14C,4.000000*%
%TD*%
%TA.AperFunction,ComponentPad*%
%ADD15R,6.000000X3.000000*%
%TD*%
%TA.AperFunction,ComponentPad*%
%ADD16O,4.000000X3.000000*%
%TD*%
%TA.AperFunction,SMDPad,CuDef*%
%ADD17RoundRect,0.237500X0.237500X-0.287500X0.237500X0.287500X-0.237500X0.287500X-0.237500X-0.287500X0*%
%TD*%
%TA.AperFunction,SMDPad,CuDef*%
%ADD18RoundRect,0.237500X-0.237500X0.287500X-0.237500X-0.287500X0.237500X-0.287500X0.237500X0.287500X0*%
%TD*%
%TA.AperFunction,ComponentPad*%
%ADD19R,1.700000X1.700000*%
%TD*%
%TA.AperFunction,ComponentPad*%
%ADD20O,1.700000X1.700000*%
%TD*%
%TA.AperFunction,SMDPad,CuDef*%
%ADD21RoundRect,0.237500X-0.287500X-0.237500X0.287500X-0.237500X0.287500X0.237500X-0.287500X0.237500X0*%
%TD*%
%TA.AperFunction,SMDPad,CuDef*%
%ADD22RoundRect,0.100000X0.637500X0.100000X-0.637500X0.100000X-0.637500X-0.100000X0.637500X-0.100000X0*%
%TD*%
%TA.AperFunction,SMDPad,CuDef*%
%ADD23R,0.800000X0.900000*%
%TD*%
%TA.AperFunction,ViaPad*%
%ADD24C,0.800000*%
%TD*%
%TA.AperFunction,ViaPad*%
%ADD25C,1.400000*%
%TD*%
%TA.AperFunction,Conductor*%
%ADD26C,0.500000*%
%TD*%
%TA.AperFunction,Conductor*%
%ADD27C,0.300000*%
%TD*%
%TA.AperFunction,Conductor*%
%ADD28C,0.250000*%
%TD*%
%TA.AperFunction,Conductor*%
%ADD29C,2.000000*%
%TD*%
G04 APERTURE END LIST*
D10*
%TO.P,J1,6*%
%TO.N,GND*%
X232200000Y-74375000D03*
D11*
X228400000Y-74225000D03*
X228400000Y-66775000D03*
D10*
X232200000Y-66625000D03*
%TD*%
D12*
%TO.P,P1,S1*%
%TO.N,GND*%
X228250000Y-63570000D03*
D13*
X232000000Y-63500000D03*
D12*
X228250000Y-54930000D03*
D13*
X232000000Y-54930000D03*
%TD*%
D14*
%TO.P,J3,1*%
%TO.N,/MID*%
X120000000Y-67000000D03*
%TD*%
%TO.P,J5,1*%
%TO.N,/MID*%
X120000000Y-80000000D03*
%TD*%
D15*
%TO.P,J6,1*%
%TO.N,/OUT-*%
X131750000Y-75250000D03*
%TO.P,J6,2*%
%TO.N,/MID*%
X131750000Y-70170000D03*
%TO.P,J6,3*%
%TO.N,/OUT+*%
X131750000Y-65090000D03*
%TD*%
D14*
%TO.P,J4,1*%
%TO.N,/OUT-*%
X120000000Y-73000000D03*
%TD*%
%TO.P,J2,1*%
%TO.N,/OUT+*%
X120000000Y-60000000D03*
%TD*%
D16*
%TO.P,BT1,1*%
%TO.N,/BP_B1-*%
X40400000Y-106200000D03*
%TO.P,BT1,1+*%
%TO.N,/BP_B1+*%
X40400000Y-33800000D03*
%TO.P,BT1,2*%
%TO.N,/BP_B2-*%
X59600000Y-106200000D03*
%TO.P,BT1,2+*%
%TO.N,/BP_B2+*%
X59600000Y-33800000D03*
%TD*%
D17*
%TO.P,C1,1*%
%TO.N,GND*%
X204000000Y-60875000D03*
%TO.P,C1,2*%
%TO.N,+3V3*%
X204000000Y-59125000D03*
%TD*%
D18*
%TO.P,C2,1*%
%TO.N,GND*%
X205750000Y-64875000D03*
%TO.P,C2,2*%
%TO.N,BAT2+*%
X205750000Y-66625000D03*
%TD*%
D19*
%TO.P,J7,1*%
%TO.N,SWCLK*%
X204420000Y-85250000D03*
D20*
%TO.P,J7,2*%
%TO.N,SWDIO*%
X206960000Y-85250000D03*
%TO.P,J7,3*%
%TO.N,RST*%
X209500000Y-85250000D03*
%TO.P,J7,4*%
%TO.N,+3V3*%
X212040000Y-85250000D03*
%TO.P,J7,5*%
%TO.N,GND*%
X214580000Y-85250000D03*
%TD*%
D19*
%TO.P,J8,1*%
%TO.N,TX*%
X209500000Y-81250000D03*
D20*
%TO.P,J8,2*%
%TO.N,RX*%
X212040000Y-81250000D03*
%TO.P,J8,3*%
%TO.N,GND*%
X214580000Y-81250000D03*
%TD*%
D18*
%TO.P,R1,1*%
%TO.N,+3V3*%
X200500000Y-60875000D03*
%TO.P,R1,2*%
%TO.N,D-*%
X200500000Y-62625000D03*
%TD*%
D17*
%TO.P,R2,1*%
%TO.N,D-*%
X202250000Y-62625000D03*
%TO.P,R2,2*%
%TO.N,GND*%
X202250000Y-60875000D03*
%TD*%
D18*
%TO.P,R3,1*%
%TO.N,+3V3*%
X214250000Y-62375000D03*
%TO.P,R3,2*%
%TO.N,D+*%
X214250000Y-64125000D03*
%TD*%
D17*
%TO.P,R4,1*%
%TO.N,D+*%
X216000000Y-64125000D03*
%TO.P,R4,2*%
%TO.N,GND*%
X216000000Y-62375000D03*
%TD*%
D18*
%TO.P,R8,1*%
%TO.N,VBUS*%
X214250000Y-58625000D03*
%TO.P,R8,2*%
%TO.N,/VBUS_SENSE*%
X214250000Y-60375000D03*
%TD*%
D17*
%TO.P,R9,1*%
%TO.N,/VBUS_SENSE*%
X216000000Y-60375000D03*
%TO.P,R9,2*%
%TO.N,GND*%
X216000000Y-58625000D03*
%TD*%
D21*
%TO.P,R5,1*%
%TO.N,Net-(R5-Pad1)*%
X226875000Y-80750000D03*
%TO.P,R5,2*%
%TO.N,Net-(D1-Pad2)*%
X228625000Y-80750000D03*
%TD*%
D22*
%TO.P,U2,1*%
%TO.N,GND*%
X211612500Y-57075000D03*
%TO.P,U2,2*%
%TO.N,Net-(R16-Pad1)*%
X211612500Y-57725000D03*
%TO.P,U2,3*%
%TO.N,Net-(R15-Pad1)*%
X211612500Y-58375000D03*
%TO.P,U2,4*%
%TO.N,RST*%
X211612500Y-59025000D03*
%TO.P,U2,5*%
%TO.N,+3V3*%
X211612500Y-59675000D03*
%TO.P,U2,6*%
%TO.N,/VBUS_SENSE*%
X211612500Y-60325000D03*
%TO.P,U2,7*%
%TO.N,BAT1_V*%
X211612500Y-60975000D03*
%TO.P,U2,8*%
%TO.N,TX*%
X211612500Y-61625000D03*
%TO.P,U2,9*%
%TO.N,RX*%
X211612500Y-62275000D03*
%TO.P,U2,10*%
%TO.N,D+*%
X211612500Y-62925000D03*
%TO.P,U2,11*%
%TO.N,D-*%
X205887500Y-62925000D03*
%TO.P,U2,12*%
%TO.N,BAT2_V*%
X205887500Y-62275000D03*
%TO.P,U2,13*%
%TO.N,Net-(R5-Pad1)*%
X205887500Y-61625000D03*
%TO.P,U2,14*%
%TO.N,Net-(R14-Pad1)*%
X205887500Y-60975000D03*
%TO.P,U2,15*%
%TO.N,GND*%
X205887500Y-60325000D03*
%TO.P,U2,16*%
%TO.N,+3V3*%
X205887500Y-59675000D03*
%TO.P,U2,17*%
%TO.N,Net-(R6-Pad1)*%
X205887500Y-59025000D03*
%TO.P,U2,18*%
%TO.N,Net-(R7-Pad1)*%
X205887500Y-58375000D03*
%TO.P,U2,19*%
%TO.N,SWDIO*%
X205887500Y-57725000D03*
%TO.P,U2,20*%
%TO.N,SWCLK*%
X205887500Y-57075000D03*
%TD*%
D21*
%TO.P,R7,1*%
%TO.N,Net-(R7-Pad1)*%
X226875000Y-77750000D03*
%TO.P,R7,2*%
%TO.N,Net-(D3-Pad2)*%
X228625000Y-77750000D03*
%TD*%
D18*
%TO.P,R10,1*%
%TO.N,BAT2+*%
X203850000Y-68775000D03*
%TO.P,R10,2*%
%TO.N,BAT2_V*%
X203850000Y-70525000D03*
%TD*%
D17*
%TO.P,R11,1*%
%TO.N,BAT2_V*%
X205550000Y-70525000D03*
%TO.P,R11,2*%
%TO.N,GND*%
X205550000Y-68775000D03*
%TD*%
D21*
%TO.P,R12,1*%
%TO.N,BAT1+*%
X200675000Y-53950000D03*
%TO.P,R12,2*%
%TO.N,BAT1_V*%
X202425000Y-53950000D03*
%TD*%
%TO.P,R13,1*%
%TO.N,BAT1_V*%
X204375000Y-53950000D03*
%TO.P,R13,2*%
%TO.N,GND*%
X206125000Y-53950000D03*
%TD*%
%TO.P,R14,1*%
%TO.N,Net-(R14-Pad1)*%
X226875000Y-82250000D03*
%TO.P,R14,2*%
%TO.N,Net-(D4-Pad2)*%
X228625000Y-82250000D03*
%TD*%
%TO.P,R15,1*%
%TO.N,Net-(R15-Pad1)*%
X226875000Y-83750000D03*
%TO.P,R15,2*%
%TO.N,Net-(D5-Pad2)*%
X228625000Y-83750000D03*
%TD*%
%TO.P,R16,1*%
%TO.N,Net-(R16-Pad1)*%
X226875000Y-85250000D03*
%TO.P,R16,2*%
%TO.N,Net-(D6-Pad2)*%
X228625000Y-85250000D03*
%TD*%
D23*
%TO.P,U3,1*%
%TO.N,GND*%
X207550000Y-65000000D03*
%TO.P,U3,2*%
%TO.N,+3V3*%
X209450000Y-65000000D03*
%TO.P,U3,3*%
%TO.N,BAT2+*%
X208500000Y-67000000D03*
%TD*%
D21*
%TO.P,R6,1*%
%TO.N,Net-(R6-Pad1)*%
X226875000Y-79250000D03*
%TO.P,R6,2*%
%TO.N,Net-(D2-Pad2)*%
X228625000Y-79250000D03*
%TD*%
D24*
%TO.N,GND*%
X219750000Y-67500000D03*
X219750000Y-68500000D03*
X220750000Y-67500000D03*
X220750000Y-68500000D03*
X221750000Y-67500000D03*
X204650000Y-64350000D03*
X210150000Y-56650000D03*
X221750000Y-68500000D03*
X203850000Y-64350000D03*
X203374970Y-62000000D03*
X208450000Y-69850000D03*
X206650000Y-68550000D03*
X216050004Y-57450000D03*
X204250000Y-62050000D03*
X203050000Y-64350000D03*
%TO.N,VBUS*%
X214629659Y-57583540D03*
%TO.N,Net-(D1-Pad2)*%
X229500000Y-80750000D03*
%TO.N,Net-(D2-Pad2)*%
X229500000Y-79250000D03*
%TO.N,Net-(D3-Pad2)*%
X229500000Y-77750000D03*
%TO.N,D+*%
X217700021Y-64192677D03*
X229500000Y-58750000D03*
X228844212Y-60733150D03*
%TO.N,D-*%
X207558248Y-63328942D03*
X217700021Y-66489841D03*
X211649260Y-63821818D03*
%TO.N,RST*%
X208755807Y-57440607D03*
X210000010Y-66848674D03*
%TO.N,SWCLK*%
X199100002Y-67950000D03*
X198850000Y-74850000D03*
%TO.N,SWDIO*%
X199850012Y-69150000D03*
X199750006Y-73950000D03*
%TO.N,Net-(J14-Pad1)*%
X189000000Y-67000000D03*
X189000000Y-68000000D03*
X189000000Y-66000000D03*
X191000000Y-68000000D03*
X191000000Y-67000000D03*
X191000000Y-66000000D03*
X190000000Y-68000000D03*
X190000000Y-67000000D03*
X190000000Y-66000000D03*
%TO.N,Net-(J16-Pad1)*%
X190000000Y-72000000D03*
X191000000Y-74000000D03*
X190000000Y-74000000D03*
X191000000Y-73000000D03*
X189000000Y-73000000D03*
X189000000Y-72000000D03*
X189000000Y-74000000D03*
X190000000Y-73000000D03*
X191000000Y-72000000D03*
%TO.N,Net-(R5-Pad1)*%
X208999506Y-60677518D03*
X225950000Y-80750012D03*
%TO.N,Net-(R6-Pad1)*%
X208295627Y-59136803D03*
X225950002Y-79250000D03*
%TO.N,Net-(R7-Pad1)*%
X207969060Y-58191616D03*
X227100031Y-76478706D03*
D25*
%TO.N,/BP_B2+*%
X67750000Y-79250000D03*
X67750000Y-80750000D03*
X64750000Y-80750000D03*
X64750000Y-79250000D03*
X66250000Y-79250000D03*
X66250000Y-80750000D03*
X63250000Y-79250000D03*
X61750000Y-79250000D03*
X63250000Y-80750000D03*
X61750000Y-80750000D03*
X60250000Y-80750000D03*
X60250000Y-79250000D03*
X58750000Y-79250000D03*
X58750000Y-80750000D03*
X57250000Y-79250000D03*
X57250000Y-80750000D03*
%TO.N,/BP_B2-*%
X67750000Y-72250000D03*
X67750000Y-73750000D03*
X66250000Y-72250000D03*
X64750000Y-72250000D03*
X66250000Y-73750000D03*
X64750000Y-73750000D03*
X61750000Y-72250000D03*
X61750000Y-73750000D03*
X63250000Y-73750000D03*
X63250000Y-72250000D03*
X58750000Y-73750000D03*
X60250000Y-73750000D03*
X58750000Y-72250000D03*
X60250000Y-72250000D03*
X57250000Y-73750000D03*
X57250000Y-72250000D03*
%TO.N,/BP_B1-*%
X67750000Y-67750000D03*
X67750000Y-66250000D03*
X66250000Y-67750000D03*
X64750000Y-67750000D03*
X64750000Y-66250000D03*
X66250000Y-66250000D03*
X63250000Y-67750000D03*
X63250000Y-66250000D03*
X61750000Y-66250000D03*
X61750000Y-67750000D03*
X60250000Y-67750000D03*
X60250000Y-66250000D03*
X58750000Y-66250000D03*
X58750000Y-67750000D03*
X57250000Y-67750000D03*
X57250000Y-66250000D03*
%TO.N,/BP_B1+*%
X67750000Y-59250000D03*
X67750000Y-60750000D03*
X66250000Y-59250000D03*
X66250000Y-60750000D03*
X64750000Y-60750000D03*
X64750000Y-59250000D03*
X63250000Y-60750000D03*
X63250000Y-59250000D03*
X61750000Y-59250000D03*
X61750000Y-60750000D03*
X60250000Y-59250000D03*
X60250000Y-60750000D03*
X58750000Y-59250000D03*
X58750000Y-60750000D03*
X57250000Y-60750000D03*
X57250000Y-59250000D03*
D24*
%TO.N,BAT1+*%
X190000000Y-61000000D03*
X191000000Y-61000000D03*
X191000000Y-60000000D03*
X191000000Y-59000000D03*
X190000000Y-59000000D03*
X190000000Y-60000000D03*
X189000000Y-59000000D03*
X189000000Y-61000000D03*
X189000000Y-60000000D03*
X196450000Y-54050000D03*
%TO.N,Net-(D4-Pad2)*%
X229500000Y-82250000D03*
%TO.N,Net-(D5-Pad2)*%
X229500000Y-83750000D03*
%TO.N,Net-(D6-Pad2)*%
X229500000Y-85250000D03*
%TO.N,BAT2+*%
X191000000Y-79000000D03*
X189000000Y-80000000D03*
X189000000Y-81000000D03*
X191000000Y-81000000D03*
X191000000Y-80000000D03*
X189000000Y-79000000D03*
X190000000Y-79000000D03*
X190000000Y-81000000D03*
X190000000Y-80000000D03*
X196500000Y-72250000D03*
X195000000Y-72250000D03*
X195750000Y-72250000D03*
X197250000Y-72250000D03*
X198000000Y-72250000D03*
%TO.N,BAT1_V*%
X213050000Y-60950000D03*
X207750000Y-54249996D03*
%TO.N,Net-(R14-Pad1)*%
X224449991Y-77383588D03*
X207221854Y-60629193D03*
%TO.N,Net-(R15-Pad1)*%
X213700010Y-57056128D03*
X223850000Y-74650000D03*
%TO.N,Net-(R16-Pad1)*%
X221928049Y-74354409D03*
X209845998Y-58051008D03*
%TD*%
D26*
%TO.N,+3V3*%
X209849507Y-60298049D02*
X209301458Y-59750000D01*
X212000000Y-85000000D02*
X210250000Y-83250000D01*
D27*
X216500000Y-59500000D02*
X216825010Y-59825010D01*
X211612500Y-59675000D02*
X212450000Y-59675000D01*
D28*
X207947625Y-59861805D02*
X209138195Y-59861805D01*
D26*
X209301458Y-59750000D02*
X209250000Y-59750000D01*
D27*
X204550000Y-59675000D02*
X205887500Y-59675000D01*
X212450000Y-59675000D02*
X212625000Y-59500000D01*
D28*
X209290589Y-59709411D02*
X210562355Y-59709411D01*
D26*
X210850012Y-66450012D02*
X209450000Y-65050000D01*
X209249979Y-61685047D02*
X209849507Y-61085519D01*
D27*
X216825010Y-59825010D02*
X216825010Y-60924990D01*
X200500000Y-60875000D02*
X202250000Y-59125000D01*
X212625000Y-59500000D02*
X216500000Y-59500000D01*
X216499990Y-61250010D02*
X215374990Y-61250010D01*
X214749072Y-61875928D02*
X214250000Y-62375000D01*
D26*
X212000000Y-85250000D02*
X212000000Y-85000000D01*
D27*
X202250000Y-59125000D02*
X204000000Y-59125000D01*
X204000000Y-59125000D02*
X204550000Y-59675000D01*
X215374990Y-61250010D02*
X214749072Y-61875928D01*
D26*
X209249979Y-64799979D02*
X209249979Y-61685047D01*
D28*
X209138195Y-59861805D02*
X209250000Y-59750000D01*
X207760820Y-59675000D02*
X207947625Y-59861805D01*
X210562355Y-59709411D02*
X211675000Y-59675000D01*
D26*
X209849507Y-61085519D02*
X209849507Y-60298049D01*
X208199999Y-82460001D02*
X208199999Y-75250001D01*
X210250000Y-83250000D02*
X208989998Y-83250000D01*
X208199999Y-75250001D02*
X210850012Y-72599988D01*
D28*
X209250000Y-59750000D02*
X209290589Y-59709411D01*
D26*
X209450000Y-65050000D02*
X209450000Y-65000000D01*
D28*
X205887500Y-59675000D02*
X207760820Y-59675000D01*
D27*
X216825010Y-60924990D02*
X216499990Y-61250010D01*
D26*
X209450000Y-65000000D02*
X209249979Y-64799979D01*
X208989998Y-83250000D02*
X208199999Y-82460001D01*
X210850012Y-72599988D02*
X210850012Y-66450012D01*
D27*
%TO.N,GND*%
X204000000Y-61400000D02*
X203400000Y-62000000D01*
X216000000Y-57500004D02*
X216050004Y-57450000D01*
D28*
X218000000Y-62250000D02*
X217875000Y-62375000D01*
D27*
X204550000Y-60325000D02*
X204000000Y-60875000D01*
X205550000Y-68775000D02*
X206425000Y-68775000D01*
X210575000Y-57075000D02*
X210150000Y-56650000D01*
D28*
X218000000Y-60150000D02*
X218000000Y-62250000D01*
D27*
X206425000Y-68775000D02*
X206650000Y-68550000D01*
D26*
X206625000Y-64250000D02*
X206625000Y-65125000D01*
D28*
X217875000Y-62375000D02*
X216000000Y-62375000D01*
D26*
X206625000Y-65725000D02*
X207000000Y-66100000D01*
X206625000Y-65125000D02*
X206625000Y-65725000D01*
D27*
X205887500Y-60325000D02*
X204550000Y-60325000D01*
X216000000Y-58625000D02*
X216000000Y-57500004D01*
D28*
X216475000Y-58625000D02*
X218000000Y-60150000D01*
D27*
X211612500Y-57075000D02*
X210575000Y-57075000D01*
X217717280Y-62375000D02*
X218092280Y-62000000D01*
D28*
X216000000Y-58625000D02*
X216475000Y-58625000D01*
D27*
X216000000Y-62375000D02*
X217717280Y-62375000D01*
X203400000Y-62000000D02*
X203374970Y-62000000D01*
X204000000Y-60875000D02*
X204000000Y-61400000D01*
X202250000Y-60875000D02*
X204000000Y-60875000D01*
%TO.N,VBUS*%
X214250000Y-57963199D02*
X214629659Y-57583540D01*
X214250000Y-58625000D02*
X214250000Y-57963199D01*
D28*
%TO.N,Net-(D1-Pad2)*%
X228625000Y-80750000D02*
X229500000Y-80750000D01*
%TO.N,Net-(D2-Pad2)*%
X229500000Y-79250000D02*
X228500000Y-79250000D01*
%TO.N,Net-(D3-Pad2)*%
X228625000Y-77750000D02*
X229500000Y-77750000D01*
D27*
%TO.N,D+*%
X214250000Y-64125000D02*
X216000000Y-64125000D01*
D28*
X217632344Y-64125000D02*
X217700021Y-64192677D01*
D27*
X211612500Y-62925000D02*
X213050000Y-62925000D01*
D28*
X216000000Y-64125000D02*
X217632344Y-64125000D01*
D27*
X213050000Y-62925000D02*
X213750928Y-63625928D01*
D28*
X229500000Y-58750000D02*
X229500000Y-60077362D01*
X229500000Y-60077362D02*
X228844212Y-60733150D01*
D27*
X213750928Y-63625928D02*
X214250000Y-64125000D01*
D28*
%TO.N,D-*%
X207154306Y-62925000D02*
X207558248Y-63328942D01*
X217700021Y-66489841D02*
X214317283Y-66489841D01*
D27*
X205887500Y-62925000D02*
X205616790Y-63195710D01*
X200500000Y-62625000D02*
X202250000Y-62625000D01*
D28*
X212049259Y-64221817D02*
X211649260Y-63821818D01*
D27*
X205616790Y-63195710D02*
X202820710Y-63195710D01*
X202820710Y-63195710D02*
X202749072Y-63124072D01*
D28*
X205887500Y-62925000D02*
X207154306Y-62925000D01*
D27*
X202749072Y-63124072D02*
X202250000Y-62625000D01*
D28*
X214317283Y-66489841D02*
X212049259Y-64221817D01*
D27*
%TO.N,RST*%
X208755807Y-58021492D02*
X208755807Y-58006292D01*
X209500000Y-85250000D02*
X207599988Y-83349988D01*
X211750000Y-59050000D02*
X209784315Y-59050000D01*
X210000010Y-72499990D02*
X210000010Y-67414359D01*
X208755807Y-58006292D02*
X208755807Y-57440607D01*
X210000010Y-67414359D02*
X210000010Y-66848674D01*
X207599988Y-83349988D02*
X207599988Y-74900012D01*
X207599988Y-74900012D02*
X210000010Y-72499990D01*
X209784315Y-59050000D02*
X208755807Y-58021492D01*
%TO.N,SWCLK*%
X205050000Y-57075000D02*
X205887500Y-57075000D01*
X198850000Y-82080000D02*
X198850000Y-75415685D01*
X204250000Y-85250000D02*
X202020000Y-85250000D01*
X199174979Y-67309338D02*
X199174979Y-60137033D01*
X202020000Y-85250000D02*
X198850000Y-82080000D01*
X199100002Y-67950000D02*
X199100002Y-67384315D01*
X198850000Y-75415685D02*
X198850000Y-74850000D01*
X202237012Y-57075000D02*
X205050000Y-57075000D01*
X199100002Y-67384315D02*
X199174979Y-67309338D01*
X199174979Y-60137033D02*
X202237012Y-57075000D01*
%TO.N,SWDIO*%
X199750006Y-78249994D02*
X199750006Y-74515685D01*
D28*
X199750006Y-78250000D02*
X199750006Y-78295004D01*
D27*
X199674990Y-67414986D02*
X199850012Y-67590008D01*
X199674990Y-60344144D02*
X199674990Y-67414986D01*
X202294134Y-57725000D02*
X199674990Y-60344144D01*
X199850012Y-67590008D02*
X199850012Y-68584315D01*
X205887500Y-57725000D02*
X202294134Y-57725000D01*
X199750000Y-78250000D02*
X199750006Y-78249994D01*
X199850012Y-68584315D02*
X199850012Y-69150000D01*
X199750006Y-74515685D02*
X199750006Y-73950000D01*
X199750006Y-78295004D02*
X206705002Y-85250000D01*
D28*
%TO.N,RX*%
X212040000Y-81250000D02*
X212040000Y-65322560D01*
D27*
X212040000Y-65322560D02*
X210450000Y-63732560D01*
X210450000Y-63732560D02*
X210450000Y-62650000D01*
X210450000Y-62650000D02*
X210825000Y-62275000D01*
X210825000Y-62275000D02*
X211612500Y-62275000D01*
%TO.N,TX*%
X209949990Y-62442888D02*
X210767878Y-61625000D01*
X209500000Y-74798543D02*
X211450023Y-72848520D01*
X211450023Y-65439705D02*
X209949989Y-63939671D01*
X211450023Y-72848520D02*
X211450023Y-65439705D01*
X210875000Y-61625000D02*
X211612500Y-61625000D01*
X209949989Y-63939671D02*
X209949990Y-62442888D01*
X210767878Y-61625000D02*
X210875000Y-61625000D01*
D28*
X209500000Y-81250000D02*
X209500000Y-74798543D01*
D27*
%TO.N,Net-(R5-Pad1)*%
X208433821Y-60677518D02*
X208999506Y-60677518D01*
X207561339Y-61550000D02*
X208433821Y-60677518D01*
X225950012Y-80750000D02*
X225950000Y-80750012D01*
X226875000Y-80750000D02*
X225950012Y-80750000D01*
X205850000Y-61550000D02*
X207561339Y-61550000D01*
%TO.N,Net-(R6-Pad1)*%
X207643139Y-59050000D02*
X207729942Y-59136803D01*
X226875000Y-79250000D02*
X225950002Y-79250000D01*
X205850000Y-59050000D02*
X207643139Y-59050000D01*
X207729942Y-59136803D02*
X208295627Y-59136803D01*
%TO.N,Net-(R7-Pad1)*%
X207244991Y-58350000D02*
X207403375Y-58191616D01*
X205850000Y-58350000D02*
X207244991Y-58350000D01*
X226875000Y-76703737D02*
X227100031Y-76478706D01*
X207403375Y-58191616D02*
X207969060Y-58191616D01*
X226875000Y-77750000D02*
X226875000Y-76703737D01*
%TO.N,/VBUS_SENSE*%
X212350000Y-60325000D02*
X211612500Y-60325000D01*
X213599999Y-60199999D02*
X212475001Y-60199999D01*
X212475001Y-60199999D02*
X212350000Y-60325000D01*
X214250000Y-60375000D02*
X213775000Y-60375000D01*
X213775000Y-60375000D02*
X213599999Y-60199999D01*
X214250000Y-60375000D02*
X216000000Y-60375000D01*
%TO.N,BAT1+*%
X196550000Y-53950000D02*
X196450000Y-54050000D01*
X200675000Y-53950000D02*
X196550000Y-53950000D01*
D28*
%TO.N,Net-(D4-Pad2)*%
X229500000Y-82250000D02*
X228500000Y-82250000D01*
%TO.N,Net-(D5-Pad2)*%
X228625000Y-83750000D02*
X229500000Y-83750000D01*
%TO.N,Net-(D6-Pad2)*%
X229500000Y-85250000D02*
X228750000Y-85250000D01*
D29*
%TO.N,BAT2+*%
X195750000Y-72250000D02*
X195750000Y-76250000D01*
X197250000Y-72250000D02*
X195750000Y-72250000D01*
D27*
X203850000Y-66700000D02*
X203700000Y-66550000D01*
X203850000Y-68775000D02*
X203850000Y-66700000D01*
D29*
X195750000Y-76250000D02*
X192000000Y-80000000D01*
D26*
X198000000Y-72250000D02*
X203700000Y-66550000D01*
D29*
X192000000Y-80000000D02*
X190000000Y-80000000D01*
D26*
X206000000Y-66750000D02*
X205750000Y-66750000D01*
X203700000Y-66550000D02*
X205850000Y-66550000D01*
X206250000Y-67000000D02*
X206000000Y-66750000D01*
X208500000Y-67000000D02*
X206250000Y-67000000D01*
D27*
%TO.N,BAT2_V*%
X209250000Y-66280002D02*
X208550000Y-65580002D01*
X205525000Y-70525000D02*
X205550000Y-70550000D01*
X206455002Y-70525000D02*
X209250000Y-67730002D01*
X209250000Y-67730002D02*
X209250000Y-66280002D01*
X207564981Y-62275000D02*
X206625000Y-62275000D01*
X205550000Y-70525000D02*
X206455002Y-70525000D01*
X208550000Y-65580002D02*
X208550000Y-63260019D01*
X206625000Y-62275000D02*
X205887500Y-62275000D01*
X203850000Y-70525000D02*
X205525000Y-70525000D01*
X208550000Y-63260019D02*
X207564981Y-62275000D01*
%TO.N,BAT1_V*%
X204450000Y-53950000D02*
X204350000Y-53950000D01*
X207750000Y-53684311D02*
X207750000Y-54249996D01*
X212484315Y-60950000D02*
X212384315Y-61050000D01*
X212384315Y-61050000D02*
X211750000Y-61050000D01*
X207190679Y-53124990D02*
X207750000Y-53684311D01*
X213050000Y-60950000D02*
X212484315Y-60950000D01*
X204375000Y-53950000D02*
X205200010Y-53124990D01*
X202425000Y-53950000D02*
X204450000Y-53950000D01*
X205200010Y-53124990D02*
X207190679Y-53124990D01*
%TO.N,Net-(R14-Pad1)*%
X224449991Y-80349991D02*
X224449991Y-77949273D01*
X206821855Y-61029192D02*
X207221854Y-60629193D01*
X224449991Y-77949273D02*
X224449991Y-77383588D01*
X226350000Y-82250000D02*
X224449991Y-80349991D01*
X205950000Y-60950000D02*
X206029192Y-61029192D01*
X206029192Y-61029192D02*
X206821855Y-61029192D01*
X226875000Y-82250000D02*
X226350000Y-82250000D01*
%TO.N,Net-(R15-Pad1)*%
X226875000Y-83750000D02*
X226350000Y-83750000D01*
X213300011Y-57456127D02*
X213700010Y-57056128D01*
X223550000Y-74950000D02*
X223850000Y-74650000D01*
X223550000Y-77050000D02*
X223550000Y-74950000D01*
X226350000Y-83750000D02*
X223550000Y-80950000D01*
X211650000Y-58350000D02*
X212406138Y-58350000D01*
X212406138Y-58350000D02*
X213300011Y-57456127D01*
X223550000Y-80950000D02*
X223550000Y-77050000D01*
%TO.N,Net-(R16-Pad1)*%
X226875000Y-85250000D02*
X226350000Y-85250000D01*
X211612500Y-57725000D02*
X210172006Y-57725000D01*
X221928049Y-74920094D02*
X221928049Y-74354409D01*
X226350000Y-85250000D02*
X221928049Y-80828049D01*
X210172006Y-57725000D02*
X209845998Y-58051008D01*
X221928049Y-80828049D02*
X221928049Y-74920094D01*
%TD*%
%TA.AperFunction,Conductor*%
%TO.N,GND*%
G36*
X204392243Y-52872097D02*
G01*
X204087500Y-52872097D01*
X203923546Y-52888245D01*
X203765892Y-52936069D01*
X203620597Y-53013730D01*
X203493245Y-53118245D01*
X203426150Y-53200000D01*
X203373850Y-53200000D01*
X203306755Y-53118245D01*
X203179403Y-53013730D01*
X203034108Y-52936069D01*
X202876454Y-52888245D01*
X202712500Y-52872097D01*
X202137500Y-52872097D01*
X201973546Y-52888245D01*
X201815892Y-52936069D01*
X201670597Y-53013730D01*
X201550000Y-53112701D01*
X201429403Y-53013730D01*
X201284108Y-52936069D01*
X201126454Y-52888245D01*
X200962500Y-52872097D01*
X200387500Y-52872097D01*
X200223546Y-52888245D01*
X200065892Y-52936069D01*
X199920597Y-53013730D01*
X199793245Y-53118245D01*
X199726150Y-53200000D01*
X196977838Y-53200000D01*
X196923678Y-53163811D01*
X196741689Y-53088429D01*
X196548491Y-53050000D01*
X196351509Y-53050000D01*
X196158311Y-53088429D01*
X195976322Y-53163811D01*
X195812537Y-53273249D01*
X195673249Y-53412537D01*
X195563811Y-53576322D01*
X195488429Y-53758311D01*
X195450000Y-53951509D01*
X195450000Y-54148491D01*
X195488429Y-54341689D01*
X195563811Y-54523678D01*
X195673249Y-54687463D01*
X195812537Y-54826751D01*
X195976322Y-54936189D01*
X196158311Y-55011571D01*
X196351509Y-55050000D01*
X196548491Y-55050000D01*
X196741689Y-55011571D01*
X196923678Y-54936189D01*
X197087463Y-54826751D01*
X197214214Y-54700000D01*
X199726150Y-54700000D01*
X199793245Y-54781755D01*
X199920597Y-54886270D01*
X200065892Y-54963931D01*
X200223546Y-55011755D01*
X200387500Y-55027903D01*
X200962500Y-55027903D01*
X201126454Y-55011755D01*
X201284108Y-54963931D01*
X201429403Y-54886270D01*
X201550000Y-54787299D01*
X201670597Y-54886270D01*
X201815892Y-54963931D01*
X201973546Y-55011755D01*
X202137500Y-55027903D01*
X202712500Y-55027903D01*
X202876454Y-55011755D01*
X203034108Y-54963931D01*
X203179403Y-54886270D01*
X203306755Y-54781755D01*
X203373850Y-54700000D01*
X203426150Y-54700000D01*
X203493245Y-54781755D01*
X203620597Y-54886270D01*
X203765892Y-54963931D01*
X203923546Y-55011755D01*
X204087500Y-55027903D01*
X204662500Y-55027903D01*
X204826454Y-55011755D01*
X204984108Y-54963931D01*
X205129403Y-54886270D01*
X205256755Y-54781755D01*
X205361270Y-54654403D01*
X205438931Y-54509108D01*
X205486755Y-54351454D01*
X205502903Y-54187500D01*
X205502903Y-53882757D01*
X205510670Y-53874990D01*
X206822940Y-53874990D01*
X206788429Y-53958307D01*
X206750000Y-54151505D01*
X206750000Y-54348487D01*
X206788429Y-54541685D01*
X206863811Y-54723674D01*
X206973249Y-54887459D01*
X207112537Y-55026747D01*
X207276322Y-55136185D01*
X207458311Y-55211567D01*
X207651509Y-55249996D01*
X207848491Y-55249996D01*
X208041689Y-55211567D01*
X208223678Y-55136185D01*
X208387463Y-55026747D01*
X208526751Y-54887459D01*
X208636189Y-54723674D01*
X208711571Y-54541685D01*
X208750000Y-54348487D01*
X208750000Y-54151505D01*
X208711571Y-53958307D01*
X208636189Y-53776318D01*
X208526751Y-53612533D01*
X208493260Y-53579042D01*
X208489147Y-53537285D01*
X208446261Y-53395910D01*
X208376619Y-53265618D01*
X208340697Y-53221847D01*
X208306376Y-53180026D01*
X208306369Y-53180019D01*
X208282895Y-53151416D01*
X208254292Y-53127942D01*
X207826348Y-52700000D01*
X231965765Y-52700000D01*
X232251851Y-52728051D01*
X232494113Y-52801194D01*
X232717550Y-52919998D01*
X232913658Y-53079940D01*
X233074967Y-53274928D01*
X233195327Y-53497530D01*
X233270160Y-53739275D01*
X233300000Y-54023186D01*
X233300001Y-86215755D01*
X233271949Y-86501852D01*
X233198805Y-86744114D01*
X233080002Y-86967550D01*
X232920058Y-87163660D01*
X232725070Y-87324968D01*
X232502473Y-87445326D01*
X232260725Y-87520159D01*
X231976814Y-87550000D01*
X190034235Y-87550000D01*
X189748148Y-87521949D01*
X189505886Y-87448805D01*
X189282450Y-87330002D01*
X189086340Y-87170058D01*
X188925032Y-86975070D01*
X188804674Y-86752473D01*
X188729841Y-86510725D01*
X188700000Y-86226814D01*
X188700000Y-81958128D01*
X188708311Y-81961571D01*
X188901509Y-82000000D01*
X189098491Y-82000000D01*
X189291689Y-81961571D01*
X189473678Y-81886189D01*
X189500000Y-81868601D01*
X189526322Y-81886189D01*
X189708311Y-81961571D01*
X189901509Y-82000000D01*
X190098491Y-82000000D01*
X190291689Y-81961571D01*
X190473678Y-81886189D01*
X190500000Y-81868601D01*
X190526322Y-81886189D01*
X190708311Y-81961571D01*
X190901509Y-82000000D01*
X191098491Y-82000000D01*
X191291689Y-81961571D01*
X191473678Y-81886189D01*
X191637463Y-81776751D01*
X191776751Y-81637463D01*
X191801783Y-81600000D01*
X191921406Y-81600000D01*
X192000000Y-81607741D01*
X192078594Y-81600000D01*
X192078597Y-81600000D01*
X192313655Y-81576849D01*
X192615256Y-81485359D01*
X192893213Y-81336788D01*
X193136845Y-81136845D01*
X193186953Y-81075788D01*
X196825793Y-77436949D01*
X196886845Y-77386845D01*
X197086788Y-77143213D01*
X197235359Y-76865256D01*
X197326849Y-76563655D01*
X197350000Y-76328597D01*
X197350000Y-76328594D01*
X197357741Y-76250000D01*
X197350000Y-76171406D01*
X197350000Y-73847892D01*
X197563655Y-73826849D01*
X197865256Y-73735359D01*
X198143213Y-73586788D01*
X198386845Y-73386845D01*
X198586788Y-73143213D01*
X198662330Y-73001884D01*
X198776751Y-72887463D01*
X198886189Y-72723678D01*
X198961571Y-72541689D01*
X198974279Y-72477801D01*
X202772097Y-68679984D01*
X202772097Y-69062500D01*
X202788245Y-69226454D01*
X202836069Y-69384108D01*
X202913730Y-69529403D01*
X203012701Y-69650000D01*
X202913730Y-69770597D01*
X202836069Y-69915892D01*
X202788245Y-70073546D01*
X202772097Y-70237500D01*
X202772097Y-70812500D01*
X202788245Y-70976454D01*
X202836069Y-71134108D01*
X202913730Y-71279403D01*
X203018245Y-71406755D01*
X203145597Y-71511270D01*
X203290892Y-71588931D01*
X203448546Y-71636755D01*
X203612500Y-71652903D01*
X204087500Y-71652903D01*
X204251454Y-71636755D01*
X204409108Y-71588931D01*
X204554403Y-71511270D01*
X204681755Y-71406755D01*
X204700000Y-71384523D01*
X204718245Y-71406755D01*
X204845597Y-71511270D01*
X204990892Y-71588931D01*
X205148546Y-71636755D01*
X205312500Y-71652903D01*
X205787500Y-71652903D01*
X205951454Y-71636755D01*
X206109108Y-71588931D01*
X206254403Y-71511270D01*
X206381755Y-71406755D01*
X206486270Y-71279403D01*
X206488445Y-71275333D01*
X206491829Y-71275000D01*
X206491837Y-71275000D01*
X206602028Y-71264147D01*
X206743403Y-71221261D01*
X206873695Y-71151619D01*
X206987897Y-71057895D01*
X207011381Y-71029280D01*
X209250011Y-68790651D01*
X209250010Y-72189330D01*
X207095703Y-74343638D01*
X207067094Y-74367117D01*
X207043615Y-74395726D01*
X207043612Y-74395729D01*
X207020675Y-74423678D01*
X206973370Y-74481319D01*
X206952826Y-74519755D01*
X206903727Y-74611612D01*
X206860841Y-74752987D01*
X206846361Y-74900012D01*
X206849989Y-74936849D01*
X206849988Y-83313161D01*
X206846361Y-83349988D01*
X206849988Y-83386815D01*
X206849988Y-83386822D01*
X206860841Y-83497013D01*
X206903727Y-83638388D01*
X206973369Y-83768680D01*
X206999073Y-83800000D01*
X206817187Y-83800000D01*
X206537051Y-83855723D01*
X206419907Y-83904245D01*
X200500006Y-77984345D01*
X200500006Y-74614214D01*
X200526757Y-74587463D01*
X200636195Y-74423678D01*
X200711577Y-74241689D01*
X200750006Y-74048491D01*
X200750006Y-73851509D01*
X200711577Y-73658311D01*
X200636195Y-73476322D01*
X200526757Y-73312537D01*
X200387469Y-73173249D01*
X200223684Y-73063811D01*
X200041695Y-72988429D01*
X199848497Y-72950000D01*
X199651515Y-72950000D01*
X199458317Y-72988429D01*
X199276328Y-73063811D01*
X199112543Y-73173249D01*
X198973255Y-73312537D01*
X198863817Y-73476322D01*
X198788435Y-73658311D01*
X198750257Y-73850249D01*
X198558311Y-73888429D01*
X198376322Y-73963811D01*
X198212537Y-74073249D01*
X198073249Y-74212537D01*
X197963811Y-74376322D01*
X197888429Y-74558311D01*
X197850000Y-74751509D01*
X197850000Y-74948491D01*
X197888429Y-75141689D01*
X197963811Y-75323678D01*
X198073249Y-75487463D01*
X198100001Y-75514215D01*
X198100000Y-82043173D01*
X198096373Y-82080000D01*
X198100000Y-82116827D01*
X198100000Y-82116834D01*
X198110853Y-82227025D01*
X198153739Y-82368400D01*
X198223381Y-82498692D01*
X198317105Y-82612895D01*
X198345720Y-82636379D01*
X201463626Y-85754286D01*
X201487105Y-85782895D01*
X201601307Y-85876619D01*
X201731599Y-85946261D01*
X201872974Y-85989147D01*
X201983165Y-86000000D01*
X201983172Y-86000000D01*
X202020000Y-86003627D01*
X202056827Y-86000000D01*
X202967097Y-86000000D01*
X202967097Y-86100000D01*
X202978682Y-86217621D01*
X203012990Y-86330721D01*
X203068704Y-86434955D01*
X203143683Y-86526317D01*
X203235045Y-86601296D01*
X203339279Y-86657010D01*
X203452379Y-86691318D01*
X203570000Y-86702903D01*
X205270000Y-86702903D01*
X205387621Y-86691318D01*
X205500721Y-86657010D01*
X205604955Y-86601296D01*
X205696317Y-86526317D01*
X205771296Y-86434955D01*
X205827010Y-86330721D01*
X205861318Y-86217621D01*
X205862725Y-86203335D01*
X206035679Y-86376289D01*
X206273167Y-86534973D01*
X206537051Y-86644277D01*
X206817187Y-86700000D01*
X207102813Y-86700000D01*
X207382949Y-86644277D01*
X207646833Y-86534973D01*
X207884321Y-86376289D01*
X208086289Y-86174321D01*
X208230000Y-85959242D01*
X208373711Y-86174321D01*
X208575679Y-86376289D01*
X208813167Y-86534973D01*
X209077051Y-86644277D01*
X209357187Y-86700000D01*
X209642813Y-86700000D01*
X209922949Y-86644277D01*
X210186833Y-86534973D01*
X210424321Y-86376289D01*
X210626289Y-86174321D01*
X210770000Y-85959242D01*
X210913711Y-86174321D01*
X211115679Y-86376289D01*
X211353167Y-86534973D01*
X211617051Y-86644277D01*
X211897187Y-86700000D01*
X212182813Y-86700000D01*
X212462949Y-86644277D01*
X212726833Y-86534973D01*
X212964321Y-86376289D01*
X213166289Y-86174321D01*
X213324973Y-85936833D01*
X213434277Y-85672949D01*
X213490000Y-85392813D01*
X213490000Y-85107187D01*
X213434277Y-84827051D01*
X213324973Y-84563167D01*
X213166289Y-84325679D01*
X212964321Y-84123711D01*
X212726833Y-83965027D01*
X212462949Y-83855723D01*
X212182813Y-83800000D01*
X212002081Y-83800000D01*
X210880566Y-82678486D01*
X210853948Y-82646052D01*
X210742184Y-82554329D01*
X210776317Y-82526317D01*
X210851296Y-82434955D01*
X210907010Y-82330721D01*
X210941318Y-82217621D01*
X210942725Y-82203335D01*
X211115679Y-82376289D01*
X211353167Y-82534973D01*
X211617051Y-82644277D01*
X211897187Y-82700000D01*
X212182813Y-82700000D01*
X212462949Y-82644277D01*
X212726833Y-82534973D01*
X212964321Y-82376289D01*
X213166289Y-82174321D01*
X213324973Y-81936833D01*
X213434277Y-81672949D01*
X213490000Y-81392813D01*
X213490000Y-81107187D01*
X213434277Y-80827051D01*
X213324973Y-80563167D01*
X213166289Y-80325679D01*
X212964321Y-80123711D01*
X212765000Y-79990529D01*
X212765000Y-74255918D01*
X220928049Y-74255918D01*
X220928049Y-74452900D01*
X220966478Y-74646098D01*
X221041860Y-74828087D01*
X221151298Y-74991872D01*
X221178050Y-75018624D01*
X221178049Y-80791222D01*
X221174422Y-80828049D01*
X221178049Y-80864876D01*
X221178049Y-80864883D01*
X221188902Y-80975074D01*
X221231788Y-81116449D01*
X221301430Y-81246741D01*
X221395154Y-81360944D01*
X221423769Y-81384428D01*
X225793626Y-85754286D01*
X225794916Y-85755857D01*
X225811069Y-85809108D01*
X225888730Y-85954403D01*
X225993245Y-86081755D01*
X226120597Y-86186270D01*
X226265892Y-86263931D01*
X226423546Y-86311755D01*
X226587500Y-86327903D01*
X227162500Y-86327903D01*
X227326454Y-86311755D01*
X227484108Y-86263931D01*
X227629403Y-86186270D01*
X227750000Y-86087299D01*
X227870597Y-86186270D01*
X228015892Y-86263931D01*
X228173546Y-86311755D01*
X228337500Y-86327903D01*
X228912500Y-86327903D01*
X229076454Y-86311755D01*
X229234108Y-86263931D01*
X229298504Y-86229511D01*
X229401509Y-86250000D01*
X229598491Y-86250000D01*
X229791689Y-86211571D01*
X229973678Y-86136189D01*
X230137463Y-86026751D01*
X230276751Y-85887463D01*
X230386189Y-85723678D01*
X230461571Y-85541689D01*
X230500000Y-85348491D01*
X230500000Y-85151509D01*
X230461571Y-84958311D01*
X230386189Y-84776322D01*
X230276751Y-84612537D01*
X230164214Y-84500000D01*
X230276751Y-84387463D01*
X230386189Y-84223678D01*
X230461571Y-84041689D01*
X230500000Y-83848491D01*
X230500000Y-83651509D01*
X230461571Y-83458311D01*
X230386189Y-83276322D01*
X230276751Y-83112537D01*
X230164214Y-83000000D01*
X230276751Y-82887463D01*
X230386189Y-82723678D01*
X230461571Y-82541689D01*
X230500000Y-82348491D01*
X230500000Y-82151509D01*
X230461571Y-81958311D01*
X230386189Y-81776322D01*
X230276751Y-81612537D01*
X230164214Y-81500000D01*
X230276751Y-81387463D01*
X230386189Y-81223678D01*
X230461571Y-81041689D01*
X230500000Y-80848491D01*
X230500000Y-80651509D01*
X230461571Y-80458311D01*
X230386189Y-80276322D01*
X230276751Y-80112537D01*
X230164214Y-80000000D01*
X230276751Y-79887463D01*
X230386189Y-79723678D01*
X230461571Y-79541689D01*
X230500000Y-79348491D01*
X230500000Y-79151509D01*
X230461571Y-78958311D01*
X230386189Y-78776322D01*
X230276751Y-78612537D01*
X230164214Y-78500000D01*
X230276751Y-78387463D01*
X230386189Y-78223678D01*
X230461571Y-78041689D01*
X230500000Y-77848491D01*
X230500000Y-77651509D01*
X230461571Y-77458311D01*
X230386189Y-77276322D01*
X230276751Y-77112537D01*
X230137463Y-76973249D01*
X229973678Y-76863811D01*
X229791689Y-76788429D01*
X229598491Y-76750000D01*
X229401509Y-76750000D01*
X229298504Y-76770489D01*
X229234108Y-76736069D01*
X229076454Y-76688245D01*
X228912500Y-76672097D01*
X228337500Y-76672097D01*
X228173546Y-76688245D01*
X228071803Y-76719108D01*
X228100031Y-76577197D01*
X228100031Y-76380215D01*
X228061602Y-76187017D01*
X227986220Y-76005028D01*
X227876782Y-75841243D01*
X227737494Y-75701955D01*
X227573709Y-75592517D01*
X227391720Y-75517135D01*
X227198522Y-75478706D01*
X227001540Y-75478706D01*
X226808342Y-75517135D01*
X226626353Y-75592517D01*
X226462568Y-75701955D01*
X226323280Y-75841243D01*
X226213842Y-76005028D01*
X226138460Y-76187017D01*
X226100031Y-76380215D01*
X226100031Y-76577197D01*
X226122641Y-76690865D01*
X226121373Y-76703737D01*
X226125001Y-76740574D01*
X226125001Y-76811376D01*
X226120597Y-76813730D01*
X225993245Y-76918245D01*
X225888730Y-77045597D01*
X225811069Y-77190892D01*
X225763245Y-77348546D01*
X225747097Y-77512500D01*
X225747097Y-77987500D01*
X225763245Y-78151454D01*
X225796460Y-78260950D01*
X225658313Y-78288429D01*
X225476324Y-78363811D01*
X225312539Y-78473249D01*
X225199991Y-78585797D01*
X225199991Y-78047802D01*
X225226742Y-78021051D01*
X225336180Y-77857266D01*
X225411562Y-77675277D01*
X225449991Y-77482079D01*
X225449991Y-77285097D01*
X225411562Y-77091899D01*
X225336180Y-76909910D01*
X225226742Y-76746125D01*
X225087454Y-76606837D01*
X224923669Y-76497399D01*
X224741680Y-76422017D01*
X224548482Y-76383588D01*
X224351500Y-76383588D01*
X224300000Y-76393832D01*
X224300000Y-75545997D01*
X224323678Y-75536189D01*
X224487463Y-75426751D01*
X224626751Y-75287463D01*
X224736189Y-75123678D01*
X224811571Y-74941689D01*
X224850000Y-74748491D01*
X224850000Y-74551509D01*
X224811571Y-74358311D01*
X224736189Y-74176322D01*
X224626751Y-74012537D01*
X224487463Y-73873249D01*
X224323678Y-73763811D01*
X224141689Y-73688429D01*
X223948491Y-73650000D01*
X223751509Y-73650000D01*
X223558311Y-73688429D01*
X223376322Y-73763811D01*
X223212537Y-73873249D01*
X223073249Y-74012537D01*
X222963811Y-74176322D01*
X222928049Y-74262659D01*
X222928049Y-74255918D01*
X222889620Y-74062720D01*
X222814238Y-73880731D01*
X222704800Y-73716946D01*
X222565512Y-73577658D01*
X222401727Y-73468220D01*
X222219738Y-73392838D01*
X222026540Y-73354409D01*
X221829558Y-73354409D01*
X221636360Y-73392838D01*
X221454371Y-73468220D01*
X221290586Y-73577658D01*
X221151298Y-73716946D01*
X221041860Y-73880731D01*
X220966478Y-74062720D01*
X220928049Y-74255918D01*
X212765000Y-74255918D01*
X212765000Y-72901509D01*
X228450000Y-72901509D01*
X228450000Y-73098491D01*
X228488429Y-73291689D01*
X228563811Y-73473678D01*
X228673249Y-73637463D01*
X228812537Y-73776751D01*
X228976322Y-73886189D01*
X229158311Y-73961571D01*
X229351509Y-74000000D01*
X229548491Y-74000000D01*
X229741689Y-73961571D01*
X229923678Y-73886189D01*
X230087463Y-73776751D01*
X230226751Y-73637463D01*
X230336189Y-73473678D01*
X230411571Y-73291689D01*
X230450000Y-73098491D01*
X230450000Y-72901509D01*
X230411571Y-72708311D01*
X230336189Y-72526322D01*
X230226751Y-72362537D01*
X230087463Y-72223249D01*
X229923678Y-72113811D01*
X229741689Y-72038429D01*
X229548491Y-72000000D01*
X229351509Y-72000000D01*
X229158311Y-72038429D01*
X228976322Y-72113811D01*
X228812537Y-72223249D01*
X228673249Y-72362537D01*
X228563811Y-72526322D01*
X228488429Y-72708311D01*
X228450000Y-72901509D01*
X212765000Y-72901509D01*
X212765000Y-67901509D01*
X228450000Y-67901509D01*
X228450000Y-68098491D01*
X228488429Y-68291689D01*
X228563811Y-68473678D01*
X228673249Y-68637463D01*
X228812537Y-68776751D01*
X228976322Y-68886189D01*
X229158311Y-68961571D01*
X229351509Y-69000000D01*
X229548491Y-69000000D01*
X229741689Y-68961571D01*
X229923678Y-68886189D01*
X230087463Y-68776751D01*
X230226751Y-68637463D01*
X230336189Y-68473678D01*
X230411571Y-68291689D01*
X230450000Y-68098491D01*
X230450000Y-67901509D01*
X230411571Y-67708311D01*
X230336189Y-67526322D01*
X230226751Y-67362537D01*
X230087463Y-67223249D01*
X229923678Y-67113811D01*
X229741689Y-67038429D01*
X229548491Y-67000000D01*
X229351509Y-67000000D01*
X229158311Y-67038429D01*
X228976322Y-67113811D01*
X228812537Y-67223249D01*
X228673249Y-67362537D01*
X228563811Y-67526322D01*
X228488429Y-67708311D01*
X228450000Y-67901509D01*
X212765000Y-67901509D01*
X212765000Y-65962863D01*
X213779455Y-66977318D01*
X213802151Y-67004973D01*
X213829806Y-67027669D01*
X213829808Y-67027671D01*
X213873845Y-67063811D01*
X213912546Y-67095572D01*
X214038495Y-67162894D01*
X214175158Y-67204350D01*
X214281676Y-67214841D01*
X214281685Y-67214841D01*
X214317282Y-67218347D01*
X214352879Y-67214841D01*
X217010807Y-67214841D01*
X217062558Y-67266592D01*
X217226343Y-67376030D01*
X217408332Y-67451412D01*
X217601530Y-67489841D01*
X217798512Y-67489841D01*
X217991710Y-67451412D01*
X218173699Y-67376030D01*
X218337484Y-67266592D01*
X218476772Y-67127304D01*
X218586210Y-66963519D01*
X218661592Y-66781530D01*
X218700021Y-66588332D01*
X218700021Y-66391350D01*
X218661592Y-66198152D01*
X218586210Y-66016163D01*
X218476772Y-65852378D01*
X218337484Y-65713090D01*
X218173699Y-65603652D01*
X217991710Y-65528270D01*
X217798512Y-65489841D01*
X217601530Y-65489841D01*
X217408332Y-65528270D01*
X217226343Y-65603652D01*
X217062558Y-65713090D01*
X217010807Y-65764841D01*
X214617588Y-65764841D01*
X214105650Y-65252903D01*
X214487500Y-65252903D01*
X214651454Y-65236755D01*
X214809108Y-65188931D01*
X214954403Y-65111270D01*
X215081755Y-65006755D01*
X215125000Y-64954061D01*
X215168245Y-65006755D01*
X215295597Y-65111270D01*
X215440892Y-65188931D01*
X215598546Y-65236755D01*
X215762500Y-65252903D01*
X216237500Y-65252903D01*
X216401454Y-65236755D01*
X216559108Y-65188931D01*
X216704403Y-65111270D01*
X216831755Y-65006755D01*
X216936270Y-64879403D01*
X216948901Y-64855771D01*
X217062558Y-64969428D01*
X217226343Y-65078866D01*
X217408332Y-65154248D01*
X217601530Y-65192677D01*
X217798512Y-65192677D01*
X217991710Y-65154248D01*
X218173699Y-65078866D01*
X218337484Y-64969428D01*
X218476772Y-64830140D01*
X218586210Y-64666355D01*
X218661592Y-64484366D01*
X218700021Y-64291168D01*
X218700021Y-64094186D01*
X218661592Y-63900988D01*
X218586210Y-63718999D01*
X218476772Y-63555214D01*
X218337484Y-63415926D01*
X218173699Y-63306488D01*
X217991710Y-63231106D01*
X217798512Y-63192677D01*
X217601530Y-63192677D01*
X217408332Y-63231106D01*
X217226343Y-63306488D01*
X217086393Y-63400000D01*
X216951986Y-63400000D01*
X216936270Y-63370597D01*
X216831755Y-63243245D01*
X216704403Y-63138730D01*
X216559108Y-63061069D01*
X216401454Y-63013245D01*
X216237500Y-62997097D01*
X215762500Y-62997097D01*
X215598546Y-63013245D01*
X215440892Y-63061069D01*
X215295597Y-63138730D01*
X215168245Y-63243245D01*
X215125000Y-63295939D01*
X215087299Y-63250000D01*
X215186270Y-63129403D01*
X215263931Y-62984108D01*
X215311755Y-62826454D01*
X215327903Y-62662500D01*
X215327903Y-62357756D01*
X215639226Y-62046433D01*
X227800000Y-62046433D01*
X227800000Y-62233567D01*
X227836508Y-62417105D01*
X227908121Y-62589994D01*
X228012087Y-62745590D01*
X228144410Y-62877913D01*
X228300006Y-62981879D01*
X228472895Y-63053492D01*
X228656433Y-63090000D01*
X228843567Y-63090000D01*
X229027105Y-63053492D01*
X229199994Y-62981879D01*
X229355590Y-62877913D01*
X229487913Y-62745590D01*
X229591879Y-62589994D01*
X229663492Y-62417105D01*
X229700000Y-62233567D01*
X229700000Y-62046433D01*
X229663492Y-61862895D01*
X229591879Y-61690006D01*
X229487913Y-61534410D01*
X229470722Y-61517219D01*
X229481675Y-61509901D01*
X229620963Y-61370613D01*
X229730401Y-61206828D01*
X229805783Y-61024839D01*
X229844212Y-60831641D01*
X229844212Y-60758455D01*
X229987477Y-60615190D01*
X230015132Y-60592494D01*
X230040052Y-60562130D01*
X230105731Y-60482099D01*
X230173053Y-60356150D01*
X230180096Y-60332931D01*
X230214509Y-60219487D01*
X230225000Y-60112969D01*
X230225000Y-60112960D01*
X230228506Y-60077363D01*
X230225000Y-60041766D01*
X230225000Y-59439214D01*
X230276751Y-59387463D01*
X230386189Y-59223678D01*
X230461571Y-59041689D01*
X230500000Y-58848491D01*
X230500000Y-58651509D01*
X230461571Y-58458311D01*
X230386189Y-58276322D01*
X230276751Y-58112537D01*
X230137463Y-57973249D01*
X229973678Y-57863811D01*
X229791689Y-57788429D01*
X229598491Y-57750000D01*
X229401509Y-57750000D01*
X229208311Y-57788429D01*
X229026322Y-57863811D01*
X228862537Y-57973249D01*
X228723249Y-58112537D01*
X228613811Y-58276322D01*
X228538429Y-58458311D01*
X228500000Y-58651509D01*
X228500000Y-58848491D01*
X228538429Y-59041689D01*
X228613811Y-59223678D01*
X228723249Y-59387463D01*
X228775001Y-59439215D01*
X228775001Y-59733150D01*
X228745721Y-59733150D01*
X228552523Y-59771579D01*
X228370534Y-59846961D01*
X228206749Y-59956399D01*
X228067461Y-60095687D01*
X227958023Y-60259472D01*
X227882641Y-60441461D01*
X227844212Y-60634659D01*
X227844212Y-60831641D01*
X227882641Y-61024839D01*
X227958023Y-61206828D01*
X228067461Y-61370613D01*
X228121673Y-61424825D01*
X228012087Y-61534410D01*
X227908121Y-61690006D01*
X227836508Y-61862895D01*
X227800000Y-62046433D01*
X215639226Y-62046433D01*
X215685650Y-62000010D01*
X216463163Y-62000010D01*
X216499990Y-62003637D01*
X216536817Y-62000010D01*
X216536825Y-62000010D01*
X216647016Y-61989157D01*
X216788391Y-61946271D01*
X216918683Y-61876629D01*
X217032885Y-61782905D01*
X217056369Y-61754290D01*
X217329290Y-61481369D01*
X217357905Y-61457885D01*
X217451629Y-61343683D01*
X217521271Y-61213391D01*
X217564157Y-61072016D01*
X217575010Y-60961825D01*
X217575010Y-60961818D01*
X217578637Y-60924990D01*
X217575010Y-60888162D01*
X217575010Y-59861838D01*
X217578637Y-59825010D01*
X217575010Y-59788182D01*
X217575010Y-59788175D01*
X217564157Y-59677984D01*
X217521271Y-59536609D01*
X217451629Y-59406317D01*
X217357905Y-59292115D01*
X217329292Y-59268633D01*
X217056379Y-58995720D01*
X217032895Y-58967105D01*
X216918693Y-58873381D01*
X216788401Y-58803739D01*
X216647026Y-58760853D01*
X216536835Y-58750000D01*
X216536827Y-58750000D01*
X216500000Y-58746373D01*
X216463173Y-58750000D01*
X215327903Y-58750000D01*
X215327903Y-58337500D01*
X215324497Y-58302916D01*
X215406410Y-58221003D01*
X215515848Y-58057218D01*
X215591230Y-57875229D01*
X215629659Y-57682031D01*
X215629659Y-57485049D01*
X215591230Y-57291851D01*
X215515848Y-57109862D01*
X215406410Y-56946077D01*
X215267122Y-56806789D01*
X215103337Y-56697351D01*
X214921348Y-56621969D01*
X214728150Y-56583540D01*
X214586650Y-56583540D01*
X214586199Y-56582450D01*
X214476761Y-56418665D01*
X214337473Y-56279377D01*
X214318101Y-56266433D01*
X227800000Y-56266433D01*
X227800000Y-56453567D01*
X227836508Y-56637105D01*
X227908121Y-56809994D01*
X228012087Y-56965590D01*
X228144410Y-57097913D01*
X228300006Y-57201879D01*
X228472895Y-57273492D01*
X228656433Y-57310000D01*
X228843567Y-57310000D01*
X229027105Y-57273492D01*
X229199994Y-57201879D01*
X229355590Y-57097913D01*
X229487913Y-56965590D01*
X229591879Y-56809994D01*
X229663492Y-56637105D01*
X229700000Y-56453567D01*
X229700000Y-56266433D01*
X229663492Y-56082895D01*
X229591879Y-55910006D01*
X229487913Y-55754410D01*
X229355590Y-55622087D01*
X229199994Y-55518121D01*
X229027105Y-55446508D01*
X228843567Y-55410000D01*
X228656433Y-55410000D01*
X228472895Y-55446508D01*
X228300006Y-55518121D01*
X228144410Y-55622087D01*
X228012087Y-55754410D01*
X227908121Y-55910006D01*
X227836508Y-56082895D01*
X227800000Y-56266433D01*
X214318101Y-56266433D01*
X214173688Y-56169939D01*
X213991699Y-56094557D01*
X213798501Y-56056128D01*
X213601519Y-56056128D01*
X213408321Y-56094557D01*
X213226332Y-56169939D01*
X213062547Y-56279377D01*
X212923259Y-56418665D01*
X212813821Y-56582450D01*
X212738439Y-56764439D01*
X212700010Y-56957637D01*
X212700010Y-56995467D01*
X212648425Y-57047052D01*
X212640512Y-57040558D01*
X212518989Y-56975602D01*
X212387130Y-56935603D01*
X212250000Y-56922097D01*
X210975000Y-56922097D01*
X210837870Y-56935603D01*
X210707996Y-56975000D01*
X210208833Y-56975000D01*
X210172006Y-56971373D01*
X210135178Y-56975000D01*
X210135171Y-56975000D01*
X210024980Y-56985853D01*
X209883605Y-57028739D01*
X209841942Y-57051008D01*
X209747507Y-57051008D01*
X209682203Y-57063998D01*
X209641996Y-56966929D01*
X209532558Y-56803144D01*
X209393270Y-56663856D01*
X209229485Y-56554418D01*
X209047496Y-56479036D01*
X208854298Y-56440607D01*
X208657316Y-56440607D01*
X208464118Y-56479036D01*
X208282129Y-56554418D01*
X208118344Y-56663856D01*
X207979056Y-56803144D01*
X207869618Y-56966929D01*
X207794236Y-57148918D01*
X207782249Y-57209184D01*
X207677371Y-57230045D01*
X207495382Y-57305427D01*
X207331597Y-57414865D01*
X207298106Y-57448356D01*
X207256349Y-57452469D01*
X207208098Y-57467106D01*
X207187742Y-57400000D01*
X207214397Y-57312130D01*
X207227903Y-57175000D01*
X207227903Y-56975000D01*
X207214397Y-56837870D01*
X207174398Y-56706011D01*
X207109442Y-56584488D01*
X207022027Y-56477973D01*
X206915512Y-56390558D01*
X206793989Y-56325602D01*
X206662130Y-56285603D01*
X206525000Y-56272097D01*
X205250000Y-56272097D01*
X205112870Y-56285603D01*
X204982996Y-56325000D01*
X202273840Y-56325000D01*
X202237012Y-56321373D01*
X202200184Y-56325000D01*
X202200177Y-56325000D01*
X202089986Y-56335853D01*
X201948611Y-56378739D01*
X201818319Y-56448381D01*
X201704117Y-56542105D01*
X201680638Y-56570714D01*
X198670694Y-59580659D01*
X198642085Y-59604138D01*
X198618606Y-59632747D01*
X198618603Y-59632750D01*
X198597967Y-59657895D01*
X198548361Y-59718340D01*
X198518468Y-59774266D01*
X198478718Y-59848633D01*
X198435832Y-59990008D01*
X198421352Y-60137033D01*
X198424980Y-60173870D01*
X198424979Y-67056181D01*
X198403741Y-67095914D01*
X198360855Y-67237289D01*
X198356742Y-67279046D01*
X198323251Y-67312537D01*
X198213813Y-67476322D01*
X198138431Y-67658311D01*
X198100002Y-67851509D01*
X198100002Y-68048491D01*
X198138431Y-68241689D01*
X198213813Y-68423678D01*
X198323251Y-68587463D01*
X198462539Y-68726751D01*
X198626324Y-68836189D01*
X198808313Y-68911571D01*
X198875201Y-68924876D01*
X198850012Y-69051509D01*
X198850012Y-69248491D01*
X198888441Y-69441689D01*
X198963823Y-69623678D01*
X199073261Y-69787463D01*
X199166859Y-69881061D01*
X198137670Y-70910249D01*
X197865256Y-70764641D01*
X197563655Y-70673151D01*
X197328597Y-70650000D01*
X195828596Y-70650000D01*
X195750000Y-70642259D01*
X195671403Y-70650000D01*
X195436345Y-70673151D01*
X195134744Y-70764641D01*
X194856787Y-70913212D01*
X194613155Y-71113155D01*
X194413212Y-71356787D01*
X194337670Y-71498116D01*
X194223249Y-71612537D01*
X194113811Y-71776322D01*
X194038429Y-71958311D01*
X194000000Y-72151509D01*
X194000000Y-72348491D01*
X194038429Y-72541689D01*
X194113811Y-72723678D01*
X194150000Y-72777839D01*
X194150001Y-75587257D01*
X191563458Y-78173800D01*
X191473678Y-78113811D01*
X191291689Y-78038429D01*
X191098491Y-78000000D01*
X190901509Y-78000000D01*
X190708311Y-78038429D01*
X190526322Y-78113811D01*
X190500000Y-78131399D01*
X190473678Y-78113811D01*
X190291689Y-78038429D01*
X190098491Y-78000000D01*
X189901509Y-78000000D01*
X189708311Y-78038429D01*
X189526322Y-78113811D01*
X189500000Y-78131399D01*
X189473678Y-78113811D01*
X189291689Y-78038429D01*
X189098491Y-78000000D01*
X188901509Y-78000000D01*
X188708311Y-78038429D01*
X188700000Y-78041872D01*
X188700000Y-74958128D01*
X188708311Y-74961571D01*
X188901509Y-75000000D01*
X189098491Y-75000000D01*
X189291689Y-74961571D01*
X189473678Y-74886189D01*
X189500000Y-74868601D01*
X189526322Y-74886189D01*
X189708311Y-74961571D01*
X189901509Y-75000000D01*
X190098491Y-75000000D01*
X190291689Y-74961571D01*
X190473678Y-74886189D01*
X190500000Y-74868601D01*
X190526322Y-74886189D01*
X190708311Y-74961571D01*
X190901509Y-75000000D01*
X191098491Y-75000000D01*
X191291689Y-74961571D01*
X191473678Y-74886189D01*
X191637463Y-74776751D01*
X191776751Y-74637463D01*
X191886189Y-74473678D01*
X191961571Y-74291689D01*
X192000000Y-74098491D01*
X192000000Y-73901509D01*
X191961571Y-73708311D01*
X191886189Y-73526322D01*
X191868601Y-73500000D01*
X191886189Y-73473678D01*
X191961571Y-73291689D01*
X192000000Y-73098491D01*
X192000000Y-72901509D01*
X191961571Y-72708311D01*
X191886189Y-72526322D01*
X191868601Y-72500000D01*
X191886189Y-72473678D01*
X191961571Y-72291689D01*
X192000000Y-72098491D01*
X192000000Y-71901509D01*
X191961571Y-71708311D01*
X191886189Y-71526322D01*
X191776751Y-71362537D01*
X191637463Y-71223249D01*
X191473678Y-71113811D01*
X191291689Y-71038429D01*
X191098491Y-71000000D01*
X190901509Y-71000000D01*
X190708311Y-71038429D01*
X190526322Y-71113811D01*
X190500000Y-71131399D01*
X190473678Y-71113811D01*
X190291689Y-71038429D01*
X190098491Y-71000000D01*
X189901509Y-71000000D01*
X189708311Y-71038429D01*
X189526322Y-71113811D01*
X189500000Y-71131399D01*
X189473678Y-71113811D01*
X189291689Y-71038429D01*
X189098491Y-71000000D01*
X188901509Y-71000000D01*
X188708311Y-71038429D01*
X188700000Y-71041872D01*
X188700000Y-68958128D01*
X188708311Y-68961571D01*
X188901509Y-69000000D01*
X189098491Y-69000000D01*
X189291689Y-68961571D01*
X189473678Y-68886189D01*
X189500000Y-68868601D01*
X189526322Y-68886189D01*
X189708311Y-68961571D01*
X189901509Y-69000000D01*
X190098491Y-69000000D01*
X190291689Y-68961571D01*
X190473678Y-68886189D01*
X190500000Y-68868601D01*
X190526322Y-68886189D01*
X190708311Y-68961571D01*
X190901509Y-69000000D01*
X191098491Y-69000000D01*
X191291689Y-68961571D01*
X191473678Y-68886189D01*
X191637463Y-68776751D01*
X191776751Y-68637463D01*
X191886189Y-68473678D01*
X191961571Y-68291689D01*
X192000000Y-68098491D01*
X192000000Y-67901509D01*
X191961571Y-67708311D01*
X191886189Y-67526322D01*
X191868601Y-67500000D01*
X191886189Y-67473678D01*
X191961571Y-67291689D01*
X192000000Y-67098491D01*
X192000000Y-66901509D01*
X191961571Y-66708311D01*
X191886189Y-66526322D01*
X191868601Y-66500000D01*
X191886189Y-66473678D01*
X191961571Y-66291689D01*
X192000000Y-66098491D01*
X192000000Y-65901509D01*
X191961571Y-65708311D01*
X191886189Y-65526322D01*
X191776751Y-65362537D01*
X191637463Y-65223249D01*
X191473678Y-65113811D01*
X191291689Y-65038429D01*
X191098491Y-65000000D01*
X190901509Y-65000000D01*
X190708311Y-65038429D01*
X190526322Y-65113811D01*
X190500000Y-65131399D01*
X190473678Y-65113811D01*
X190291689Y-65038429D01*
X190098491Y-65000000D01*
X189901509Y-65000000D01*
X189708311Y-65038429D01*
X189526322Y-65113811D01*
X189500000Y-65131399D01*
X189473678Y-65113811D01*
X189291689Y-65038429D01*
X189098491Y-65000000D01*
X188901509Y-65000000D01*
X188708311Y-65038429D01*
X188700000Y-65041872D01*
X188700000Y-61958128D01*
X188708311Y-61961571D01*
X188901509Y-62000000D01*
X189098491Y-62000000D01*
X189291689Y-61961571D01*
X189473678Y-61886189D01*
X189500000Y-61868601D01*
X189526322Y-61886189D01*
X189708311Y-61961571D01*
X189901509Y-62000000D01*
X190098491Y-62000000D01*
X190291689Y-61961571D01*
X190473678Y-61886189D01*
X190500000Y-61868601D01*
X190526322Y-61886189D01*
X190708311Y-61961571D01*
X190901509Y-62000000D01*
X191098491Y-62000000D01*
X191291689Y-61961571D01*
X191473678Y-61886189D01*
X191637463Y-61776751D01*
X191776751Y-61637463D01*
X191886189Y-61473678D01*
X191961571Y-61291689D01*
X192000000Y-61098491D01*
X192000000Y-60901509D01*
X191961571Y-60708311D01*
X191886189Y-60526322D01*
X191868601Y-60500000D01*
X191886189Y-60473678D01*
X191961571Y-60291689D01*
X192000000Y-60098491D01*
X192000000Y-59901509D01*
X191961571Y-59708311D01*
X191886189Y-59526322D01*
X191868601Y-59500000D01*
X191886189Y-59473678D01*
X191961571Y-59291689D01*
X192000000Y-59098491D01*
X192000000Y-58901509D01*
X191961571Y-58708311D01*
X191886189Y-58526322D01*
X191776751Y-58362537D01*
X191637463Y-58223249D01*
X191473678Y-58113811D01*
X191291689Y-58038429D01*
X191098491Y-58000000D01*
X190901509Y-58000000D01*
X190708311Y-58038429D01*
X190526322Y-58113811D01*
X190500000Y-58131399D01*
X190473678Y-58113811D01*
X190291689Y-58038429D01*
X190098491Y-58000000D01*
X189901509Y-58000000D01*
X189708311Y-58038429D01*
X189526322Y-58113811D01*
X189500000Y-58131399D01*
X189473678Y-58113811D01*
X189291689Y-58038429D01*
X189098491Y-58000000D01*
X188901509Y-58000000D01*
X188708311Y-58038429D01*
X188700000Y-58041872D01*
X188700000Y-54034235D01*
X188728051Y-53748149D01*
X188801194Y-53505887D01*
X188919998Y-53282450D01*
X189079940Y-53086342D01*
X189274928Y-52925033D01*
X189497530Y-52804673D01*
X189739275Y-52729840D01*
X190023186Y-52700000D01*
X204564339Y-52700000D01*
X204392243Y-52872097D01*
G37*
%TD.AperFunction*%
%TA.AperFunction,Conductor*%
G36*
X204918245Y-67506755D02*
G01*
X205045597Y-67611270D01*
X205190892Y-67688931D01*
X205348546Y-67736755D01*
X205512500Y-67752903D01*
X205855432Y-67752903D01*
X205923145Y-67789097D01*
X206083371Y-67837700D01*
X206208251Y-67850000D01*
X206208261Y-67850000D01*
X206249999Y-67854111D01*
X206291737Y-67850000D01*
X207652085Y-67850000D01*
X207673683Y-67876317D01*
X207765045Y-67951296D01*
X207869279Y-68007010D01*
X207902312Y-68017030D01*
X206323723Y-69595620D01*
X206254403Y-69538730D01*
X206109108Y-69461069D01*
X205951454Y-69413245D01*
X205787500Y-69397097D01*
X205312500Y-69397097D01*
X205148546Y-69413245D01*
X204990892Y-69461069D01*
X204845597Y-69538730D01*
X204718245Y-69643245D01*
X204700000Y-69665477D01*
X204687299Y-69650000D01*
X204786270Y-69529403D01*
X204863931Y-69384108D01*
X204911755Y-69226454D01*
X204927903Y-69062500D01*
X204927903Y-68487500D01*
X204911755Y-68323546D01*
X204863931Y-68165892D01*
X204786270Y-68020597D01*
X204681755Y-67893245D01*
X204600000Y-67826150D01*
X204600000Y-67400000D01*
X204830634Y-67400000D01*
X204918245Y-67506755D01*
G37*
%TD.AperFunction*%
%TA.AperFunction,Conductor*%
G36*
X201418245Y-63506755D02*
G01*
X201545597Y-63611270D01*
X201690892Y-63688931D01*
X201848546Y-63736755D01*
X202012500Y-63752903D01*
X202317422Y-63752903D01*
X202402017Y-63822329D01*
X202532309Y-63891971D01*
X202673684Y-63934857D01*
X202783875Y-63945710D01*
X202783884Y-63945710D01*
X202820709Y-63949337D01*
X202857534Y-63945710D01*
X205579963Y-63945710D01*
X205616790Y-63949337D01*
X205653617Y-63945710D01*
X205653625Y-63945710D01*
X205763816Y-63934857D01*
X205905191Y-63891971D01*
X206035483Y-63822329D01*
X206149685Y-63728605D01*
X206150261Y-63727903D01*
X206525000Y-63727903D01*
X206636559Y-63716915D01*
X206672059Y-63802620D01*
X206781497Y-63966405D01*
X206920785Y-64105693D01*
X207084570Y-64215131D01*
X207266559Y-64290513D01*
X207459757Y-64328942D01*
X207656739Y-64328942D01*
X207800001Y-64300446D01*
X207800000Y-65543174D01*
X207796373Y-65580002D01*
X207800000Y-65616829D01*
X207800000Y-65616836D01*
X207810853Y-65727027D01*
X207853739Y-65868402D01*
X207913209Y-65979664D01*
X207869279Y-65992990D01*
X207765045Y-66048704D01*
X207673683Y-66123683D01*
X207652085Y-66150000D01*
X206804612Y-66150000D01*
X206763931Y-66015892D01*
X206686270Y-65870597D01*
X206581755Y-65743245D01*
X206454403Y-65638730D01*
X206309108Y-65561069D01*
X206151454Y-65513245D01*
X205987500Y-65497097D01*
X205512500Y-65497097D01*
X205348546Y-65513245D01*
X205190892Y-65561069D01*
X205045597Y-65638730D01*
X204970939Y-65700000D01*
X203741737Y-65700000D01*
X203699999Y-65695889D01*
X203658261Y-65700000D01*
X203658251Y-65700000D01*
X203533371Y-65712300D01*
X203373145Y-65760903D01*
X203225481Y-65839832D01*
X203096052Y-65946052D01*
X203069439Y-65978480D01*
X200600012Y-68447907D01*
X200600012Y-67626824D01*
X200603638Y-67590007D01*
X200600012Y-67553190D01*
X200600012Y-67553173D01*
X200589159Y-67442982D01*
X200546273Y-67301607D01*
X200476631Y-67171315D01*
X200424990Y-67108391D01*
X200424990Y-63752903D01*
X200737500Y-63752903D01*
X200901454Y-63736755D01*
X201059108Y-63688931D01*
X201204403Y-63611270D01*
X201331755Y-63506755D01*
X201375000Y-63454061D01*
X201418245Y-63506755D01*
G37*
%TD.AperFunction*%
%TA.AperFunction,Conductor*%
G36*
X203063730Y-59879403D02*
G01*
X203168245Y-60006755D01*
X203295597Y-60111270D01*
X203440892Y-60188931D01*
X203598546Y-60236755D01*
X203762500Y-60252903D01*
X204071946Y-60252903D01*
X204090257Y-60267930D01*
X204131307Y-60301619D01*
X204261599Y-60371261D01*
X204402974Y-60414147D01*
X204513165Y-60425000D01*
X204513174Y-60425000D01*
X204549999Y-60428627D01*
X204586824Y-60425000D01*
X204714379Y-60425000D01*
X204665558Y-60484488D01*
X204600602Y-60606011D01*
X204560603Y-60737870D01*
X204547097Y-60875000D01*
X204547097Y-61075000D01*
X204560603Y-61212130D01*
X204587258Y-61300000D01*
X204560603Y-61387870D01*
X204547097Y-61525000D01*
X204547097Y-61725000D01*
X204560603Y-61862130D01*
X204587258Y-61950000D01*
X204560603Y-62037870D01*
X204547097Y-62175000D01*
X204547097Y-62375000D01*
X204554061Y-62445710D01*
X203327903Y-62445710D01*
X203327903Y-62337500D01*
X203311755Y-62173546D01*
X203263931Y-62015892D01*
X203186270Y-61870597D01*
X203081755Y-61743245D01*
X202954403Y-61638730D01*
X202809108Y-61561069D01*
X202651454Y-61513245D01*
X202487500Y-61497097D01*
X202012500Y-61497097D01*
X201848546Y-61513245D01*
X201690892Y-61561069D01*
X201545597Y-61638730D01*
X201418245Y-61743245D01*
X201375000Y-61795939D01*
X201337299Y-61750000D01*
X201436270Y-61629403D01*
X201513931Y-61484108D01*
X201561755Y-61326454D01*
X201577903Y-61162500D01*
X201577903Y-60857756D01*
X202560660Y-59875000D01*
X203061377Y-59875000D01*
X203063730Y-59879403D01*
G37*
%TD.AperFunction*%
%TD*%
%TA.AperFunction,Conductor*%
%TO.N,/MID*%
G36*
X127617547Y-66590000D02*
G01*
X127639307Y-66810931D01*
X127703750Y-67023371D01*
X127808400Y-67219157D01*
X127949235Y-67390765D01*
X128120843Y-67531600D01*
X128316629Y-67636250D01*
X128529069Y-67700693D01*
X128750000Y-67722453D01*
X134750000Y-67722453D01*
X134773000Y-67720188D01*
X134773001Y-72619812D01*
X134750000Y-72617547D01*
X128750000Y-72617547D01*
X128529069Y-72639307D01*
X128316629Y-72703750D01*
X128120843Y-72808400D01*
X127949235Y-72949235D01*
X127808400Y-73120843D01*
X127703750Y-73316629D01*
X127639307Y-73529069D01*
X127617547Y-73750000D01*
X127617547Y-76623000D01*
X127000000Y-76623000D01*
X126975224Y-76625440D01*
X126951399Y-76632667D01*
X126929443Y-76644403D01*
X126910197Y-76660197D01*
X126894403Y-76679443D01*
X126882667Y-76701399D01*
X126875440Y-76725224D01*
X126873000Y-76750000D01*
X126873000Y-82274811D01*
X126807392Y-82373000D01*
X118227000Y-82373000D01*
X118227000Y-75576130D01*
X118518810Y-75771111D01*
X119087888Y-76006831D01*
X119692017Y-76127000D01*
X120307983Y-76127000D01*
X120912112Y-76006831D01*
X121481190Y-75771111D01*
X121993346Y-75428899D01*
X122428899Y-74993346D01*
X122771111Y-74481190D01*
X123006831Y-73912112D01*
X123127000Y-73307983D01*
X123127000Y-72692017D01*
X123006831Y-72087888D01*
X122771111Y-71518810D01*
X122428899Y-71006654D01*
X121993346Y-70571101D01*
X121481190Y-70228889D01*
X120912112Y-69993169D01*
X120307983Y-69873000D01*
X119692017Y-69873000D01*
X119087888Y-69993169D01*
X118518810Y-70228889D01*
X118227000Y-70423870D01*
X118227000Y-64627000D01*
X127617547Y-64627000D01*
X127617547Y-66590000D01*
G37*
%TD.AperFunction*%
%TD*%
%TA.AperFunction,Conductor*%
%TO.N,/BP_B2+*%
G36*
X37705161Y-32333456D02*
G01*
X37461226Y-32789827D01*
X37311011Y-33285018D01*
X37260290Y-33800000D01*
X37311011Y-34314982D01*
X37461226Y-34810173D01*
X37705161Y-35266544D01*
X38033443Y-35666557D01*
X38433456Y-35994839D01*
X38889827Y-36238774D01*
X39385018Y-36388989D01*
X39770952Y-36427000D01*
X41029048Y-36427000D01*
X41414982Y-36388989D01*
X41910173Y-36238774D01*
X42366544Y-35994839D01*
X42766557Y-35666557D01*
X43094839Y-35266544D01*
X43338774Y-34810173D01*
X43488989Y-34314982D01*
X43539710Y-33800000D01*
X43488989Y-33285018D01*
X43338774Y-32789827D01*
X43094839Y-32333456D01*
X43007473Y-32227000D01*
X68773000Y-32227000D01*
X68773000Y-57736233D01*
X68615409Y-57630934D01*
X68282916Y-57493211D01*
X67929944Y-57423000D01*
X67570056Y-57423000D01*
X67217084Y-57493211D01*
X67000000Y-57583130D01*
X66782916Y-57493211D01*
X66429944Y-57423000D01*
X66070056Y-57423000D01*
X65717084Y-57493211D01*
X65500000Y-57583130D01*
X65282916Y-57493211D01*
X64929944Y-57423000D01*
X64570056Y-57423000D01*
X64217084Y-57493211D01*
X64000000Y-57583130D01*
X63782916Y-57493211D01*
X63429944Y-57423000D01*
X63070056Y-57423000D01*
X62717084Y-57493211D01*
X62500000Y-57583130D01*
X62282916Y-57493211D01*
X61929944Y-57423000D01*
X61570056Y-57423000D01*
X61217084Y-57493211D01*
X61000000Y-57583130D01*
X60782916Y-57493211D01*
X60429944Y-57423000D01*
X60070056Y-57423000D01*
X59717084Y-57493211D01*
X59500000Y-57583130D01*
X59282916Y-57493211D01*
X58929944Y-57423000D01*
X58570056Y-57423000D01*
X58217084Y-57493211D01*
X58000000Y-57583130D01*
X57782916Y-57493211D01*
X57429944Y-57423000D01*
X57070056Y-57423000D01*
X56717084Y-57493211D01*
X56384591Y-57630934D01*
X56085355Y-57830876D01*
X55830876Y-58085355D01*
X55630934Y-58384591D01*
X55493211Y-58717084D01*
X55423000Y-59070056D01*
X55423000Y-59170455D01*
X55357853Y-59206028D01*
X55342610Y-59215824D01*
X55114171Y-59386832D01*
X55100476Y-59398698D01*
X54898698Y-59600476D01*
X54886832Y-59614171D01*
X54715824Y-59842610D01*
X54706028Y-59857853D01*
X54569271Y-60108305D01*
X54561743Y-60124788D01*
X54462021Y-60392153D01*
X54456916Y-60409539D01*
X54396259Y-60688374D01*
X54393681Y-60706310D01*
X54373324Y-60990940D01*
X54373000Y-61000000D01*
X54373000Y-75000000D01*
X54373324Y-75009060D01*
X54393681Y-75293690D01*
X54396259Y-75311626D01*
X54456916Y-75590461D01*
X54462021Y-75607847D01*
X54561743Y-75875212D01*
X54569271Y-75891695D01*
X54706028Y-76142147D01*
X54715824Y-76157390D01*
X54886832Y-76385829D01*
X54898698Y-76399524D01*
X55100476Y-76601302D01*
X55114171Y-76613168D01*
X55342610Y-76784176D01*
X55357853Y-76793972D01*
X55608305Y-76930729D01*
X55624788Y-76938257D01*
X55892153Y-77037979D01*
X55909539Y-77043084D01*
X56188374Y-77103741D01*
X56206310Y-77106319D01*
X56490940Y-77126676D01*
X56500000Y-77127000D01*
X67995470Y-77127000D01*
X68266504Y-77146385D01*
X68527593Y-77203181D01*
X68773001Y-77294714D01*
X68773001Y-82705286D01*
X68527593Y-82796819D01*
X68266504Y-82853615D01*
X67995470Y-82873000D01*
X39004530Y-82873000D01*
X38733496Y-82853615D01*
X38472407Y-82796819D01*
X38222060Y-82703444D01*
X37987555Y-82575395D01*
X37773662Y-82415276D01*
X37584724Y-82226338D01*
X37424605Y-82012445D01*
X37296556Y-81777940D01*
X37203181Y-81527593D01*
X37146385Y-81266504D01*
X37127000Y-80995470D01*
X37127000Y-33004530D01*
X37146385Y-32733496D01*
X37203181Y-32472407D01*
X37294713Y-32227000D01*
X37792527Y-32227000D01*
X37705161Y-32333456D01*
G37*
%TD.AperFunction*%
%TD*%
M02*
