%TF.GenerationSoftware,KiCad,Pcbnew,8.0.8+1*%
%TF.CreationDate,2026-09-06T11:37:41+00:00*%
%TF.ProjectId,batteryPack,62617474-6572-4795-9061-636b2e6b6963,rev?*%
%TF.SameCoordinates,Original*%
%TF.FileFunction,Copper,L1,Top*%
%TF.FilePolarity,Positive*%
%FSLAX46Y46*%
G04 Gerber Fmt 4.6, Leading zero omitted, Abs format (unit mm)*
G04 Created by KiCad (PCBNEW 8.0.8+1) date 2026-09-06 11:37:41*
%MOMM*%
%LPD*%
G01*
G04 APERTURE LIST*
G04 Aperture macros list*
%AMRoundRect*
0 Rectangle with rounded corners*
0 $1 Rounding radius*
0 $2 $3 $4 $5 $6 $7 $8 $9 X,Y pos of 4 corners*
0 Add a 4 corners polygon primitive as box body*
4,1,4,$2,$3,$4,$5,$6,$7,$8,$9,$2,$3,0*
0 Add four circle primitives for the rounded corners*
1,1,$1+$1,$2,$3*
1,1,$1+$1,$4,$5*
1,1,$1+$1,$6,$7*
1,1,$1+$1,$8,$9*
0 Add four rect primitives between the rounded corners*
20,1,$1+$1,$2,$3,$4,$5,0*
20,1,$1+$1,$4,$5,$6,$7,0*
20,1,$1+$1,$6,$7,$8,$9,0*
20,1,$1+$1,$8,$9,$2,$3,0*%
G04 Aperture macros list end*
%TA.AperFunction,SMDPad,CuDef*%
%ADD10R,1.300000X0.450000*%
%TD*%
%TA.AperFunction,ComponentPad*%
%ADD11C,1.800000*%
%TD*%
%TA.AperFunction,ComponentPad*%
%ADD12C,2.000000*%
%TD*%
%TA.AperFunction,SMDPad,CuDef*%
%ADD13R,15.000000X3.000000*%
%TD*%
%TA.AperFunction,SMDPad,CuDef*%
%ADD14R,2.000000X0.300000*%
%TD*%
%TA.AperFunction,ComponentPad*%
%ADD15O,2.100000X1.000000*%
%TD*%
%TA.AperFunction,ComponentPad*%
%ADD16O,1.800000X1.000000*%
%TD*%
%TA.AperFunction,SMDPad,CuDef*%
%ADD17R,5.000000X2.000000*%
%TD*%
%TA.AperFunction,SMDPad,CuDef*%
%ADD18R,5.500000X1.500000*%
%TD*%
%TA.AperFunction,ComponentPad*%
%ADD19C,4.000000*%
%TD*%
%TA.AperFunction,ComponentPad*%
%ADD20R,6.000000X3.000000*%
%TD*%
%TA.AperFunction,SMDPad,CuDef*%
%ADD21RoundRect,0.237500X0.287500X0.237500X-0.287500X0.237500X-0.287500X-0.237500X0.287500X-0.237500X0*%
%TD*%
%TA.AperFunction,SMDPad,CuDef*%
%ADD22R,3.500000X3.000000*%
%TD*%
%TA.AperFunction,ComponentPad*%
%ADD23O,4.000000X3.000000*%
%TD*%
%TA.AperFunction,ComponentPad*%
%ADD24R,1.700000X1.700000*%
%TD*%
%TA.AperFunction,ComponentPad*%
%ADD25O,1.700000X1.700000*%
%TD*%
%TA.AperFunction,ViaPad*%
%ADD26C,0.800000*%
%TD*%
%TA.AperFunction,ViaPad*%
%ADD27C,1.400000*%
%TD*%
%TA.AperFunction,Conductor*%
%ADD28C,0.250000*%
%TD*%
%TA.AperFunction,Conductor*%
%ADD29C,2.000000*%
%TD*%
%TA.AperFunction,Conductor*%
%ADD30C,0.300000*%
%TD*%
G04 APERTURE END LIST*
D10*
%TO.P,J1,1*%
%TO.N,VBUS*%
X228350000Y-71800000D03*
%TO.P,J1,2*%
%TO.N,D-*%
X228350000Y-71150000D03*
%TO.P,J1,3*%
%TO.N,D+*%
X228350000Y-70500000D03*
%TO.P,J1,4*%
%TO.N,N/C*%
X228350000Y-69850000D03*
%TO.P,J1,5*%
%TO.N,GND*%
X228350000Y-69200000D03*
D11*
%TO.P,J1,6*%
X232200000Y-74375000D03*
D12*
X228400000Y-74225000D03*
X228400000Y-66775000D03*
D11*
X232200000Y-66625000D03*
%TD*%
D13*
%TO.P,J9,1*%
%TO.N,/BP_B2+*%
X62500000Y-80000000D03*
%TD*%
%TO.P,J10,1*%
%TO.N,/BP_B1+*%
X62500000Y-60000000D03*
%TD*%
%TO.P,J11,1*%
%TO.N,/BP_B1-*%
X62500000Y-67000000D03*
%TD*%
%TO.P,J12,1*%
%TO.N,/BP_B2-*%
X62500000Y-73000000D03*
%TD*%
D14*
%TO.P,P1,A1*%
%TO.N,GND*%
X227250000Y-62600000D03*
%TO.P,P1,A4*%
%TO.N,VBUS*%
X227250000Y-61800000D03*
%TO.P,P1,A5*%
%TO.N,N/C*%
X227250000Y-60500000D03*
%TO.P,P1,A6*%
%TO.N,D+*%
X227250000Y-59500000D03*
%TO.P,P1,A7*%
%TO.N,D-*%
X227250000Y-59000000D03*
%TO.P,P1,A8*%
%TO.N,N/C*%
X227250000Y-58000000D03*
%TO.P,P1,A9*%
%TO.N,VBUS*%
X227250000Y-56700000D03*
%TO.P,P1,A12*%
%TO.N,GND*%
X227250000Y-55900000D03*
%TO.P,P1,B1*%
X227250000Y-56200000D03*
%TO.P,P1,B4*%
%TO.N,VBUS*%
X227250000Y-57000000D03*
%TO.P,P1,B5*%
%TO.N,N/C*%
X227250000Y-57500000D03*
%TO.P,P1,B6*%
%TO.N,D+*%
X227250000Y-58500000D03*
%TO.P,P1,B7*%
%TO.N,D-*%
X227250000Y-60000000D03*
%TO.P,P1,B8*%
%TO.N,N/C*%
X227250000Y-61000000D03*
%TO.P,P1,B9*%
%TO.N,VBUS*%
X227250000Y-61500000D03*
%TO.P,P1,B12*%
%TO.N,GND*%
X227250000Y-62300000D03*
D15*
%TO.P,P1,S1*%
X228250000Y-63570000D03*
D16*
X232000000Y-63500000D03*
D15*
X228250000Y-54930000D03*
D16*
X232000000Y-54930000D03*
%TD*%
D17*
%TO.P,U4,1*%
%TO.N,GND*%
X221000000Y-86250000D03*
%TO.P,U4,2*%
%TO.N,VBUS*%
X221000000Y-72250000D03*
%TO.P,U4,3*%
%TO.N,BAT2+*%
X196000000Y-72250000D03*
%TO.P,U4,4*%
%TO.N,Net-(J16-Pad1)*%
X196000000Y-86250000D03*
D18*
%TO.P,U4,5*%
%TO.N,N/C*%
X221000000Y-81250000D03*
%TO.P,U4,6*%
X221000000Y-83750000D03*
%TO.P,U4,7*%
X221000000Y-78750000D03*
%TD*%
D19*
%TO.P,J3,1*%
%TO.N,/MID*%
X120000000Y-67000000D03*
%TD*%
%TO.P,J5,1*%
%TO.N,/MID*%
X120000000Y-80000000D03*
%TD*%
D20*
%TO.P,J6,1*%
%TO.N,/OUT-*%
X131750000Y-75250000D03*
%TO.P,J6,2*%
%TO.N,/MID*%
X131750000Y-70170000D03*
%TO.P,J6,3*%
%TO.N,/OUT+*%
X131750000Y-65090000D03*
%TD*%
D19*
%TO.P,J4,1*%
%TO.N,/OUT-*%
X120000000Y-73000000D03*
%TD*%
%TO.P,J2,1*%
%TO.N,/OUT+*%
X120000000Y-60000000D03*
%TD*%
D17*
%TO.P,U1,1*%
%TO.N,GND*%
X221000000Y-68000000D03*
%TO.P,U1,2*%
%TO.N,VBUS*%
X221000000Y-54000000D03*
%TO.P,U1,3*%
%TO.N,BAT1+*%
X196000000Y-54000000D03*
%TO.P,U1,4*%
%TO.N,Net-(J14-Pad1)*%
X196000000Y-68000000D03*
D18*
%TO.P,U1,5*%
%TO.N,N/C*%
X221000000Y-63000000D03*
%TO.P,U1,6*%
X221000000Y-65500000D03*
%TO.P,U1,7*%
X221000000Y-60500000D03*
%TD*%
D21*
%TO.P,D3,1*%
%TO.N,GND*%
X232125000Y-77750000D03*
%TO.P,D3,2*%
%TO.N,Net-(D3-Pad2)*%
X230375000Y-77750000D03*
%TD*%
D22*
%TO.P,J14,1*%
%TO.N,Net-(J14-Pad1)*%
X189750000Y-67000000D03*
%TD*%
%TO.P,J13,1*%
%TO.N,BAT1+*%
X189750000Y-60000000D03*
%TD*%
%TO.P,J16,1*%
%TO.N,Net-(J16-Pad1)*%
X189750000Y-73000000D03*
%TD*%
%TO.P,J15,1*%
%TO.N,BAT2+*%
X189750000Y-80000000D03*
%TD*%
D21*
%TO.P,D2,1*%
%TO.N,GND*%
X232125000Y-79250000D03*
%TO.P,D2,2*%
%TO.N,Net-(D2-Pad2)*%
X230375000Y-79250000D03*
%TD*%
%TO.P,D4,1*%
%TO.N,GND*%
X232125000Y-82250000D03*
%TO.P,D4,2*%
%TO.N,Net-(D4-Pad2)*%
X230375000Y-82250000D03*
%TD*%
%TO.P,D5,1*%
%TO.N,GND*%
X232125000Y-83750000D03*
%TO.P,D5,2*%
%TO.N,Net-(D5-Pad2)*%
X230375000Y-83750000D03*
%TD*%
%TO.P,D6,1*%
%TO.N,GND*%
X232125000Y-85250000D03*
%TO.P,D6,2*%
%TO.N,Net-(D6-Pad2)*%
X230375000Y-85250000D03*
%TD*%
%TO.P,D1,1*%
%TO.N,GND*%
X232125000Y-80750000D03*
%TO.P,D1,2*%
%TO.N,Net-(D1-Pad2)*%
X230375000Y-80750000D03*
%TD*%
D23*
%TO.P,BT1,1*%
%TO.N,/BP_B1-*%
X40400000Y-106200000D03*
%TO.P,BT1,1+*%
%TO.N,/BP_B1+*%
X40400000Y-33800000D03*
%TO.P,BT1,2*%
%TO.N,/BP_B2-*%
X59600000Y-106200000D03*
%TO.P,BT1,2+*%
%TO.N,/BP_B2+*%
X59600000Y-33800000D03*
%TD*%
D24*
%TO.P,J7,1*%
%TO.N,SWCLK*%
X204420000Y-85250000D03*
D25*
%TO.P,J7,2*%
%TO.N,SWDIO*%
X206960000Y-85250000D03*
%TO.P,J7,3*%
%TO.N,RST*%
X209500000Y-85250000D03*
%TO.P,J7,4*%
%TO.N,+3V3*%
X212040000Y-85250000D03*
%TO.P,J7,5*%
%TO.N,GND*%
X214580000Y-85250000D03*
%TD*%
D24*
%TO.P,J8,1*%
%TO.N,TX*%
X209500000Y-81250000D03*
D25*
%TO.P,J8,2*%
%TO.N,RX*%
X212040000Y-81250000D03*
%TO.P,J8,3*%
%TO.N,GND*%
X214580000Y-81250000D03*
%TD*%
D26*
%TO.N,GND*%
X219750000Y-67500000D03*
X219750000Y-68500000D03*
X220750000Y-67500000D03*
X220750000Y-68500000D03*
X221750000Y-67500000D03*
X204650000Y-64350000D03*
X210150000Y-56650000D03*
X221750000Y-68500000D03*
X203850000Y-64350000D03*
X203374970Y-62000000D03*
X208450000Y-69850000D03*
X206650000Y-68550000D03*
X216050004Y-57450000D03*
X204250000Y-62050000D03*
X203050000Y-64350000D03*
%TO.N,VBUS*%
X214629659Y-57583540D03*
%TO.N,Net-(D1-Pad2)*%
X229500000Y-80750000D03*
%TO.N,Net-(D2-Pad2)*%
X229500000Y-79250000D03*
%TO.N,Net-(D3-Pad2)*%
X229500000Y-77750000D03*
%TO.N,D+*%
X217700021Y-64192677D03*
X229500000Y-58750000D03*
X228844212Y-60733150D03*
%TO.N,D-*%
X207558248Y-63328942D03*
X217700021Y-66489841D03*
X211649260Y-63821818D03*
%TO.N,RST*%
X208755807Y-57440607D03*
X210000010Y-66848674D03*
%TO.N,SWCLK*%
X199100002Y-67950000D03*
X198850000Y-74850000D03*
%TO.N,SWDIO*%
X199850012Y-69150000D03*
X199750006Y-73950000D03*
%TO.N,Net-(J14-Pad1)*%
X189000000Y-67000000D03*
X189000000Y-68000000D03*
X189000000Y-66000000D03*
X191000000Y-68000000D03*
X191000000Y-67000000D03*
X191000000Y-66000000D03*
X190000000Y-68000000D03*
X190000000Y-67000000D03*
X190000000Y-66000000D03*
%TO.N,Net-(J16-Pad1)*%
X190000000Y-72000000D03*
X191000000Y-74000000D03*
X190000000Y-74000000D03*
X191000000Y-73000000D03*
X189000000Y-73000000D03*
X189000000Y-72000000D03*
X189000000Y-74000000D03*
X190000000Y-73000000D03*
X191000000Y-72000000D03*
%TO.N,Net-(R5-Pad1)*%
X208999506Y-60677518D03*
X225950000Y-80750012D03*
%TO.N,Net-(R6-Pad1)*%
X208295627Y-59136803D03*
X225950002Y-79250000D03*
%TO.N,Net-(R7-Pad1)*%
X207969060Y-58191616D03*
X227100031Y-76478706D03*
D27*
%TO.N,/BP_B2+*%
X67750000Y-79250000D03*
X67750000Y-80750000D03*
X64750000Y-80750000D03*
X64750000Y-79250000D03*
X66250000Y-79250000D03*
X66250000Y-80750000D03*
X63250000Y-79250000D03*
X61750000Y-79250000D03*
X63250000Y-80750000D03*
X61750000Y-80750000D03*
X60250000Y-80750000D03*
X60250000Y-79250000D03*
X58750000Y-79250000D03*
X58750000Y-80750000D03*
X57250000Y-79250000D03*
X57250000Y-80750000D03*
%TO.N,/BP_B2-*%
X67750000Y-72250000D03*
X67750000Y-73750000D03*
X66250000Y-72250000D03*
X64750000Y-72250000D03*
X66250000Y-73750000D03*
X64750000Y-73750000D03*
X61750000Y-72250000D03*
X61750000Y-73750000D03*
X63250000Y-73750000D03*
X63250000Y-72250000D03*
X58750000Y-73750000D03*
X60250000Y-73750000D03*
X58750000Y-72250000D03*
X60250000Y-72250000D03*
X57250000Y-73750000D03*
X57250000Y-72250000D03*
%TO.N,/BP_B1-*%
X67750000Y-67750000D03*
X67750000Y-66250000D03*
X66250000Y-67750000D03*
X64750000Y-67750000D03*
X64750000Y-66250000D03*
X66250000Y-66250000D03*
X63250000Y-67750000D03*
X63250000Y-66250000D03*
X61750000Y-66250000D03*
X61750000Y-67750000D03*
X60250000Y-67750000D03*
X60250000Y-66250000D03*
X58750000Y-66250000D03*
X58750000Y-67750000D03*
X57250000Y-67750000D03*
X57250000Y-66250000D03*
%TO.N,/BP_B1+*%
X67750000Y-59250000D03*
X67750000Y-60750000D03*
X66250000Y-59250000D03*
X66250000Y-60750000D03*
X64750000Y-60750000D03*
X64750000Y-59250000D03*
X63250000Y-60750000D03*
X63250000Y-59250000D03*
X61750000Y-59250000D03*
X61750000Y-60750000D03*
X60250000Y-59250000D03*
X60250000Y-60750000D03*
X58750000Y-59250000D03*
X58750000Y-60750000D03*
X57250000Y-60750000D03*
X57250000Y-59250000D03*
D26*
%TO.N,BAT1+*%
X190000000Y-61000000D03*
X191000000Y-61000000D03*
X191000000Y-60000000D03*
X191000000Y-59000000D03*
X190000000Y-59000000D03*
X190000000Y-60000000D03*
X189000000Y-59000000D03*
X189000000Y-61000000D03*
X189000000Y-60000000D03*
X196450000Y-54050000D03*
%TO.N,Net-(D4-Pad2)*%
X229500000Y-82250000D03*
%TO.N,Net-(D5-Pad2)*%
X229500000Y-83750000D03*
%TO.N,Net-(D6-Pad2)*%
X229500000Y-85250000D03*
%TO.N,BAT2+*%
X191000000Y-79000000D03*
X189000000Y-80000000D03*
X189000000Y-81000000D03*
X191000000Y-81000000D03*
X191000000Y-80000000D03*
X189000000Y-79000000D03*
X190000000Y-79000000D03*
X190000000Y-81000000D03*
X190000000Y-80000000D03*
X196500000Y-72250000D03*
X195000000Y-72250000D03*
X195750000Y-72250000D03*
X197250000Y-72250000D03*
X198000000Y-72250000D03*
%TO.N,BAT1_V*%
X213050000Y-60950000D03*
X207750000Y-54249996D03*
%TO.N,Net-(R14-Pad1)*%
X224449991Y-77383588D03*
X207221854Y-60629193D03*
%TO.N,Net-(R15-Pad1)*%
X213700010Y-57056128D03*
X223850000Y-74650000D03*
%TO.N,Net-(R16-Pad1)*%
X221928049Y-74354409D03*
X209845998Y-58051008D03*
%TD*%
D28*
%TO.N,GND*%
X228350000Y-66825000D02*
X228400000Y-66775000D01*
X227250000Y-62600000D02*
X227250000Y-62300000D01*
X227250000Y-56200000D02*
X227250000Y-55900000D01*
X228350000Y-69200000D02*
X228350000Y-66825000D01*
D29*
%TO.N,VBUS*%
X216100011Y-59767991D02*
X216100011Y-68850011D01*
X220361283Y-72250000D02*
X219500000Y-72250000D01*
X219500000Y-56368002D02*
X216100011Y-59767991D01*
X219500000Y-54000000D02*
X219500000Y-56368002D01*
X216100011Y-68850011D02*
X219500000Y-72250000D01*
D30*
X219500000Y-54000000D02*
X217647514Y-54000000D01*
X214629659Y-57017855D02*
X214629659Y-57583540D01*
X217647514Y-54000000D02*
X214629659Y-57017855D01*
D28*
%TO.N,Net-(D1-Pad2)*%
X229500000Y-80750000D02*
X230500000Y-80750000D01*
%TO.N,Net-(D2-Pad2)*%
X230375000Y-79250000D02*
X229500000Y-79250000D01*
%TO.N,Net-(D3-Pad2)*%
X230250000Y-77750000D02*
X230500000Y-77750000D01*
X229500000Y-77750000D02*
X230250000Y-77750000D01*
%TO.N,D+*%
X228844212Y-60733150D02*
X228844212Y-60155788D01*
X224500000Y-64914998D02*
X223777679Y-64192677D01*
X223777679Y-64192677D02*
X218265706Y-64192677D01*
X227250000Y-58500000D02*
X229250000Y-58500000D01*
X229000000Y-60000000D02*
X228485003Y-59500000D01*
X229250000Y-58500000D02*
X229500000Y-58750000D01*
X230175001Y-61189998D02*
X229000000Y-60000000D01*
X218265706Y-64192677D02*
X217700021Y-64192677D01*
X229250000Y-70500000D02*
X230175001Y-69574999D01*
X228844212Y-60155788D02*
X229000000Y-60000000D01*
X228485003Y-59500000D02*
X227250000Y-59500000D01*
X228350000Y-70500000D02*
X229250000Y-70500000D01*
X227450000Y-70500000D02*
X224500000Y-67550000D01*
X230175001Y-69574999D02*
X230175001Y-61189998D01*
X228350000Y-70500000D02*
X227450000Y-70500000D01*
X224500000Y-67550000D02*
X224500000Y-64914998D01*
%TO.N,D-*%
X208051124Y-63821818D02*
X207558248Y-63328942D01*
X227250000Y-59000000D02*
X228636411Y-59000000D01*
X227450000Y-71150000D02*
X224049990Y-67749990D01*
X224049990Y-66924990D02*
X223700010Y-66575010D01*
X224049990Y-67749990D02*
X224049990Y-66924990D01*
X225924999Y-59075001D02*
X225924999Y-59924999D01*
X229250000Y-71150000D02*
X228350000Y-71150000D01*
X226000000Y-59000000D02*
X225924999Y-59075001D01*
X223700010Y-66575010D02*
X217785190Y-66575010D01*
X226000000Y-60000000D02*
X227250000Y-60000000D01*
X230625012Y-60988601D02*
X230625012Y-69774988D01*
X228350000Y-71150000D02*
X227450000Y-71150000D01*
X230625012Y-69774988D02*
X229250000Y-71150000D01*
X228636411Y-59000000D02*
X230625012Y-60988601D01*
X211649260Y-63821818D02*
X208051124Y-63821818D01*
X227250000Y-59000000D02*
X226000000Y-59000000D01*
X217785190Y-66575010D02*
X217700021Y-66489841D01*
X225924999Y-59924999D02*
X226000000Y-60000000D01*
D30*
%TO.N,RST*%
X210000010Y-66848674D02*
X209148674Y-66848674D01*
X207971855Y-61805331D02*
X207971855Y-60269192D01*
X206808246Y-62968940D02*
X207971855Y-61805331D01*
X207203999Y-59501336D02*
X207203999Y-57896001D01*
X207203999Y-57896001D02*
X207659393Y-57440607D01*
X206808246Y-64508246D02*
X206808246Y-62968940D01*
X209148674Y-66848674D02*
X206808246Y-64508246D01*
X207659393Y-57440607D02*
X208755807Y-57440607D01*
X207971855Y-60269192D02*
X207203999Y-59501336D01*
%TO.N,SWCLK*%
X199100002Y-73389994D02*
X198850000Y-73639996D01*
X198850000Y-74284315D02*
X198850000Y-74850000D01*
X199100002Y-67950000D02*
X199100002Y-73389994D01*
X198850000Y-73639996D02*
X198850000Y-74284315D01*
%TO.N,SWDIO*%
X199850012Y-73849994D02*
X199750006Y-73950000D01*
X199850012Y-69150000D02*
X199850012Y-73849994D01*
D29*
%TO.N,Net-(J14-Pad1)*%
X189750000Y-67000000D02*
X189750000Y-67000000D01*
X192750000Y-68000000D02*
X191000000Y-68000000D01*
X197500000Y-68000000D02*
X192750000Y-68000000D01*
X190000000Y-67000000D02*
X189750000Y-67000000D01*
X191000000Y-68000000D02*
X190000000Y-67000000D01*
%TO.N,Net-(J16-Pad1)*%
X190000000Y-73000000D02*
X197500000Y-80500000D01*
X197500000Y-80500000D02*
X197500000Y-86250000D01*
D30*
%TO.N,Net-(R5-Pad1)*%
X224948872Y-76458854D02*
X225200001Y-76709983D01*
X212649992Y-69657112D02*
X212649959Y-69657145D01*
X225200001Y-76709983D02*
X225200001Y-80000013D01*
X212200032Y-63200032D02*
X212068662Y-63200032D01*
X209946147Y-61077517D02*
X209399505Y-61077517D01*
X217330366Y-76458854D02*
X224948872Y-76458854D01*
X212068662Y-63200032D02*
X209946147Y-61077517D01*
X212649959Y-69657145D02*
X212649959Y-71778447D01*
X212649992Y-63649992D02*
X212200032Y-63200032D01*
X225200001Y-80000013D02*
X225550001Y-80350013D01*
X212649992Y-69657112D02*
X212649992Y-63649992D01*
X225550001Y-80350013D02*
X225950000Y-80750012D01*
X212649992Y-69649992D02*
X212649992Y-69657112D01*
X212649959Y-71778447D02*
X217330366Y-76458854D01*
X209399505Y-61077517D02*
X208999506Y-60677518D01*
%TO.N,Net-(R6-Pad1)*%
X209112554Y-59536802D02*
X208695626Y-59536802D01*
X213150002Y-71571368D02*
X213150002Y-63384317D01*
X208695626Y-59536802D02*
X208295627Y-59136803D01*
X212275774Y-62700022D02*
X209112554Y-59536802D01*
X225950002Y-76752862D02*
X225155983Y-75958843D01*
X212465708Y-62700023D02*
X212275774Y-62700022D01*
X217537476Y-75958842D02*
X213150002Y-71571368D01*
X225155983Y-75958843D02*
X217537476Y-75958842D01*
X213150002Y-63384317D02*
X212465708Y-62700023D01*
X225950002Y-79250000D02*
X225950002Y-76752862D01*
%TO.N,Net-(R7-Pad1)*%
X212746951Y-62200013D02*
X212482886Y-62200012D01*
X213749979Y-63203041D02*
X212746951Y-62200013D01*
X213749979Y-71464223D02*
X213749979Y-63203041D01*
X226080157Y-75458832D02*
X217744588Y-75458832D01*
X208474490Y-58191616D02*
X207969060Y-58191616D01*
X217744588Y-75458832D02*
X213749979Y-71464223D01*
X227100031Y-76478706D02*
X226080157Y-75458832D01*
X212482886Y-62200012D02*
X208474490Y-58191616D01*
D29*
%TO.N,BAT1+*%
X189750000Y-60000000D02*
X189750000Y-60000000D01*
X191000000Y-60000000D02*
X189750000Y-60000000D01*
X197500000Y-54000000D02*
X194000000Y-54000000D01*
X194000000Y-54000000D02*
X191750000Y-56250000D01*
X191750000Y-59250000D02*
X191000000Y-60000000D01*
X191750000Y-56250000D02*
X191750000Y-59250000D01*
D28*
%TO.N,Net-(D4-Pad2)*%
X230375000Y-82250000D02*
X229500000Y-82250000D01*
%TO.N,Net-(D5-Pad2)*%
X229500000Y-83750000D02*
X230250000Y-83750000D01*
%TO.N,Net-(D6-Pad2)*%
X230375000Y-85250000D02*
X229500000Y-85250000D01*
D30*
%TO.N,BAT1_V*%
X213050000Y-60950000D02*
X213050000Y-57984301D01*
X213050000Y-57984301D02*
X209315695Y-54249996D01*
X209315695Y-54249996D02*
X207750000Y-54249996D01*
%TO.N,Net-(R14-Pad1)*%
X217547978Y-77383588D02*
X206308235Y-66143845D01*
X206308235Y-66143845D02*
X206308235Y-61542812D01*
X206821855Y-61029192D02*
X207221854Y-60629193D01*
X206308235Y-61542812D02*
X206821855Y-61029192D01*
X224449991Y-77383588D02*
X217547978Y-77383588D01*
%TO.N,Net-(R15-Pad1)*%
X222800001Y-73600001D02*
X218100001Y-73600001D01*
X213700010Y-57721813D02*
X213700010Y-57621813D01*
X214750000Y-70250000D02*
X214750000Y-58771803D01*
X213700010Y-57621813D02*
X213700010Y-57056128D01*
X218100001Y-73600001D02*
X214750000Y-70250000D01*
X223850000Y-74650000D02*
X222800001Y-73600001D01*
X214750000Y-58771803D02*
X213700010Y-57721813D01*
%TO.N,Net-(R16-Pad1)*%
X217747287Y-74354409D02*
X214249990Y-70857112D01*
X221928049Y-74354409D02*
X217747287Y-74354409D01*
X213410002Y-61700002D02*
X212689998Y-61700002D01*
X209845998Y-58856002D02*
X209845998Y-58616693D01*
X214249990Y-70857112D02*
X214249990Y-62539990D01*
X212689998Y-61700002D02*
X209845998Y-58856002D01*
X214249990Y-62539990D02*
X213410002Y-61700002D01*
X209845998Y-58616693D02*
X209845998Y-58051008D01*
%TD*%
%TA.AperFunction,Conductor*%
%TO.N,GND*%
G36*
X217942990Y-52769279D02*
G01*
X217908682Y-52882379D01*
X217897097Y-53000000D01*
X217897097Y-53250000D01*
X217684338Y-53250000D01*
X217647513Y-53246373D01*
X217610688Y-53250000D01*
X217610679Y-53250000D01*
X217500488Y-53260853D01*
X217359113Y-53303739D01*
X217228821Y-53373381D01*
X217228819Y-53373382D01*
X217228820Y-53373382D01*
X217143229Y-53443624D01*
X217143222Y-53443631D01*
X217114619Y-53467105D01*
X217091144Y-53495709D01*
X214319492Y-56267363D01*
X214173688Y-56169939D01*
X213991699Y-56094557D01*
X213798501Y-56056128D01*
X213601519Y-56056128D01*
X213408321Y-56094557D01*
X213226332Y-56169939D01*
X213062547Y-56279377D01*
X212923259Y-56418665D01*
X212813821Y-56582450D01*
X212783064Y-56656705D01*
X209872074Y-53745716D01*
X209848590Y-53717101D01*
X209734388Y-53623377D01*
X209604096Y-53553735D01*
X209462721Y-53510849D01*
X209352530Y-53499996D01*
X209352522Y-53499996D01*
X209315695Y-53496369D01*
X209278868Y-53499996D01*
X208414214Y-53499996D01*
X208387463Y-53473245D01*
X208223678Y-53363807D01*
X208041689Y-53288425D01*
X207848491Y-53249996D01*
X207651509Y-53249996D01*
X207458311Y-53288425D01*
X207276322Y-53363807D01*
X207112537Y-53473245D01*
X206973249Y-53612533D01*
X206863811Y-53776318D01*
X206788429Y-53958307D01*
X206750000Y-54151505D01*
X206750000Y-54348487D01*
X206788429Y-54541685D01*
X206863811Y-54723674D01*
X206973249Y-54887459D01*
X207112537Y-55026747D01*
X207276322Y-55136185D01*
X207458311Y-55211567D01*
X207651509Y-55249996D01*
X207848491Y-55249996D01*
X208041689Y-55211567D01*
X208223678Y-55136185D01*
X208387463Y-55026747D01*
X208414214Y-54999996D01*
X209005036Y-54999996D01*
X212300001Y-58294962D01*
X212300000Y-60249344D01*
X210669363Y-58618708D01*
X210732187Y-58524686D01*
X210807569Y-58342697D01*
X210845998Y-58149499D01*
X210845998Y-57952517D01*
X210807569Y-57759319D01*
X210732187Y-57577330D01*
X210622749Y-57413545D01*
X210483461Y-57274257D01*
X210319676Y-57164819D01*
X210137687Y-57089437D01*
X209944489Y-57051008D01*
X209747507Y-57051008D01*
X209682203Y-57063998D01*
X209641996Y-56966929D01*
X209532558Y-56803144D01*
X209393270Y-56663856D01*
X209229485Y-56554418D01*
X209047496Y-56479036D01*
X208854298Y-56440607D01*
X208657316Y-56440607D01*
X208464118Y-56479036D01*
X208282129Y-56554418D01*
X208118344Y-56663856D01*
X208091593Y-56690607D01*
X207696217Y-56690607D01*
X207659392Y-56686980D01*
X207622567Y-56690607D01*
X207622558Y-56690607D01*
X207512367Y-56701460D01*
X207370992Y-56744346D01*
X207240700Y-56813988D01*
X207240698Y-56813989D01*
X207240699Y-56813989D01*
X207171440Y-56870829D01*
X207126498Y-56907712D01*
X207103018Y-56936322D01*
X206699713Y-57339627D01*
X206671105Y-57363106D01*
X206647626Y-57391715D01*
X206647623Y-57391718D01*
X206629710Y-57413545D01*
X206577381Y-57477308D01*
X206544354Y-57539098D01*
X206507738Y-57607601D01*
X206464852Y-57748976D01*
X206450372Y-57896001D01*
X206454000Y-57932838D01*
X206453999Y-59464508D01*
X206450372Y-59501336D01*
X206453999Y-59538163D01*
X206453999Y-59538170D01*
X206464852Y-59648361D01*
X206507738Y-59789736D01*
X206556280Y-59880553D01*
X206445103Y-59991730D01*
X206335665Y-60155515D01*
X206260283Y-60337504D01*
X206221854Y-60530702D01*
X206221854Y-60568532D01*
X205803949Y-60986439D01*
X205775341Y-61009917D01*
X205751862Y-61038526D01*
X205751859Y-61038529D01*
X205741047Y-61051704D01*
X205681617Y-61124119D01*
X205658640Y-61167107D01*
X205611974Y-61254412D01*
X205569088Y-61395787D01*
X205554608Y-61542812D01*
X205558236Y-61579649D01*
X205558235Y-66107018D01*
X205554608Y-66143845D01*
X205558235Y-66180672D01*
X205558235Y-66180679D01*
X205569088Y-66290870D01*
X205611974Y-66432245D01*
X205681616Y-66562537D01*
X205775340Y-66676740D01*
X205803955Y-66700224D01*
X216991604Y-77887874D01*
X217015083Y-77916483D01*
X217043692Y-77939962D01*
X217043694Y-77939964D01*
X217065813Y-77958117D01*
X217129285Y-78010207D01*
X217259577Y-78079849D01*
X217400952Y-78122735D01*
X217511143Y-78133588D01*
X217511150Y-78133588D01*
X217547978Y-78137215D01*
X217584805Y-78133588D01*
X217647097Y-78133588D01*
X217647097Y-79500000D01*
X217658682Y-79617621D01*
X217692990Y-79730721D01*
X217748704Y-79834955D01*
X217823683Y-79926317D01*
X217913466Y-80000000D01*
X217823683Y-80073683D01*
X217748704Y-80165045D01*
X217692990Y-80269279D01*
X217658682Y-80382379D01*
X217647097Y-80500000D01*
X217647097Y-82000000D01*
X217658682Y-82117621D01*
X217692990Y-82230721D01*
X217748704Y-82334955D01*
X217823683Y-82426317D01*
X217913466Y-82500000D01*
X217823683Y-82573683D01*
X217748704Y-82665045D01*
X217692990Y-82769279D01*
X217658682Y-82882379D01*
X217647097Y-83000000D01*
X217647097Y-84500000D01*
X217658682Y-84617621D01*
X217692990Y-84730721D01*
X217748704Y-84834955D01*
X217823683Y-84926317D01*
X217915045Y-85001296D01*
X218019279Y-85057010D01*
X218132379Y-85091318D01*
X218250000Y-85102903D01*
X223750000Y-85102903D01*
X223867621Y-85091318D01*
X223980721Y-85057010D01*
X224084955Y-85001296D01*
X224176317Y-84926317D01*
X224251296Y-84834955D01*
X224307010Y-84730721D01*
X224341318Y-84617621D01*
X224352903Y-84500000D01*
X224352903Y-83000000D01*
X224341318Y-82882379D01*
X224307010Y-82769279D01*
X224251296Y-82665045D01*
X224176317Y-82573683D01*
X224086534Y-82500000D01*
X224176317Y-82426317D01*
X224251296Y-82334955D01*
X224307010Y-82230721D01*
X224341318Y-82117621D01*
X224352903Y-82000000D01*
X224352903Y-80500000D01*
X224341318Y-80382379D01*
X224307010Y-80269279D01*
X224251296Y-80165045D01*
X224176317Y-80073683D01*
X224086534Y-80000000D01*
X224176317Y-79926317D01*
X224251296Y-79834955D01*
X224307010Y-79730721D01*
X224341318Y-79617621D01*
X224352903Y-79500000D01*
X224352903Y-78383588D01*
X224450002Y-78383588D01*
X224450002Y-79963176D01*
X224446374Y-80000013D01*
X224460854Y-80147038D01*
X224503740Y-80288413D01*
X224534127Y-80345263D01*
X224573383Y-80418706D01*
X224605886Y-80458311D01*
X224643625Y-80504296D01*
X224643628Y-80504299D01*
X224667107Y-80532908D01*
X224695716Y-80556387D01*
X224950000Y-80810671D01*
X224950000Y-80848503D01*
X224988429Y-81041701D01*
X225063811Y-81223690D01*
X225173249Y-81387475D01*
X225312537Y-81526763D01*
X225476322Y-81636201D01*
X225658311Y-81711583D01*
X225851509Y-81750012D01*
X226048491Y-81750012D01*
X226241689Y-81711583D01*
X226423678Y-81636201D01*
X226587463Y-81526763D01*
X226726751Y-81387475D01*
X226836189Y-81223690D01*
X226911571Y-81041701D01*
X226950000Y-80848503D01*
X226950000Y-80651521D01*
X226911571Y-80458323D01*
X226836189Y-80276334D01*
X226726751Y-80112549D01*
X226614209Y-80000007D01*
X226726753Y-79887463D01*
X226836191Y-79723678D01*
X226911573Y-79541689D01*
X226950002Y-79348491D01*
X226950002Y-79151509D01*
X226911573Y-78958311D01*
X226836191Y-78776322D01*
X226726753Y-78612537D01*
X226700002Y-78585786D01*
X226700002Y-77651509D01*
X228500000Y-77651509D01*
X228500000Y-77848491D01*
X228538429Y-78041689D01*
X228613811Y-78223678D01*
X228723249Y-78387463D01*
X228835786Y-78500000D01*
X228723249Y-78612537D01*
X228613811Y-78776322D01*
X228538429Y-78958311D01*
X228500000Y-79151509D01*
X228500000Y-79348491D01*
X228538429Y-79541689D01*
X228613811Y-79723678D01*
X228723249Y-79887463D01*
X228835786Y-80000000D01*
X228723249Y-80112537D01*
X228613811Y-80276322D01*
X228538429Y-80458311D01*
X228500000Y-80651509D01*
X228500000Y-80848491D01*
X228538429Y-81041689D01*
X228613811Y-81223678D01*
X228723249Y-81387463D01*
X228835786Y-81500000D01*
X228723249Y-81612537D01*
X228613811Y-81776322D01*
X228538429Y-81958311D01*
X228500000Y-82151509D01*
X228500000Y-82348491D01*
X228538429Y-82541689D01*
X228613811Y-82723678D01*
X228723249Y-82887463D01*
X228835786Y-83000000D01*
X228723249Y-83112537D01*
X228613811Y-83276322D01*
X228538429Y-83458311D01*
X228500000Y-83651509D01*
X228500000Y-83848491D01*
X228538429Y-84041689D01*
X228613811Y-84223678D01*
X228723249Y-84387463D01*
X228835786Y-84500000D01*
X228723249Y-84612537D01*
X228613811Y-84776322D01*
X228538429Y-84958311D01*
X228500000Y-85151509D01*
X228500000Y-85348491D01*
X228538429Y-85541689D01*
X228613811Y-85723678D01*
X228723249Y-85887463D01*
X228862537Y-86026751D01*
X229026322Y-86136189D01*
X229208311Y-86211571D01*
X229401509Y-86250000D01*
X229598491Y-86250000D01*
X229701496Y-86229511D01*
X229765892Y-86263931D01*
X229923546Y-86311755D01*
X230087500Y-86327903D01*
X230662500Y-86327903D01*
X230826454Y-86311755D01*
X230984108Y-86263931D01*
X231129403Y-86186270D01*
X231256755Y-86081755D01*
X231361270Y-85954403D01*
X231438931Y-85809108D01*
X231486755Y-85651454D01*
X231502903Y-85487500D01*
X231502903Y-85012500D01*
X231486755Y-84848546D01*
X231438931Y-84690892D01*
X231361270Y-84545597D01*
X231323850Y-84500000D01*
X231361270Y-84454403D01*
X231438931Y-84309108D01*
X231486755Y-84151454D01*
X231502903Y-83987500D01*
X231502903Y-83512500D01*
X231486755Y-83348546D01*
X231438931Y-83190892D01*
X231361270Y-83045597D01*
X231323850Y-83000000D01*
X231361270Y-82954403D01*
X231438931Y-82809108D01*
X231486755Y-82651454D01*
X231502903Y-82487500D01*
X231502903Y-82012500D01*
X231486755Y-81848546D01*
X231438931Y-81690892D01*
X231361270Y-81545597D01*
X231323850Y-81500000D01*
X231361270Y-81454403D01*
X231438931Y-81309108D01*
X231486755Y-81151454D01*
X231502903Y-80987500D01*
X231502903Y-80512500D01*
X231486755Y-80348546D01*
X231438931Y-80190892D01*
X231361270Y-80045597D01*
X231323850Y-80000000D01*
X231361270Y-79954403D01*
X231438931Y-79809108D01*
X231486755Y-79651454D01*
X231502903Y-79487500D01*
X231502903Y-79012500D01*
X231486755Y-78848546D01*
X231438931Y-78690892D01*
X231361270Y-78545597D01*
X231323850Y-78500000D01*
X231361270Y-78454403D01*
X231438931Y-78309108D01*
X231486755Y-78151454D01*
X231502903Y-77987500D01*
X231502903Y-77512500D01*
X231486755Y-77348546D01*
X231438931Y-77190892D01*
X231361270Y-77045597D01*
X231256755Y-76918245D01*
X231129403Y-76813730D01*
X230984108Y-76736069D01*
X230826454Y-76688245D01*
X230662500Y-76672097D01*
X230087500Y-76672097D01*
X229923546Y-76688245D01*
X229765892Y-76736069D01*
X229701496Y-76770489D01*
X229598491Y-76750000D01*
X229401509Y-76750000D01*
X229208311Y-76788429D01*
X229026322Y-76863811D01*
X228862537Y-76973249D01*
X228723249Y-77112537D01*
X228613811Y-77276322D01*
X228538429Y-77458311D01*
X228500000Y-77651509D01*
X226700002Y-77651509D01*
X226700002Y-77395401D01*
X226808342Y-77440277D01*
X227001540Y-77478706D01*
X227198522Y-77478706D01*
X227391720Y-77440277D01*
X227573709Y-77364895D01*
X227737494Y-77255457D01*
X227876782Y-77116169D01*
X227986220Y-76952384D01*
X228061602Y-76770395D01*
X228100031Y-76577197D01*
X228100031Y-76380215D01*
X228061602Y-76187017D01*
X227986220Y-76005028D01*
X227876782Y-75841243D01*
X227737494Y-75701955D01*
X227573709Y-75592517D01*
X227391720Y-75517135D01*
X227198522Y-75478706D01*
X227160691Y-75478706D01*
X226636535Y-74954551D01*
X226613052Y-74925937D01*
X226498850Y-74832213D01*
X226368558Y-74762571D01*
X226227183Y-74719685D01*
X226116992Y-74708832D01*
X226116984Y-74708832D01*
X226080157Y-74705205D01*
X226043330Y-74708832D01*
X224850000Y-74708832D01*
X224850000Y-74551509D01*
X224811571Y-74358311D01*
X224736189Y-74176322D01*
X224626751Y-74012537D01*
X224487463Y-73873249D01*
X224452669Y-73850000D01*
X226421573Y-73850000D01*
X226460814Y-73848715D01*
X226721866Y-73831605D01*
X226799679Y-73821361D01*
X227056265Y-73770323D01*
X227132075Y-73750010D01*
X227379804Y-73665917D01*
X227452313Y-73635883D01*
X227686946Y-73520175D01*
X227754915Y-73480933D01*
X227972438Y-73335589D01*
X228034704Y-73287810D01*
X228231394Y-73115317D01*
X228260050Y-73088478D01*
X228450740Y-72897788D01*
X228450000Y-72901509D01*
X228450000Y-73098491D01*
X228488429Y-73291689D01*
X228563811Y-73473678D01*
X228673249Y-73637463D01*
X228812537Y-73776751D01*
X228976322Y-73886189D01*
X229158311Y-73961571D01*
X229351509Y-74000000D01*
X229548491Y-74000000D01*
X229741689Y-73961571D01*
X229923678Y-73886189D01*
X230087463Y-73776751D01*
X230226751Y-73637463D01*
X230336189Y-73473678D01*
X230411571Y-73291689D01*
X230450000Y-73098491D01*
X230450000Y-72901509D01*
X230411571Y-72708311D01*
X230336189Y-72526322D01*
X230226751Y-72362537D01*
X230087463Y-72223249D01*
X229923678Y-72113811D01*
X229741689Y-72038429D01*
X229602903Y-72010823D01*
X229602903Y-71783437D01*
X229654737Y-71755731D01*
X229765132Y-71665132D01*
X229787832Y-71637472D01*
X231112489Y-70312816D01*
X231140144Y-70290120D01*
X231174669Y-70248052D01*
X231230743Y-70179725D01*
X231298065Y-70053776D01*
X231318968Y-69984868D01*
X231339521Y-69917113D01*
X231350012Y-69810595D01*
X231350012Y-69810588D01*
X231353518Y-69774988D01*
X231350012Y-69739388D01*
X231350012Y-61024208D01*
X231353519Y-60988601D01*
X231339521Y-60846477D01*
X231334172Y-60828841D01*
X231298065Y-60709813D01*
X231295996Y-60705943D01*
X231230744Y-60583864D01*
X231162842Y-60501126D01*
X231162835Y-60501119D01*
X231140143Y-60473469D01*
X231112494Y-60450778D01*
X230162965Y-59501249D01*
X230276751Y-59387463D01*
X230386189Y-59223678D01*
X230461571Y-59041689D01*
X230500000Y-58848491D01*
X230500000Y-58651509D01*
X230461571Y-58458311D01*
X230386189Y-58276322D01*
X230276751Y-58112537D01*
X230137463Y-57973249D01*
X229973678Y-57863811D01*
X229791689Y-57788429D01*
X229598491Y-57750000D01*
X229401509Y-57750000D01*
X229279061Y-57774356D01*
X229250000Y-57771494D01*
X229214403Y-57775000D01*
X228850000Y-57775000D01*
X228850000Y-57679474D01*
X228852903Y-57650000D01*
X228852903Y-57350000D01*
X228848860Y-57308947D01*
X229027105Y-57273492D01*
X229199994Y-57201879D01*
X229355590Y-57097913D01*
X229487913Y-56965590D01*
X229591879Y-56809994D01*
X229663492Y-56637105D01*
X229700000Y-56453567D01*
X229700000Y-56266433D01*
X229663492Y-56082895D01*
X229591879Y-55910006D01*
X229487913Y-55754410D01*
X229355590Y-55622087D01*
X229199994Y-55518121D01*
X229027105Y-55446508D01*
X228843567Y-55410000D01*
X228656433Y-55410000D01*
X228472895Y-55446508D01*
X228300006Y-55518121D01*
X228144410Y-55622087D01*
X228012087Y-55754410D01*
X227908121Y-55910006D01*
X227892757Y-55947097D01*
X227626007Y-55947097D01*
X227619259Y-55945050D01*
X227503901Y-55922104D01*
X227308811Y-55902889D01*
X227250000Y-55900000D01*
X227029479Y-55900000D01*
X226922530Y-55889466D01*
X226848037Y-55866869D01*
X226779387Y-55830175D01*
X226719210Y-55780790D01*
X226669825Y-55720613D01*
X226633131Y-55651963D01*
X226610534Y-55577470D01*
X226600000Y-55470521D01*
X226600000Y-53750000D01*
X226597111Y-53691189D01*
X226577896Y-53496099D01*
X226554950Y-53380741D01*
X226498045Y-53193148D01*
X226453033Y-53084479D01*
X226360623Y-52911592D01*
X226295277Y-52813794D01*
X226201889Y-52700000D01*
X231965765Y-52700000D01*
X232251851Y-52728051D01*
X232494113Y-52801194D01*
X232717550Y-52919998D01*
X232913658Y-53079940D01*
X233074967Y-53274928D01*
X233195327Y-53497530D01*
X233270160Y-53739275D01*
X233300000Y-54023186D01*
X233300001Y-86215755D01*
X233271949Y-86501852D01*
X233198805Y-86744114D01*
X233080002Y-86967550D01*
X232920058Y-87163660D01*
X232725070Y-87324968D01*
X232502473Y-87445326D01*
X232260725Y-87520159D01*
X231976814Y-87550000D01*
X199019980Y-87550000D01*
X199057010Y-87480721D01*
X199091318Y-87367621D01*
X199102903Y-87250000D01*
X199102903Y-85250000D01*
X199100000Y-85220526D01*
X199100000Y-84400000D01*
X202967097Y-84400000D01*
X202967097Y-86100000D01*
X202978682Y-86217621D01*
X203012990Y-86330721D01*
X203068704Y-86434955D01*
X203143683Y-86526317D01*
X203235045Y-86601296D01*
X203339279Y-86657010D01*
X203452379Y-86691318D01*
X203570000Y-86702903D01*
X205270000Y-86702903D01*
X205387621Y-86691318D01*
X205500721Y-86657010D01*
X205604955Y-86601296D01*
X205696317Y-86526317D01*
X205771296Y-86434955D01*
X205827010Y-86330721D01*
X205861318Y-86217621D01*
X205862725Y-86203335D01*
X206035679Y-86376289D01*
X206273167Y-86534973D01*
X206537051Y-86644277D01*
X206817187Y-86700000D01*
X207102813Y-86700000D01*
X207382949Y-86644277D01*
X207646833Y-86534973D01*
X207884321Y-86376289D01*
X208086289Y-86174321D01*
X208230000Y-85959242D01*
X208373711Y-86174321D01*
X208575679Y-86376289D01*
X208813167Y-86534973D01*
X209077051Y-86644277D01*
X209357187Y-86700000D01*
X209642813Y-86700000D01*
X209922949Y-86644277D01*
X210186833Y-86534973D01*
X210424321Y-86376289D01*
X210626289Y-86174321D01*
X210770000Y-85959242D01*
X210913711Y-86174321D01*
X211115679Y-86376289D01*
X211353167Y-86534973D01*
X211617051Y-86644277D01*
X211897187Y-86700000D01*
X212182813Y-86700000D01*
X212462949Y-86644277D01*
X212726833Y-86534973D01*
X212964321Y-86376289D01*
X213166289Y-86174321D01*
X213324973Y-85936833D01*
X213434277Y-85672949D01*
X213490000Y-85392813D01*
X213490000Y-85107187D01*
X213434277Y-84827051D01*
X213324973Y-84563167D01*
X213166289Y-84325679D01*
X212964321Y-84123711D01*
X212726833Y-83965027D01*
X212462949Y-83855723D01*
X212182813Y-83800000D01*
X211897187Y-83800000D01*
X211617051Y-83855723D01*
X211353167Y-83965027D01*
X211115679Y-84123711D01*
X210913711Y-84325679D01*
X210770000Y-84540758D01*
X210626289Y-84325679D01*
X210424321Y-84123711D01*
X210186833Y-83965027D01*
X209922949Y-83855723D01*
X209642813Y-83800000D01*
X209357187Y-83800000D01*
X209077051Y-83855723D01*
X208813167Y-83965027D01*
X208575679Y-84123711D01*
X208373711Y-84325679D01*
X208230000Y-84540758D01*
X208086289Y-84325679D01*
X207884321Y-84123711D01*
X207646833Y-83965027D01*
X207382949Y-83855723D01*
X207102813Y-83800000D01*
X206817187Y-83800000D01*
X206537051Y-83855723D01*
X206273167Y-83965027D01*
X206035679Y-84123711D01*
X205862725Y-84296665D01*
X205861318Y-84282379D01*
X205827010Y-84169279D01*
X205771296Y-84065045D01*
X205696317Y-83973683D01*
X205604955Y-83898704D01*
X205500721Y-83842990D01*
X205387621Y-83808682D01*
X205270000Y-83797097D01*
X203570000Y-83797097D01*
X203452379Y-83808682D01*
X203339279Y-83842990D01*
X203235045Y-83898704D01*
X203143683Y-83973683D01*
X203068704Y-84065045D01*
X203012990Y-84169279D01*
X202978682Y-84282379D01*
X202967097Y-84400000D01*
X199100000Y-84400000D01*
X199100000Y-80578597D01*
X199107741Y-80500000D01*
X199097893Y-80400000D01*
X208047097Y-80400000D01*
X208047097Y-82100000D01*
X208058682Y-82217621D01*
X208092990Y-82330721D01*
X208148704Y-82434955D01*
X208223683Y-82526317D01*
X208315045Y-82601296D01*
X208419279Y-82657010D01*
X208532379Y-82691318D01*
X208650000Y-82702903D01*
X210350000Y-82702903D01*
X210467621Y-82691318D01*
X210580721Y-82657010D01*
X210684955Y-82601296D01*
X210776317Y-82526317D01*
X210851296Y-82434955D01*
X210907010Y-82330721D01*
X210941318Y-82217621D01*
X210942725Y-82203335D01*
X211115679Y-82376289D01*
X211353167Y-82534973D01*
X211617051Y-82644277D01*
X211897187Y-82700000D01*
X212182813Y-82700000D01*
X212462949Y-82644277D01*
X212726833Y-82534973D01*
X212964321Y-82376289D01*
X213166289Y-82174321D01*
X213324973Y-81936833D01*
X213434277Y-81672949D01*
X213490000Y-81392813D01*
X213490000Y-81107187D01*
X213434277Y-80827051D01*
X213324973Y-80563167D01*
X213166289Y-80325679D01*
X212964321Y-80123711D01*
X212726833Y-79965027D01*
X212462949Y-79855723D01*
X212182813Y-79800000D01*
X211897187Y-79800000D01*
X211617051Y-79855723D01*
X211353167Y-79965027D01*
X211115679Y-80123711D01*
X210942725Y-80296665D01*
X210941318Y-80282379D01*
X210907010Y-80169279D01*
X210851296Y-80065045D01*
X210776317Y-79973683D01*
X210684955Y-79898704D01*
X210580721Y-79842990D01*
X210467621Y-79808682D01*
X210350000Y-79797097D01*
X208650000Y-79797097D01*
X208532379Y-79808682D01*
X208419279Y-79842990D01*
X208315045Y-79898704D01*
X208223683Y-79973683D01*
X208148704Y-80065045D01*
X208092990Y-80169279D01*
X208058682Y-80282379D01*
X208047097Y-80400000D01*
X199097893Y-80400000D01*
X199096157Y-80382379D01*
X199076849Y-80186345D01*
X198985359Y-79884744D01*
X198836788Y-79606787D01*
X198636845Y-79363155D01*
X198575794Y-79313052D01*
X192102903Y-72840162D01*
X192102903Y-71500000D01*
X192091318Y-71382379D01*
X192057010Y-71269279D01*
X192001296Y-71165045D01*
X191926317Y-71073683D01*
X191834955Y-70998704D01*
X191730721Y-70942990D01*
X191617621Y-70908682D01*
X191500000Y-70897097D01*
X188700000Y-70897097D01*
X188700000Y-69102903D01*
X189835300Y-69102903D01*
X189863155Y-69136845D01*
X190106787Y-69336788D01*
X190384744Y-69485359D01*
X190686345Y-69576849D01*
X190833253Y-69591318D01*
X191000000Y-69607741D01*
X191078597Y-69600000D01*
X193470526Y-69600000D01*
X193500000Y-69602903D01*
X198350002Y-69602903D01*
X198350002Y-70647097D01*
X193500000Y-70647097D01*
X193382379Y-70658682D01*
X193269279Y-70692990D01*
X193165045Y-70748704D01*
X193073683Y-70823683D01*
X192998704Y-70915045D01*
X192942990Y-71019279D01*
X192908682Y-71132379D01*
X192897097Y-71250000D01*
X192897097Y-73250000D01*
X192908682Y-73367621D01*
X192942990Y-73480721D01*
X192998704Y-73584955D01*
X193073683Y-73676317D01*
X193165045Y-73751296D01*
X193269279Y-73807010D01*
X193382379Y-73841318D01*
X193500000Y-73852903D01*
X198100000Y-73852903D01*
X198100000Y-74185786D01*
X198073249Y-74212537D01*
X197963811Y-74376322D01*
X197888429Y-74558311D01*
X197850000Y-74751509D01*
X197850000Y-74948491D01*
X197888429Y-75141689D01*
X197963811Y-75323678D01*
X198073249Y-75487463D01*
X198212537Y-75626751D01*
X198376322Y-75736189D01*
X198558311Y-75811571D01*
X198751509Y-75850000D01*
X198948491Y-75850000D01*
X199141689Y-75811571D01*
X199323678Y-75736189D01*
X199487463Y-75626751D01*
X199626751Y-75487463D01*
X199736189Y-75323678D01*
X199811571Y-75141689D01*
X199849749Y-74949751D01*
X200041695Y-74911571D01*
X200223684Y-74836189D01*
X200387469Y-74726751D01*
X200526757Y-74587463D01*
X200636195Y-74423678D01*
X200711577Y-74241689D01*
X200750006Y-74048491D01*
X200750006Y-73851509D01*
X200711577Y-73658311D01*
X200636195Y-73476322D01*
X200600012Y-73422170D01*
X200600012Y-69814214D01*
X200626763Y-69787463D01*
X200736201Y-69623678D01*
X200811583Y-69441689D01*
X200850012Y-69248491D01*
X200850012Y-69051509D01*
X200811583Y-68858311D01*
X200736201Y-68676322D01*
X200626763Y-68512537D01*
X200487475Y-68373249D01*
X200323690Y-68263811D01*
X200141701Y-68188429D01*
X200074813Y-68175124D01*
X200100002Y-68048491D01*
X200100002Y-67851509D01*
X200061573Y-67658311D01*
X199986191Y-67476322D01*
X199876753Y-67312537D01*
X199737465Y-67173249D01*
X199573680Y-67063811D01*
X199391691Y-66988429D01*
X199198493Y-66950000D01*
X199097978Y-66950000D01*
X199091318Y-66882379D01*
X199057010Y-66769279D01*
X199001296Y-66665045D01*
X198926317Y-66573683D01*
X198834955Y-66498704D01*
X198730721Y-66442990D01*
X198617621Y-66408682D01*
X198500000Y-66397097D01*
X193500000Y-66397097D01*
X193470526Y-66400000D01*
X192102903Y-66400000D01*
X192102903Y-65500000D01*
X192091318Y-65382379D01*
X192057010Y-65269279D01*
X192001296Y-65165045D01*
X191926317Y-65073683D01*
X191834955Y-64998704D01*
X191730721Y-64942990D01*
X191617621Y-64908682D01*
X191500000Y-64897097D01*
X188700000Y-64897097D01*
X188700000Y-62102903D01*
X191500000Y-62102903D01*
X191617621Y-62091318D01*
X191730721Y-62057010D01*
X191834955Y-62001296D01*
X191926317Y-61926317D01*
X192001296Y-61834955D01*
X192057010Y-61730721D01*
X192091318Y-61617621D01*
X192102903Y-61500000D01*
X192102903Y-61164700D01*
X192136845Y-61136845D01*
X192186953Y-61075788D01*
X192825788Y-60436953D01*
X192886845Y-60386845D01*
X193086788Y-60143213D01*
X193235359Y-59865256D01*
X193326849Y-59563655D01*
X193350000Y-59328597D01*
X193350000Y-59328595D01*
X193357741Y-59250001D01*
X193350000Y-59171407D01*
X193350000Y-56912741D01*
X194659839Y-55602903D01*
X198500000Y-55602903D01*
X198617621Y-55591318D01*
X198730721Y-55557010D01*
X198834955Y-55501296D01*
X198926317Y-55426317D01*
X199001296Y-55334955D01*
X199057010Y-55230721D01*
X199091318Y-55117621D01*
X199102903Y-55000000D01*
X199102903Y-54049122D01*
X199107741Y-54000000D01*
X199102903Y-53950878D01*
X199102903Y-53000000D01*
X199091318Y-52882379D01*
X199057010Y-52769279D01*
X199019980Y-52700000D01*
X217980020Y-52700000D01*
X217942990Y-52769279D01*
G37*
%TD.AperFunction*%
%TA.AperFunction,Conductor*%
G36*
X223324990Y-67714393D02*
G01*
X223321484Y-67749990D01*
X223324990Y-67785587D01*
X223324990Y-67785596D01*
X223335481Y-67892114D01*
X223368208Y-68000000D01*
X223376937Y-68028777D01*
X223444259Y-68154726D01*
X223500334Y-68223053D01*
X223534858Y-68265121D01*
X223562514Y-68287818D01*
X225674695Y-70400000D01*
X220875000Y-70400000D01*
X220816189Y-70402889D01*
X220596712Y-70424506D01*
X220481352Y-70447453D01*
X220270310Y-70511472D01*
X220161644Y-70556483D01*
X220101417Y-70588675D01*
X217700011Y-68187270D01*
X217700011Y-67489841D01*
X217798512Y-67489841D01*
X217991710Y-67451412D01*
X218173699Y-67376030D01*
X218287471Y-67300010D01*
X223324990Y-67300010D01*
X223324990Y-67714393D01*
G37*
%TD.AperFunction*%
%TA.AperFunction,Conductor*%
G36*
X227908121Y-62589994D02*
G01*
X228012087Y-62745590D01*
X228144410Y-62877913D01*
X228300006Y-62981879D01*
X228472895Y-63053492D01*
X228656433Y-63090000D01*
X228843567Y-63090000D01*
X229027105Y-63053492D01*
X229199994Y-62981879D01*
X229355590Y-62877913D01*
X229450002Y-62783501D01*
X229450001Y-67000000D01*
X229351509Y-67000000D01*
X229158311Y-67038429D01*
X228976322Y-67113811D01*
X228812537Y-67223249D01*
X228673249Y-67362537D01*
X228563811Y-67526322D01*
X228488429Y-67708311D01*
X228450000Y-67901509D01*
X228450000Y-68098491D01*
X228488429Y-68291689D01*
X228563811Y-68473678D01*
X228673249Y-68637463D01*
X228812537Y-68776751D01*
X228976322Y-68886189D01*
X229158311Y-68961571D01*
X229351509Y-69000000D01*
X229450001Y-69000000D01*
X229450001Y-69227542D01*
X229426317Y-69198683D01*
X229334955Y-69123704D01*
X229230721Y-69067990D01*
X229117621Y-69033682D01*
X229000000Y-69022097D01*
X227700000Y-69022097D01*
X227582379Y-69033682D01*
X227469279Y-69067990D01*
X227365045Y-69123704D01*
X227273683Y-69198683D01*
X227228745Y-69253440D01*
X225225000Y-67249696D01*
X225225000Y-64950594D01*
X225228506Y-64914997D01*
X225225000Y-64879400D01*
X225225000Y-64879391D01*
X225214509Y-64772873D01*
X225173053Y-64636210D01*
X225105731Y-64510261D01*
X225093101Y-64494871D01*
X225037830Y-64427523D01*
X225037828Y-64427521D01*
X225015132Y-64399866D01*
X224987477Y-64377170D01*
X224352903Y-63742597D01*
X224352903Y-62600000D01*
X227250000Y-62600000D01*
X227308811Y-62597111D01*
X227503901Y-62577896D01*
X227619259Y-62554950D01*
X227626007Y-62552903D01*
X227892757Y-62552903D01*
X227908121Y-62589994D01*
G37*
%TD.AperFunction*%
%TA.AperFunction,Conductor*%
G36*
X217897097Y-55000000D02*
G01*
X217900000Y-55029474D01*
X217900000Y-55705260D01*
X215451018Y-58154243D01*
X215515848Y-58057218D01*
X215591230Y-57875229D01*
X215629659Y-57682031D01*
X215629659Y-57485049D01*
X215591230Y-57291851D01*
X215540001Y-57168172D01*
X217897097Y-54811078D01*
X217897097Y-55000000D01*
G37*
%TD.AperFunction*%
%TD*%
%TA.AperFunction,Conductor*%
%TO.N,VBUS*%
G36*
X227134721Y-71435762D02*
G01*
X227148026Y-71451974D01*
X227212740Y-71505084D01*
X227286573Y-71544548D01*
X227342383Y-71561478D01*
X227366685Y-71568850D01*
X227375098Y-71569679D01*
X227429126Y-71575000D01*
X227429132Y-71575000D01*
X227449999Y-71577055D01*
X227470866Y-71575000D01*
X227476044Y-71575000D01*
X227486842Y-71588158D01*
X227532523Y-71625647D01*
X227584640Y-71653504D01*
X227641190Y-71670659D01*
X227700000Y-71676451D01*
X228900000Y-71676451D01*
X228900000Y-71740149D01*
X228886771Y-71806654D01*
X228854681Y-71854681D01*
X228806654Y-71886771D01*
X228733688Y-71901285D01*
X228580736Y-71921422D01*
X228555521Y-71928178D01*
X228409955Y-71988473D01*
X228387347Y-72001526D01*
X228262347Y-72097442D01*
X228252512Y-72106066D01*
X227767388Y-72591190D01*
X227578087Y-72757203D01*
X227371464Y-72895263D01*
X227148591Y-73005172D01*
X226913277Y-73085051D01*
X226669542Y-73133533D01*
X226418298Y-73150000D01*
X222822085Y-73150000D01*
X222800001Y-73147825D01*
X222777917Y-73150000D01*
X220879908Y-73150000D01*
X220675129Y-73129831D01*
X220482934Y-73071529D01*
X220305808Y-72976853D01*
X220150558Y-72849442D01*
X220023147Y-72694192D01*
X219928471Y-72517066D01*
X219870169Y-72324871D01*
X219850483Y-72125000D01*
X219870169Y-71925129D01*
X219928471Y-71732934D01*
X220023147Y-71555808D01*
X220150558Y-71400558D01*
X220305808Y-71273147D01*
X220482934Y-71178471D01*
X220675129Y-71120169D01*
X220879908Y-71100000D01*
X226798959Y-71100000D01*
X227134721Y-71435762D01*
G37*
%TD.AperFunction*%
%TD*%
%TA.AperFunction,Conductor*%
%TO.N,VBUS*%
G36*
X225175485Y-52867768D02*
G01*
X225344229Y-52918955D01*
X225499745Y-53002080D01*
X225636054Y-53113946D01*
X225747920Y-53250255D01*
X225831045Y-53405771D01*
X225882232Y-53574515D01*
X225900000Y-53754908D01*
X225900000Y-55500000D01*
X225900482Y-55509802D01*
X225919697Y-55704892D01*
X225923521Y-55724118D01*
X225948549Y-55806625D01*
X225948549Y-56350000D01*
X225954341Y-56408810D01*
X225971496Y-56465360D01*
X225999353Y-56517477D01*
X226036842Y-56563158D01*
X226082523Y-56600647D01*
X226134640Y-56628504D01*
X226191190Y-56645659D01*
X226250000Y-56651451D01*
X227536525Y-56651451D01*
X227594229Y-56668955D01*
X227749745Y-56752080D01*
X227886054Y-56863946D01*
X227997920Y-57000255D01*
X228023734Y-57048549D01*
X226250000Y-57048549D01*
X226191190Y-57054341D01*
X226134640Y-57071496D01*
X226082523Y-57099353D01*
X226036842Y-57136842D01*
X225999353Y-57182523D01*
X225971496Y-57234640D01*
X225954341Y-57291190D01*
X225948549Y-57350000D01*
X225948549Y-57650000D01*
X225954341Y-57708810D01*
X225966836Y-57750000D01*
X225954341Y-57791190D01*
X225948549Y-57850000D01*
X225948549Y-58150000D01*
X225954341Y-58208810D01*
X225966836Y-58250000D01*
X225954341Y-58291190D01*
X225948549Y-58350000D01*
X225948549Y-58578012D01*
X225916686Y-58581150D01*
X225836573Y-58605452D01*
X225762740Y-58644916D01*
X225698026Y-58698026D01*
X225684716Y-58714244D01*
X225639243Y-58759717D01*
X225623025Y-58773027D01*
X225569915Y-58837742D01*
X225530451Y-58911575D01*
X225506149Y-58991688D01*
X225499999Y-59054128D01*
X225499999Y-59054134D01*
X225497944Y-59075001D01*
X225499999Y-59095868D01*
X225500000Y-59904123D01*
X225497944Y-59924999D01*
X225506149Y-60008313D01*
X225525316Y-60071496D01*
X225530452Y-60088426D01*
X225569916Y-60162259D01*
X225623026Y-60226973D01*
X225639238Y-60240278D01*
X225684716Y-60285756D01*
X225698026Y-60301974D01*
X225762740Y-60355084D01*
X225836573Y-60394548D01*
X225916686Y-60418850D01*
X225948549Y-60421988D01*
X225948549Y-60650000D01*
X225954341Y-60708810D01*
X225966836Y-60750000D01*
X225954341Y-60791190D01*
X225948549Y-60850000D01*
X225948549Y-61150000D01*
X225954341Y-61208810D01*
X225971496Y-61265360D01*
X225999353Y-61317477D01*
X226036842Y-61363158D01*
X226082523Y-61400647D01*
X226134640Y-61428504D01*
X226191190Y-61445659D01*
X226250000Y-61451451D01*
X228023734Y-61451451D01*
X227997920Y-61499745D01*
X227886054Y-61636054D01*
X227749745Y-61747920D01*
X227594229Y-61831045D01*
X227536525Y-61848549D01*
X226250000Y-61848549D01*
X226191190Y-61854341D01*
X226134640Y-61871496D01*
X226082523Y-61899353D01*
X226081735Y-61900000D01*
X224254908Y-61900000D01*
X224074515Y-61882232D01*
X223905771Y-61831045D01*
X223750255Y-61747920D01*
X223613946Y-61636054D01*
X223544514Y-61551451D01*
X223750000Y-61551451D01*
X223808810Y-61545659D01*
X223865360Y-61528504D01*
X223917477Y-61500647D01*
X223963158Y-61463158D01*
X224000647Y-61417477D01*
X224028504Y-61365360D01*
X224045659Y-61308810D01*
X224051451Y-61250000D01*
X224051451Y-59750000D01*
X224045659Y-59691190D01*
X224028504Y-59634640D01*
X224000647Y-59582523D01*
X223963158Y-59536842D01*
X223917477Y-59499353D01*
X223865360Y-59471496D01*
X223808810Y-59454341D01*
X223750000Y-59448549D01*
X222556625Y-59448549D01*
X222474118Y-59423521D01*
X222454892Y-59419697D01*
X222259802Y-59400482D01*
X222250000Y-59400000D01*
X219504908Y-59400000D01*
X219324515Y-59382232D01*
X219155771Y-59331045D01*
X219000255Y-59247920D01*
X218863946Y-59136054D01*
X218752080Y-58999745D01*
X218668955Y-58844229D01*
X218617768Y-58675485D01*
X218600000Y-58495092D01*
X218600000Y-53754908D01*
X218617768Y-53574515D01*
X218668955Y-53405771D01*
X218752080Y-53250255D01*
X218863946Y-53113946D01*
X219000255Y-53002080D01*
X219155771Y-52918955D01*
X219324515Y-52867768D01*
X219504908Y-52850000D01*
X224995092Y-52850000D01*
X225175485Y-52867768D01*
G37*
%TD.AperFunction*%
%TD*%
%TA.AperFunction,Conductor*%
%TO.N,/OUT-*%
G36*
X127373000Y-73000000D02*
G01*
X127375440Y-73024776D01*
X127382667Y-73048601D01*
X127394403Y-73070557D01*
X127410197Y-73089803D01*
X127429443Y-73105597D01*
X127451399Y-73117333D01*
X127475224Y-73124560D01*
X127500000Y-73127000D01*
X134773001Y-73127000D01*
X134773001Y-76873000D01*
X118227000Y-76873000D01*
X118227000Y-70127000D01*
X127373000Y-70127000D01*
X127373000Y-73000000D01*
G37*
%TD.AperFunction*%
%TD*%
%TA.AperFunction,Conductor*%
%TO.N,/OUT+*%
G36*
X126873000Y-60059483D02*
G01*
X126873000Y-62500000D01*
X126875440Y-62524776D01*
X126882667Y-62548601D01*
X126894403Y-62570557D01*
X126910197Y-62589803D01*
X126929443Y-62605597D01*
X126951399Y-62617333D01*
X126975224Y-62624560D01*
X127000000Y-62627000D01*
X134773000Y-62627000D01*
X134773000Y-66873000D01*
X123127000Y-66873000D01*
X123127000Y-66692017D01*
X123006831Y-66087888D01*
X122771111Y-65518810D01*
X122428899Y-65006654D01*
X121993346Y-64571101D01*
X121481190Y-64228889D01*
X120912112Y-63993169D01*
X120307983Y-63873000D01*
X119692017Y-63873000D01*
X119087888Y-63993169D01*
X118518810Y-64228889D01*
X118227000Y-64423870D01*
X118227000Y-57627000D01*
X123954020Y-57627000D01*
X126873000Y-60059483D01*
G37*
%TD.AperFunction*%
%TD*%
%TA.AperFunction,Conductor*%
%TO.N,/BP_B2-*%
G36*
X68773001Y-77367547D02*
G01*
X55000000Y-77367547D01*
X54779069Y-77389307D01*
X54566629Y-77453750D01*
X54370843Y-77558400D01*
X54199235Y-77699235D01*
X54058400Y-77870843D01*
X53953750Y-78066629D01*
X53889307Y-78279069D01*
X53867547Y-78500000D01*
X53867547Y-81500000D01*
X53889307Y-81720931D01*
X53953750Y-81933371D01*
X54058400Y-82129157D01*
X54199235Y-82300765D01*
X54370843Y-82441600D01*
X54566629Y-82546250D01*
X54779069Y-82610693D01*
X55000000Y-82632453D01*
X68773001Y-82632453D01*
X68773001Y-107773000D01*
X44752000Y-107773000D01*
X44752000Y-71176750D01*
X68773001Y-71129418D01*
X68773001Y-77367547D01*
G37*
%TD.AperFunction*%
%TD*%
%TA.AperFunction,Conductor*%
%TO.N,/BP_B1-*%
G36*
X54199235Y-62300765D02*
G01*
X54370843Y-62441600D01*
X54566629Y-62546250D01*
X54779069Y-62610693D01*
X55000000Y-62632453D01*
X68773000Y-62632453D01*
X68773000Y-69875415D01*
X44622779Y-69923002D01*
X44405133Y-69944655D01*
X44193716Y-70008788D01*
X43998872Y-70112934D01*
X43828091Y-70253091D01*
X43687934Y-70423872D01*
X43583788Y-70618716D01*
X43519655Y-70830133D01*
X43498000Y-71050000D01*
X43498000Y-107773000D01*
X31227000Y-107773000D01*
X31227000Y-62224604D01*
X54089500Y-62167053D01*
X54199235Y-62300765D01*
G37*
%TD.AperFunction*%
%TD*%
%TA.AperFunction,Conductor*%
%TO.N,/BP_B1+*%
G36*
X56905161Y-32333456D02*
G01*
X56661226Y-32789827D01*
X56511011Y-33285018D01*
X56460290Y-33800000D01*
X56511011Y-34314982D01*
X56661226Y-34810173D01*
X56905161Y-35266544D01*
X57233443Y-35666557D01*
X57633456Y-35994839D01*
X58089827Y-36238774D01*
X58585018Y-36388989D01*
X58970952Y-36427000D01*
X60229048Y-36427000D01*
X60614982Y-36388989D01*
X61110173Y-36238774D01*
X61566544Y-35994839D01*
X61966557Y-35666557D01*
X62294839Y-35266544D01*
X62538774Y-34810173D01*
X62688989Y-34314982D01*
X62739710Y-33800000D01*
X62688989Y-33285018D01*
X62538774Y-32789827D01*
X62294839Y-32333456D01*
X62207473Y-32227000D01*
X68773000Y-32227000D01*
X68773000Y-60876086D01*
X31227000Y-60970600D01*
X31227000Y-32227000D01*
X56992527Y-32227000D01*
X56905161Y-32333456D01*
G37*
%TD.AperFunction*%
%TD*%
M02*
