M48
; DRILL file {KiCad 9.0.7+1} date 2026-09-06T14:31:06+0000
; FORMAT={-:-/ absolute / metric / decimal}
; #@! TF.CreationDate,2026-09-06T14:31:06+00:00
; #@! TF.GenerationSoftware,Kicad,Pcbnew,9.0.7+1
; #@! TF.FileFunction,MixedPlating,1,2
FMAT,2
METRIC
; #@! TA.AperFunction,Plated,PTH,ViaDrill
T1C0.400
; #@! TA.AperFunction,Plated,PTH,ComponentDrill
T2C0.600
; #@! TA.AperFunction,Plated,PTH,ViaDrill
T3C0.800
; #@! TA.AperFunction,Plated,PTH,ComponentDrill
T4C1.000
; #@! TA.AperFunction,Plated,PTH,ComponentDrill
T5C1.200
; #@! TA.AperFunction,Plated,PTH,ComponentDrill
T6C1.300
; #@! TA.AperFunction,Plated,PTH,ComponentDrill
T7C1.400
; #@! TA.AperFunction,Plated,PTH,ComponentDrill
T8C2.500
; #@! TA.AperFunction,NonPlated,NPTH,ComponentDrill
T9C0.700
; #@! TA.AperFunction,NonPlated,NPTH,ComponentDrill
T10C0.800
; #@! TA.AperFunction,NonPlated,NPTH,ComponentDrill
T11C3.200
%
G90
G05
T1
X189.0Y-59.0
X189.0Y-60.0
X189.0Y-61.0
X189.0Y-66.0
X189.0Y-67.0
X189.0Y-68.0
X189.0Y-72.0
X189.0Y-73.0
X189.0Y-74.0
X189.0Y-79.0
X189.0Y-80.0
X189.0Y-81.0
X190.0Y-59.0
X190.0Y-60.0
X190.0Y-61.0
X190.0Y-66.0
X190.0Y-67.0
X190.0Y-68.0
X190.0Y-72.0
X190.0Y-73.0
X190.0Y-74.0
X190.0Y-79.0
X190.0Y-80.0
X190.0Y-81.0
X191.0Y-59.0
X191.0Y-60.0
X191.0Y-61.0
X191.0Y-66.0
X191.0Y-67.0
X191.0Y-68.0
X191.0Y-72.0
X191.0Y-73.0
X191.0Y-74.0
X191.0Y-79.0
X191.0Y-80.0
X191.0Y-81.0
X195.0Y-72.25
X195.75Y-72.25
X196.45Y-54.05
X196.5Y-72.25
X197.25Y-72.25
X198.0Y-72.25
X198.85Y-74.85
X199.1Y-67.95
X199.75Y-73.95
X199.85Y-69.15
X203.05Y-64.35
X203.375Y-62.0
X203.85Y-64.35
X204.25Y-62.05
X204.65Y-64.35
X206.65Y-68.55
X207.222Y-60.629
X207.558Y-63.329
X207.75Y-54.25
X207.969Y-58.192
X208.296Y-59.137
X208.45Y-69.85
X208.756Y-57.441
X209.0Y-60.678
X209.846Y-58.051
X210.0Y-66.849
X210.15Y-56.65
X211.649Y-63.822
X213.05Y-60.95
X213.7Y-57.056
X214.63Y-57.584
X216.05Y-57.45
X217.7Y-64.193
X217.7Y-66.49
X219.75Y-67.5
X219.75Y-68.5
X220.75Y-67.5
X220.75Y-68.5
X221.75Y-67.5
X221.75Y-68.5
X221.928Y-74.354
X223.85Y-74.65
X224.45Y-77.384
X225.95Y-80.75
X225.95Y-79.25
X227.1Y-76.479
X228.844Y-60.733
X229.5Y-58.75
X229.5Y-77.75
X229.5Y-79.25
X229.5Y-80.75
X229.5Y-82.25
X229.5Y-83.75
X229.5Y-85.25
T3
X57.25Y-59.25
X57.25Y-60.75
X57.25Y-66.25
X57.25Y-67.75
X57.25Y-72.25
X57.25Y-73.75
X57.25Y-79.25
X57.25Y-80.75
X58.75Y-59.25
X58.75Y-60.75
X58.75Y-66.25
X58.75Y-67.75
X58.75Y-72.25
X58.75Y-73.75
X58.75Y-79.25
X58.75Y-80.75
X60.25Y-59.25
X60.25Y-60.75
X60.25Y-66.25
X60.25Y-67.75
X60.25Y-72.25
X60.25Y-73.75
X60.25Y-79.25
X60.25Y-80.75
X61.75Y-59.25
X61.75Y-60.75
X61.75Y-66.25
X61.75Y-67.75
X61.75Y-72.25
X61.75Y-73.75
X61.75Y-79.25
X61.75Y-80.75
X63.25Y-59.25
X63.25Y-60.75
X63.25Y-66.25
X63.25Y-67.75
X63.25Y-72.25
X63.25Y-73.75
X63.25Y-79.25
X63.25Y-80.75
X64.75Y-59.25
X64.75Y-60.75
X64.75Y-66.25
X64.75Y-67.75
X64.75Y-72.25
X64.75Y-73.75
X64.75Y-79.25
X64.75Y-80.75
X66.25Y-59.25
X66.25Y-60.75
X66.25Y-66.25
X66.25Y-67.75
X66.25Y-72.25
X66.25Y-73.75
X66.25Y-79.25
X66.25Y-80.75
X67.75Y-59.25
X67.75Y-60.75
X67.75Y-66.25
X67.75Y-67.75
X67.75Y-72.25
X67.75Y-73.75
X67.75Y-79.25
X67.75Y-80.75
T4
X204.42Y-85.25
X206.96Y-85.25
X209.5Y-81.25
X209.5Y-85.25
X212.04Y-81.25
X212.04Y-85.25
X214.58Y-81.25
X214.58Y-85.25
T5
X232.2Y-66.625
X232.2Y-74.375
T6
X131.75Y-65.09
X131.75Y-70.17
X131.75Y-75.25
T7
X228.4Y-66.775
X228.4Y-74.225
T8
X120.0Y-60.0
X120.0Y-67.0
X120.0Y-73.0
X120.0Y-80.0
T9
X228.75Y-56.36
X228.75Y-62.14
T10
X229.45Y-68.0
X229.45Y-73.0
T11
X129.0Y-56.0
X129.0Y-84.0
T2
G00X227.7Y-54.93
M15
G01X228.8Y-54.93
M16
G05
G00X227.7Y-63.57
M15
G01X228.8Y-63.57
M16
G05
G00X231.6Y-54.93
M15
G01X232.4Y-54.93
M16
G05
G00X231.6Y-63.5
M15
G01X232.4Y-63.5
M16
G05
T4
G00X40.9Y-33.8
M15
G01X39.9Y-33.8
M16
G05
G00X40.9Y-106.2
M15
G01X39.9Y-106.2
M16
G05
G00X60.1Y-33.8
M15
G01X59.1Y-33.8
M16
G05
G00X60.1Y-106.2
M15
G01X59.1Y-106.2
M16
G05
M30
